<?xml version="1.0" encoding="UTF-8" standalone="no"?>
<svg
   version="1.1"
   id="Layer_1"
   x="0px"
   y="0px"
   width="100%"
   viewBox="0 0 1910 1863"
   enable-background="new 0 0 1910 1863"
   xml:space="preserve"
   sodipodi:docname="dtask.adobe.svg"
   inkscape:version="1.4.3 (0d15f75, 2025-12-25)"
   xmlns:inkscape="http://www.inkscape.org/namespaces/inkscape"
   xmlns:sodipodi="http://sodipodi.sourceforge.net/DTD/sodipodi-0.dtd"
   xmlns="http://www.w3.org/2000/svg"
   xmlns:svg="http://www.w3.org/2000/svg"><defs
   id="defs65" /><sodipodi:namedview
   id="namedview65"
   pagecolor="#ffffff"
   bordercolor="#000000"
   borderopacity="0.25"
   inkscape:showpageshadow="2"
   inkscape:pageopacity="0.0"
   inkscape:pagecheckerboard="0"
   inkscape:deskcolor="#d1d1d1"
   inkscape:zoom="0.24242443"
   inkscape:cx="897.18679"
   inkscape:cy="952.87425"
   inkscape:window-width="930"
   inkscape:window-height="1045"
   inkscape:window-x="780"
   inkscape:window-y="34"
   inkscape:window-maximized="0"
   inkscape:current-layer="Layer_1" />

<path
   fill="#023673"
   opacity="1"
   stroke="none"
   d="m 736.18811,1239.277 c 16.60706,-3.0988 32.38708,-8.3577 47.29529,-16.5276 22.5011,-12.3309 42.78601,-27.7316 61.8927,-44.6056 20.31848,-17.9441 39.8291,-36.8031 59.68066,-55.2753 0.34943,-0.3252 0.55145,-0.8087 1.34931,-2.0155 -2.91864,-1.3731 -5.54688,-3.0841 -8.42835,-3.8935 -36.17065,-10.1602 -69.54791,-26.6692 -101.98694,-45.162 -78.15435,-44.5541 -142.54687,-104.18721 -193.76483,-178.07747 -10.80951,-15.59442 -21.57837,-31.23614 -31.70025,-47.27624 -3.06293,-4.85376 -6.25977,-5.64515 -11.06031,-4.69013 -14.02862,2.79108 -28.03961,5.68518 -42.11096,8.24451 -24.37439,4.43316 -48.789,8.6452 -73.18698,12.94867 -0.49228,0.0869 -0.98532,0.17676 -1.48169,0.23224 -10.25385,1.14624 -13.3945,-0.17603 -17.7579,-9.52564 -2.62903,-5.6333 -4.82016,-11.73584 -5.71659,-17.84625 -1.13629,-7.74597 2.62464,-12.22522 10.28635,-14.01373 13.41498,-3.13141 26.88418,-6.02991 40.32471,-9.05274 20.56384,-4.62494 41.12335,-9.26886 61.68151,-13.91907 1.29493,-0.2929 2.55652,-0.72973 3.84266,-1.065 3.19934,-0.8341 4.22174,-2.24328 2.69616,-5.72369 -7.86645,-17.94666 -15.59222,-35.9577 -23.10528,-54.05493 -2.00318,-4.8252 -4.81198,-6.25116 -9.97388,-5.65204 -46.75738,5.42749 -90.23398,-4.82654 -130.95636,-27.89935 -33.34738,-18.89417 -59.92654,-44.70923 -79.29004,-77.81159 -2.82898,-4.83624 -5.08316,-10.07501 -7.0386,-15.3374 -1.94937,-5.24609 -1.16617,-10.36524 3.77652,-13.75397 9.03647,-6.19543 17.89975,-12.77563 27.4768,-18.02496 25.83072,-14.15808 53.39557,-24.00952 82.71842,-27.01972 16.44912,-1.68866 33.22775,-0.23602 49.85641,-0.0575 3.98053,0.0427 7.95499,0.64807 12.12989,1.01184 0.44833,-7.47742 0.94363,-14.89411 1.32769,-22.31659 0.83698,-16.1756 4.70471,-31.72675 8.90949,-47.30432 9.68881,-35.89429 30.99688,-63.89014 58.45544,-87.83011 11.86017,-10.34039 21.75897,-10.64032 33.862,-0.54392 13.66236,11.39719 24.41498,25.46909 34.38129,40.08295 18.92798,27.75473 30.66119,58.36581 35.224,91.64008 4.54089,33.11419 2.37872,65.64056 -9.17902,97.28143 -3.45373,9.45489 -3.30493,9.54578 5.57575,13.69794 20.8482,9.74768 42.40075,17.19671 66.05645,20.23602 0.12543,-2.19074 0.31586,-4.08844 0.33026,-5.98749 0.15265,-20.16565 0.34729,-40.33136 0.37372,-60.49737 0.01,-7.64783 2.74304,-13.19355 10.40345,-15.66657 5.04406,-1.62842 9.99176,-3.58111 15.08892,-5.00885 2.91828,-0.81738 4.14722,-2.56024 4.30066,-5.26428 0.198,-3.48895 0.25739,-6.98963 0.25818,-10.48529 0.0105,-44.33142 -0.15497,-88.66406 0.18341,-132.99286 0.0439,-5.75397 1.75067,-11.92694 4.26972,-17.14133 5.40142,-11.18084 15.26617,-15.36056 27.45031,-15.33926 45.9997,0.0804 91.9997,-0.0274 137.99958,-0.0644 1.81311,-0.001 3.62628,-1.9e-4 6.03546,-1.9e-4 0.36297,-4.80276 1.01068,-9.3786 1.01013,-13.95437 -0.0109,-92.99961 -0.16949,-185.99929 -0.0684,-278.998713 0.0119,-10.930123 0.78211,-21.938996 2.25672,-32.767563 1.79223,-13.160507 15.07586,-24.117722 28.43517,-24.142075 47.9997,-0.08749 96.00124,-0.215866 143.99784,0.185818 7.4406,0.06227 15.4539,1.517933 22.1588,4.599785 12.6222,5.801708 17.2572,17.265663 17.2598,30.74226 0.01,43.832778 -0.017,87.665578 0.019,131.498318 0,2.7976 0.4214,5.59483 0.6821,8.83309 2.3493,0 4.3084,-1.6e-4 6.2675,4e-5 98.3332,0.0103 196.6666,-0.0255 294.9996,0.1271 7.0916,0.011 14.4624,0.41081 21.2147,2.34015 15.4919,4.42648 24.4654,16.71603 24.6879,34.17064 0.5074,39.80492 0.4214,79.61738 0.5693,119.4268 0.022,5.80591 0,11.61194 0,18.38819 7.5652,0 14.3324,0.0214 21.0995,-0.004 27.8324,-0.10321 55.6657,-0.39779 83.4967,-0.24341 10.7861,0.0598 21.8002,-0.0692 32.2998,1.9856 20.0924,3.93213 29.9166,16.05563 30.5508,36.68747 0.747,24.30176 0.7076,48.62793 0.9856,72.94376 0.084,7.332 0.1541,14.66525 0.1056,21.9971 -0.027,4.10083 1.1212,5.99292 5.9158,6.33563 16.2381,1.16089 32.2052,3.89777 47.9231,8.53595 26.1558,7.71838 42.4019,24.84454 49.0446,50.79889 3.6044,14.08331 6.3298,28.52051 7.9089,42.96673 3.4307,31.38544 2.0385,62.82923 -0.6273,94.24738 -5.0871,59.95856 -19.8951,117.46814 -40.7792,173.82922 -22.8724,61.72773 -57.4255,115.82338 -102.4428,163.29318 -43.6265,46.0031 -94.547,82.1692 -153.5263,105.82 -30.6684,12.298 -62.5534,21.4897 -95.3574,26.6059 -17.7211,2.7638 -35.5597,4.8044 -53.3765,6.9065 -5.5959,0.6603 -10.1128,2.8705 -14.0571,6.74 -29.0095,28.4589 -63.2119,49.3861 -99.4363,66.9879 -47.6729,23.1651 -97.4388,40.7178 -149.4655,51.2298 -27.4753,5.5514 -55.09221,10.5907 -82.82756,14.599 -18.40326,2.6596 -37.10986,3.8439 -55.71607,4.3273 -27.29602,0.7094 -54.64721,0.9183 -81.93164,0.022 -30.91784,-1.016 -61.55865,-5.2265 -92.0766,-10.507 -40.15674,-6.948 -79.59918,-16.5067 -118.04413,-30.0242 -44.70367,-15.7182 -87.65118,-35.3707 -127.56625,-60.9255 -32.94259,-21.0908 -64.33627,-44.3934 -94.31073,-69.6925 C 315.52988,1116.1721 261.88901,1043.7449 222.68677,960.31903 200.54614,913.20184 185.21422,863.84576 176.2636,812.59552 167.38638,761.76562 164.63672,710.55316 166.75703,658.94605 169.28561,597.40173 181.21808,537.74921 201.64667,479.8739 223.70596,417.37869 255.58665,360.09497 296.17273,307.59506 343.56988,246.2847 399.50745,194.2751 464.11618,151.57413 509.11853,121.83133 557.13794,98.078476 607.82935,79.653648 643.83441,66.566864 680.56274,55.964664 718.2981,49.48933 c 24.34747,-4.17799 48.95959,-7.228576 73.57837,-9.288379 22.70324,-1.899533 45.57074,-1.905323 68.37164,-2.53394 8.90448,-0.245495 11.27679,1.59523 11.4494,10.501206 0.39575,20.42435 0.12524,40.861606 0.12524,62.300963 -44.01019,1.12255 -86.79541,3.26767 -129.80798,11.47023 -14.58447,2.98072 -28.49225,5.3898 -42.10901,8.92138 -82.5932,21.42113 -157.92651,57.74186 -226.34836,108.9466 -55.26523,41.35875 -101.82122,90.59422 -140.55368,147.57197 -51.2651,75.41398 -79.2131,159.2432 -89.64503,249.17893 -3.09979,26.72388 -3.80173,53.71509 -2.62346,80.78003 1.27605,29.31152 4.14468,58.37237 9.61867,87.11639 12.77919,67.10358 36.84816,129.95545 72.62886,188.22693 17.11868,27.87906 36.39685,54.16106 58.61416,78.68856 9.53925,10.2613 18.91541,20.1995 28.38221,30.4425 3.77188,3.6196 7.45309,6.9341 11.25293,10.5494 7.64337,7.2507 15.16815,14.2008 22.84289,21.4275 15.8768,14.6218 31.88989,28.5756 50.11871,39.7897 18.7096,11.5099 36.80292,24.089 55.93311,34.8345 49.31592,27.7016 101.66681,47.5783 157.26385,58.6751 23.99518,4.7893 48.09247,8.7646 72.56312,9.6767 35.07409,1.3075 69.76098,-2.0188 104.06634,-9.5234 29.51306,-6.4563 58.01123,-15.7809 85.45074,-29.2482 20.05366,-9.2646 40.19028,-17.7214 59.35778,-27.9875 31.6193,-16.9355 63.1504,-34.2416 91.142,-56.9853 32.7436,-26.6048 61.5133,-56.8901 83.7391,-93.0155 5.0513,-8.2099 9.8817,-16.571 15.2777,-24.5488 4.0143,-5.9349 7.8513,-5.5882 11.4683,0.8378 2.1016,3.7341 3.3953,7.9227 4.9679,12.3266 -2.2799,8.5607 -3.7337,16.9932 -6.8001,24.7917 -12.5981,32.0401 -31.9272,59.7747 -55.5468,84.6488 -2.5705,2.7068 -4.8963,5.6461 -8.0291,9.2827 11.386,1.0382 21.5875,2.3877 31.828,2.8249 32.6754,1.3951 65.2158,-0.5728 97.5719,-5.2003 49.6726,-7.1041 97.445,-20.5688 143.1205,-41.713 49.941,-23.1185 94.631,-53.6311 133.8878,-92.1038 27.3129,-26.7671 48.8485,-58.02809 69.1553,-90.19832 0.5483,-0.86859 0.8096,-1.91846 1.4685,-3.52838 -2.1323,0.42071 -3.599,0.57458 -4.9802,1.00378 -12.7021,3.94635 -25.3147,8.20032 -38.0957,11.86859 -29.9882,8.60694 -60.5758,10.46186 -91.5277,7.35089 -31.0708,-3.12304 -61.0813,-10.15033 -88.5925,-25.4671 -10.8763,-6.05542 -21.1954,-13.11194 -31.864,-20.01355 -3.289,-3.68152 -6.9781,-6.73303 -9.5114,-10.55145 -1.8763,-2.8277 -3.5436,-6.85559 -3.0518,-9.99609 1.5504,-9.89856 14.0999,-16.15644 22.6793,-8.85065 6.0783,5.17609 12.3095,10.2185 18.8134,14.841 32.5895,23.1623 69.7274,32.56879 108.9405,34.37921 31.4575,1.45221 61.98,-4.43365 91.6214,-15.00958 17.4215,-6.21594 31.7292,-16.30835 42.7009,-31.46692 16.3777,-22.62774 26.1396,-48.15558 33.7063,-74.63958 5.9687,-20.89118 11.3528,-41.96595 12.7709,-64.23597 5.2335,-26.70233 9.1109,-53.12841 10.5506,-79.9096 1.2556,-23.36066 0.8684,-46.59851 -4.4782,-69.45313 -2.1307,-9.10766 -4.2461,-18.73645 -13.1781,-24.2193 -3.9368,-2.4165 -8.1845,-4.43756 -12.4938,-6.1181 -24.6395,-9.60895 -50.7041,-12.06787 -76.6847,-13.76972 -25.0796,-1.64282 -50.2897,-2.13995 -75.4281,-1.85967 -45.1112,0.50286 -90.1819,2.5733 -134.9567,8.57208 -25.9931,3.48242 -52.0558,6.71264 -77.8465,11.38531 -66.8036,12.10315 -133.0346,26.91248 -198.9583,43.17688 -78.3079,19.31976 -156.65966,38.49256 -235.23577,56.67767 -27.92859,6.46363 -56.43585,11.02741 -84.92786,14.27265 -24.24285,2.76135 -48.84057,3.11853 -73.28625,3.21057 -31.66223,0.11926 -62.50946,-5.90076 -92.24512,-16.71454 -12.76068,-4.64062 -24.9566,-10.83417 -37.60437,-16.58533 -4.71283,-3.03643 -9.25494,-5.77063 -13.74206,-8.59234 -6.12409,-3.85114 -5.90259,-3.78894 -2.95655,-10.39044 4.43555,-9.93915 8.55317,-20.02015 13.05829,-30.32038 9.86872,-25.53839 10.66059,-51.82946 7.31397,-78.04718 -4.19709,-32.8804 -18.09253,-62.01462 -38.85779,-87.79388 -4.21143,-5.2283 -9.12372,-9.89197 -14.35974,-15.50992 -5.05445,5.69702 -9.33557,10.52237 -13.89527,15.51413 -6.36608,8.89517 -12.98333,17.30722 -18.43182,26.41818 -11.57404,19.35413 -18.89468,40.39289 -20.79455,62.89414 -1.8668,22.10919 0.78976,43.56598 13.51577,62.67718 1.4812,2.22437 2.01242,4.23993 -1.00351,5.78882 -3.72348,-1.51758 -7.06964,-2.98614 -10.50174,-4.21442 -30.96884,-11.08343 -62.89035,-12.82653 -95.72982,-9.68786 -4.37748,0.42297 -8.36725,0.71087 -12.2807,1.41974 -19.85816,3.59741 -38.28153,11.29651 -55.8042,20.93329 -13.18561,7.2517 -11.154,6.83892 -3.76151,17.56781 9.16055,13.29498 21.49905,23.61566 34.25272,33.30578 30.27633,23.00336 63.15335,40.29169 101.71032,44.1037 15.97257,1.57916 32.0243,1.47565 47.24927,-4.6391 6.5586,-2.63415 12.68665,-6.34045 19.46753,-9.79254 1.92761,5.66644 3.94989,11.07745 5.61505,16.59631 8.11145,26.88452 19.21094,52.46656 33.51789,76.61853 4.75506,8.0271 5.50463,8.23108 14.46844,6.34778 61.05896,-12.82904 122.05194,-25.98059 183.1922,-38.40777 12.49634,-2.53992 21.27722,-7.74762 28.68622,-18.56666 15.27179,-22.30065 49.49591,-24.0534 68.54761,-4.78021 16.09136,16.27838 17.39068,36.98804 5.2489,58.6305 -11.17572,19.92035 -39.31562,28.14282 -58.52753,16.12017 -11.50922,-7.20245 -22.24133,-9.20282 -34.61029,-4.62671 -0.61639,0.22803 -1.29791,0.27845 -1.94806,0.417 -54.22528,11.55389 -108.44531,23.13257 -162.68054,34.63958 -9.30524,1.97437 -9.9184,3.13117 -5.13202,11.44898 0.1662,0.28876 0.31885,0.58533 0.48749,0.87256 32.01251,54.54956 72.9779,101.64337 120.47949,143.06854 37.07288,32.33044 77.77319,59.60514 122.30267,80.52274 24.03778,11.2915 49.34125,19.8766 73.99549,29.8755 7.38916,2.9967 13.71722,1.7739 19.97802,-2.821 6.03614,-4.43 12.40436,-8.406 18.59827,-12.6234 14.1217,-9.6155 29.11597,-17.6524 45.47216,-22.5626 22.4614,-6.7429 45.1332,-12.7914 67.7721,-18.9264 2.3783,-0.6444 5.1416,0.1311 7.4142,0.4738 -73.3251,38.646 -137.70265,88.7288 -197.19227,145.5102 -12.22394,11.6675 -25.43628,22.2996 -38.48658,33.5545 -10.31268,5.3823 -20.06555,11.2384 -30.42211,15.69 -11.42933,4.9127 -23.4123,8.5374 -35.60926,12.6317 -15.0982,-1.7779 -29.74707,-3.4177 -44.37512,-5.2264 -1.38983,-0.172 -5.76118,-0.7176 -7.08095,-1.4558 M 1090.1227,161.5 c -0.043,-25.49495 0.2423,-50.99623 -0.249,-76.482544 -0.3064,-15.902115 -5.3125,-21.592613 -20.7045,-21.145485 -21.3123,0.61911 -42.6553,0.172981 -63.9851,0.188454 -18.83016,0.01366 -37.66036,0.02045 -56.49056,0.05955 -7.73028,0.01605 -10.71808,2.288391 -12.76013,9.848587 -0.55572,2.057137 -0.90283,4.240723 -0.90527,6.366783 -0.0439,38.326228 0.25146,76.655638 -0.1864,114.976818 -0.12238,10.71054 7.70184,16.5533 16.4591,16.57618 40.15967,0.10493 80.32036,0.14611 120.47956,-0.0259 10.2465,-0.0439 16.1742,-4.74704 17.2788,-14.97381 1.2279,-11.36846 0.7798,-22.91796 1.0635,-35.38863 M 987.5,383.80652 c 27.4973,0.0362 54.9945,0.0884 82.4917,0.10156 13.1306,0.006 15.7723,-2.14621 18.5107,-15.01086 0.3431,-1.6113 0.4706,-3.29587 0.4766,-4.94727 0.084,-23.16244 0.1578,-46.32501 0.1732,-69.48758 0.01,-12.16479 -0.03,-24.3305 -0.1781,-36.49423 -0.187,-15.37834 -6.7479,-21.90151 -21.9687,-22.00551 -5.9992,-0.041 -11.9988,-0.0107 -17.9982,-0.0105 -31.3301,0.001 -62.66101,-0.12704 -93.98993,0.0663 -13.36486,0.0825 -20.58569,6.36804 -20.14941,20.12314 0.55981,17.64713 0.13806,35.32541 0.13977,52.99027 0.002,19.83129 -0.0377,39.66272 0.0265,59.49383 0.0276,8.54798 4.35974,13.96698 12.54046,14.38266 12.9552,0.65833 25.94831,0.5701 39.92542,0.79816 M 934.83813,514.5 c 0.0421,8.65979 -0.0124,17.32147 0.14905,25.979 0.2367,12.68598 4.47321,17.25043 17.23444,17.30384 38.97192,0.16308 77.94548,0.1 116.91728,-0.0984 5.5999,-0.0284 11.9577,-0.43152 15.0542,-6.01245 2.158,-3.88922 3.3949,-8.7193 3.5788,-13.18933 0.4583,-11.13813 0.1329,-22.3111 0.027,-33.46921 -0.2394,-25.30234 -0.4496,-50.60547 -0.8445,-75.90561 -0.206,-13.20535 -5.29,-19.08316 -16.485,-19.10736 -39.9717,-0.0864 -79.94376,-0.0837 -119.91556,-0.009 -9.51978,0.0179 -15.2804,5.72022 -15.5224,15.15879 -0.22547,8.79406 -0.2298,17.59521 -0.23627,26.39328 -0.0151,20.65197 0.0268,41.30401 0.0427,62.95602 m -28.927,-88.46918 c -2.1156,-9.11242 -7.39093,-14.14224 -16.09466,-14.9902 -4.95941,-0.48312 -9.95386,-0.81906 -14.93421,-0.84094 -32.31646,-0.14203 -64.63336,-0.2222 -96.95001,-0.19416 -3.7901,0.003 -7.65594,0.45334 -11.35229,1.2901 -6.47498,1.46582 -11.17041,5.22473 -12.41864,12.09024 -0.6507,3.57883 -0.98926,7.26215 -1.00666,10.90049 -0.10699,22.32165 -0.0835,44.64392 -0.10003,66.966 -0.009,11.66074 -0.45581,23.3425 0.0928,34.9772 0.75836,16.08594 5.16736,22.21686 21.78387,22.00049 36.47547,-0.47504 72.96137,-0.14337 109.443,-0.1579 2.66369,-0.001 5.333,-0.0524 7.99011,-0.22625 8.55615,-0.56024 12.26349,-4.00415 13.44238,-12.48261 0.20526,-1.47613 0.16608,-2.99225 0.16602,-4.48993 -0.002,-37.98074 -0.0141,-75.96152 -0.0616,-114.84253 M 1144.3755,237.1069 c -4.6375,0.2858 -9.2749,0.57379 -13.9125,0.85681 -6.7533,0.41213 -11.411,3.94602 -13.2574,10.26571 -1.3321,4.5586 -2.0602,9.45625 -2.0855,14.20787 -0.175,32.98297 -0.1323,65.96734 -0.048,98.95102 0.01,3.79931 0.4521,7.64334 1.138,11.38525 1.3174,7.18839 5.716,11.48477 13.1919,12.16482 7.5998,0.69129 15.2714,0.86976 22.9087,0.82392 32.4694,-0.19495 64.9393,-0.45423 97.4059,-0.90866 12.5856,-0.17615 16.9585,-4.79587 17.2736,-17.37381 0.1788,-7.13535 0.2172,-14.27591 0.208,-21.414 -0.037,-28.45874 0.032,-56.91886 -0.2362,-85.37564 -0.1686,-17.89232 -5.2541,-22.5926 -23.238,-22.73362 -32.8004,-0.2572 -65.6004,-0.55092 -99.3487,-0.84967 m 197.1245,0.90287 c -9.8295,0.0159 -19.6593,-0.0236 -29.4882,0.0627 -10.3691,0.0911 -14.7862,3.46292 -16.6041,13.40137 -0.9217,5.0393 -1.1504,10.25967 -1.172,15.40039 -0.1321,31.32116 -0.1516,62.643 -0.1017,93.96448 0.01,3.97262 0.4143,7.97921 1.0296,11.90844 0.989,6.31384 4.3481,10.80481 10.961,11.97159 3.583,0.63217 7.2497,1.07868 10.8813,1.09802 20.6583,0.11017 41.3175,0.0662 61.9763,0.0747 16.3271,0.007 32.6549,0.089 48.9814,-0.007 10.2837,-0.0606 15.8095,-5.43649 16.1317,-15.56146 0.1953,-6.13587 0.1191,-12.28055 0.1563,-18.4213 0.1854,-30.63995 0.6019,-61.28104 0.4527,-91.91937 -0.075,-15.42473 -3.1715,-22.34526 -21.2364,-22.09508 -26.9846,0.37367 -53.9782,0.11455 -81.9679,0.12258 M 1115.0005,451.5 c 10e-4,28.98062 -0.083,57.96164 0.044,86.94171 0.053,12.07623 5.167,17.42712 16.8713,17.37201 40.1221,-0.18933 80.243,-0.62353 120.3647,-0.91235 6.3351,-0.0457 10.4739,-3.25019 12.4848,-8.89966 1.2588,-3.53662 2.0691,-7.41858 2.1342,-11.16199 0.2689,-15.48535 0.2119,-30.97696 0.2087,-46.46628 -0,-19.31976 0.034,-38.64053 -0.1528,-57.95889 -0.1154,-11.93478 -7.3314,-20.38632 -17.4093,-20.40637 -38.9742,-0.0776 -77.949,-0.0628 -116.9232,0.0303 -8.9865,0.0215 -15.1956,4.70471 -16.3981,13.621 -1.1923,8.84107 -0.8778,17.88538 -1.2241,27.84055 m 313.1371,80.23389 c 0.8119,-0.18293 1.6158,-0.4206 2.437,-0.54053 12.2442,-1.78815 12.2447,-1.78455 12.3183,-14.50037 0,-0.49963 0.013,-0.99939 0,-1.49884 -0.2151,-11.64569 -0.5469,-23.29065 -0.6227,-34.93725 -0.1136,-17.45877 -0.4596,-34.93164 0.087,-52.37363 0.3614,-11.53833 -8.4091,-17.90854 -19.9069,-17.90988 -37.4713,-0.004 -74.9425,0.0175 -112.4138,0.0131 -4.9211,-5.8e-4 -9.0495,1.96503 -11.1175,6.28058 -1.8924,3.9494 -3.6728,8.44571 -3.7065,12.71518 -0.2933,37.30063 -0.2827,74.60483 -0.1185,111.90695 0.038,8.65088 2.1281,10.20917 10.5646,8.84595 24.8856,-4.02094 49.7042,-8.47449 74.6261,-12.24933 15.5797,-2.35974 31.2986,-3.79956 47.8495,-5.75195 M 1559.5,527.78296 h 53.4542 c 0,-2.31055 -6e-4,-4.09277 3e-4,-5.87494 0.015,-30.8309 0.044,-61.6618 0.037,-92.49271 -0,-10.31274 -5.0942,-16.54254 -15.2604,-18.44857 -3.4079,-0.63898 -6.924,-0.96637 -10.3922,-0.9766 -20.6648,-0.0611 -41.3301,0.0242 -61.9951,0.0362 -12.3323,0.007 -24.6671,-0.19516 -36.9961,1.8e-4 -11.9583,0.18945 -17.802,4.74951 -19.1964,14.74439 -0.6188,4.43524 -0.9437,8.94781 -0.9446,13.42535 -0,9.15408 0.4657,18.3085 0.4509,27.46231 -0.025,15.655 -0.365,31.30957 -0.3735,46.96442 -0,4.9273 0.6322,9.85498 1.0015,15.15954 29.9644,0 59.5893,0 90.2142,4.3e-4 z"
   id="path2"
   sodipodi:nodetypes="csssccssscssssssssssscssssssscssssssssccsssscssssccsssssssccsssscsssssssssssssssssssssscssssssssssssssccsssssssccccscssscssssscsscsssssccssscsssssssscssssssssssssscsscssccsssccccsscssccscsssssscsscssssssscscscsccssssssssssccssssssssssssccsssscssssssccssssscsssscscccsscscsssssssccsscscssssscssccscssssssssccsscssssscssscccsssssssssscc"
   style="fill:#1a4681;fill-opacity:1" />
<path
   fill="#023672"
   opacity="1.000000"
   stroke="none"
   d=" M509.000793,1504.000000   C509.133148,1598.478760 509.349304,1692.457520 509.333191,1786.436279   C509.329590,1807.391724 509.805847,1806.804199 489.053375,1806.979492   C474.891205,1807.098999 460.726532,1807.036011 446.563873,1806.933594   C440.867584,1806.892456 438.687958,1805.114868 438.087799,1799.427002   C437.345825,1792.394897 437.153564,1785.304810 436.664429,1777.264404   C433.690277,1779.309082 431.195160,1780.817505 428.929535,1782.615112   C413.257019,1795.050293 396.187622,1804.951782 376.252167,1808.200073   C303.753387,1820.012939 246.465912,1784.634766 228.271820,1714.079834   C217.815933,1673.533081 221.035660,1633.292847 239.536148,1595.526489   C258.773865,1556.255249 290.724335,1532.479370 334.188599,1525.292847   C369.187531,1519.505981 401.210724,1527.213379 430.050903,1547.948242   C431.266235,1548.822144 432.525085,1549.637451 433.789154,1550.440063   C434.016937,1550.584717 434.368896,1550.533569 435.097931,1550.630737   C435.097931,1548.821899 435.099579,1547.064209 435.097687,1545.306519   C435.055145,1505.649658 435.210907,1465.990967 434.822632,1426.337524   C434.731262,1417.007935 439.993195,1413.726440 447.281403,1413.462280   C464.911469,1412.823120 482.580902,1413.186279 500.233368,1413.308228   C504.793671,1413.339722 507.123718,1416.546997 507.813354,1420.616455   C508.532471,1424.859985 508.911346,1429.209595 508.931580,1433.515137   C509.041351,1456.843018 508.993988,1480.171631 509.000793,1504.000000  M314.505524,1710.937256   C317.787292,1715.714844 320.482330,1721.057495 324.448425,1725.176147   C346.210266,1747.774902 383.542542,1751.993896 410.174408,1735.146484   C425.996796,1725.137207 435.286926,1711.359131 435.124512,1691.979370   C434.997467,1676.820679 435.231384,1661.658447 435.375732,1646.498413   C435.611725,1621.710938 424.674957,1603.891235 402.331635,1593.057251   C389.608185,1586.887817 376.060333,1585.875732 362.386139,1587.347656   C341.159149,1589.632446 324.470123,1599.577393 315.006897,1619.234985   C300.518921,1649.330200 301.199432,1679.810059 314.505524,1710.937256  z"
   id="path3"
   style="fill:#1a4681;fill-opacity:1" />
<path
   fill="#023672"
   opacity="1.000000"
   stroke="none"
   d=" M1298.041870,1574.000000   C1298.030884,1527.168091 1297.997437,1480.836060 1298.048584,1434.504150   C1298.052856,1430.533325 1298.404907,1426.532104 1298.973999,1422.599731   C1299.845825,1416.575439 1303.200195,1413.378296 1309.375732,1413.315063   C1327.698975,1413.127197 1346.029175,1413.004517 1364.348755,1413.318237   C1373.906128,1413.481934 1375.936646,1415.990601 1375.940430,1425.389038   C1375.965454,1487.220581 1375.960815,1549.052002 1375.965576,1610.883545   C1375.965942,1614.363159 1375.965576,1617.842773 1377.084595,1622.154419   C1380.706055,1618.967773 1384.517090,1615.970215 1387.919067,1612.564209   C1412.415405,1588.038940 1437.025879,1563.621948 1461.135010,1538.720215   C1467.470581,1532.176392 1474.417114,1530.077271 1482.977417,1530.337158   C1494.624634,1530.690918 1506.284790,1530.614502 1517.938965,1530.753174   C1528.261230,1530.875977 1538.584961,1530.959839 1548.904053,1531.220703   C1554.153076,1531.353271 1556.078857,1534.487061 1553.182983,1539.090698   C1550.377930,1543.549683 1546.835327,1547.655762 1543.099365,1551.400757   C1512.026123,1582.548584 1480.832642,1613.576538 1449.678223,1644.643311   C1449.096069,1645.223633 1448.545166,1645.835449 1447.565796,1646.869751   C1449.708008,1649.810181 1451.729248,1652.799438 1453.963989,1655.619507   C1489.436768,1700.385864 1524.948853,1745.121216 1560.404297,1789.901245   C1562.873047,1793.019165 1565.253296,1796.276245 1567.164551,1799.749268   C1569.741699,1804.432861 1568.480713,1806.675049 1563.352661,1806.708618   C1538.355103,1806.872437 1513.351807,1807.174072 1488.364014,1806.706299   C1484.524292,1806.634521 1479.631836,1803.702881 1477.142700,1800.570679   C1464.929565,1785.202759 1453.230347,1769.418335 1441.606323,1753.592407   C1429.489624,1737.095947 1417.720337,1720.344604 1405.670898,1703.798218   C1403.075439,1700.234131 1399.931030,1697.069702 1396.504639,1693.101807   C1389.955811,1699.056152 1383.867065,1704.210449 1378.309326,1709.885010   C1376.706055,1711.522095 1375.972290,1714.651978 1375.957642,1717.104126   C1375.815063,1740.935547 1375.952515,1764.768311 1375.895630,1788.600464   C1375.886108,1792.573975 1375.132568,1796.543457 1375.074829,1800.519775   C1375.015991,1804.573486 1373.264771,1806.565674 1369.207031,1806.542480   C1347.241699,1806.416748 1325.275146,1806.368286 1303.313477,1806.016113   C1301.892212,1805.993408 1299.622925,1803.852417 1299.280029,1802.347534   C1298.403564,1798.502075 1298.085449,1794.459473 1298.082031,1790.495361   C1298.021362,1718.496948 1298.040161,1646.498413 1298.041870,1574.000000  z"
   id="path4"
   style="fill:#1a4681;fill-opacity:1" />
<path
   fill="#9edffd"
   opacity="1"
   stroke="none"
   d="m 421.1134,1112.0615 c -3.68118,-3.3147 -7.36239,-6.6292 -11.15222,-10.6501 -11.19297,-11.6506 -19.42549,-20.0057 -28.52737,-30.3642 -22.0542,-24.2045 -41.33237,-50.4865 -58.45105,-78.36556 -35.7807,-58.27148 -59.84967,-121.12335 -72.62886,-188.22693 -5.47399,-28.74402 -8.34262,-57.80487 -9.61867,-87.11639 -1.17827,-27.06494 -0.47633,-54.05615 2.62346,-80.78003 10.43193,-89.93573 38.37993,-173.76495 89.64503,-249.17893 38.73246,-56.97775 85.28845,-106.21322 140.55368,-147.57197 68.42185,-51.20474 143.75516,-87.52547 226.34836,-108.9466 13.61676,-3.53158 27.52454,-5.94066 41.71326,-8.81878 -8.45429,9.02647 -16.73602,18.71229 -26.40247,26.72821 -6.34277,5.25976 -14.43353,8.71753 -22.17901,11.92604 -30.38019,12.58491 -61.6615,23.23677 -91.24097,37.45138 -37.7276,18.13024 -74.57196,38.2639 -107.78171,64.24976 -25.00891,19.56891 -49.36218,39.88122 -71.52127,62.67874 -30.85367,31.74255 -56.8096,67.07831 -79.48944,105.14502 -19.47424,32.68631 -34.06702,67.30817 -45.8291,103.22305 -8.36057,25.52863 -14.82938,51.61957 -18.21341,78.35096 -2.45331,19.37957 -5.53394,38.73809 -6.71201,58.20416 -1.15518,19.08868 -0.55404,38.30847 -0.10855,57.45636 0.16367,7.03448 2.08853,14.02807 3.38068,21.70422 0.60028,6.20563 1.02994,11.74744 1.45959,17.28919 1.73865,11.94061 2.94822,23.9873 5.31806,35.80133 6.37814,31.79522 15.78683,62.7428 27.6561,92.91742 11.90014,30.25317 26.58944,59.10864 43.58743,86.83178 24.69208,40.27187 54.7987,76.02467 89.23153,108.24757 31.75245,29.7145 65.24823,57.1954 102.9242,79.1532 34.81006,20.2873 70.64892,38.3058 109.22156,50.7225 24.3974,7.8537 49.23561,13.3741 74.21759,18.8646 6.88836,1.5139 5.4425,1.3554 11.01904,2.4284 14.62805,1.8087 29.27692,3.4485 44.70978,5.3834 13.01861,1.2554 25.25708,3.1901 37.47418,3.0626 20.90411,-0.2176 41.78613,-2.0571 62.69336,-2.6064 24.31695,-0.6389 48.06885,-5.3077 71.98444,-8.9275 3.95965,-0.5992 8.06286,-0.2501 12.09973,-0.3392 -27.08704,13.4725 -55.58521,22.7971 -85.09827,29.2534 -34.30536,7.5046 -68.99225,10.8309 -104.06634,9.5234 -24.47065,-0.9121 -48.56794,-4.8874 -72.56312,-9.6767 -55.59704,-11.0968 -107.94793,-30.9735 -157.26385,-58.6751 -19.13019,-10.7455 -37.22351,-23.3246 -55.93311,-34.8345 -18.22882,-11.2141 -34.24191,-25.1679 -50.13549,-40.1794 -11.3243,-10.334 -15.28755,-13.8791 -22.94477,-21.3384 z"
   id="path5"
   sodipodi:nodetypes="cccssssssscssssssssssccssssssscccsscssssscc"
   style="fill:#b8e4fc;fill-opacity:1" />
<path
   fill="#023673"
   opacity="1.000000"
   stroke="none"
   d=" M994.979675,1702.000000   C994.972290,1731.665649 994.975708,1760.831421 994.941406,1789.997070   C994.938110,1792.825073 994.863770,1795.671631 994.541321,1798.477173   C993.760315,1805.273193 991.857605,1806.958618 984.817749,1806.985596   C969.485168,1807.044312 954.151611,1807.083374 938.819519,1806.975830   C927.680725,1806.897705 925.160400,1804.452393 923.975891,1793.466675   C923.712097,1791.019897 923.146423,1788.605835 922.543701,1785.174072   C916.203186,1788.776855 910.317444,1792.051147 904.498291,1795.439941   C880.011108,1809.699707 853.376282,1811.857056 825.931946,1809.411987   C808.256958,1807.837402 791.834656,1802.621338 777.373535,1792.083252   C753.595581,1774.755859 743.874023,1750.850098 744.818359,1722.000854   C745.570862,1699.013184 752.406982,1678.523926 769.762878,1662.592163   C783.886658,1649.626953 800.929016,1642.527466 819.617554,1639.256104   C839.587830,1635.760498 859.702576,1635.784546 879.804382,1637.818237   C893.493774,1639.203125 907.133789,1641.075806 920.804626,1642.731445   C925.271362,1619.385864 917.353455,1597.700317 893.085449,1591.764526   C866.025269,1585.145752 839.341431,1587.578735 812.789795,1594.508667   C805.907654,1596.305054 799.090942,1598.350952 792.229370,1600.228394   C785.877930,1601.966187 783.472046,1601.448364 780.943970,1595.665405   C775.177307,1582.474854 769.889160,1569.068237 764.760498,1555.614502   C764.132385,1553.966797 764.980286,1550.562012 766.323547,1549.572998   C771.078308,1546.071289 776.045532,1542.533691 781.466309,1540.314087   C815.653687,1526.316528 851.184998,1521.526123 887.989685,1524.986328   C909.758484,1527.032837 930.601990,1531.774292 949.626221,1542.886475   C973.981934,1557.112549 987.360046,1578.982788 991.770691,1606.273193   C993.857300,1619.184204 994.486145,1632.401489 994.837524,1645.505127   C995.337646,1664.157959 994.974365,1682.833862 994.979675,1702.000000  M882.842102,1750.390503   C886.306213,1749.286987 889.908936,1748.495728 893.212097,1747.029663   C915.820923,1736.993896 921.838623,1726.583374 921.527893,1705.188843   C921.412842,1697.266357 920.362000,1695.878540 912.507080,1694.268311   C902.303162,1692.176880 891.983398,1690.201294 881.620911,1689.444214   C868.065125,1688.453857 854.373962,1688.106323 841.226624,1692.974609   C833.269470,1695.921021 826.005493,1699.732910 822.197693,1707.887329   C815.505737,1722.218384 817.480652,1744.083374 842.724670,1750.924805   C855.812378,1754.471802 868.988525,1753.950073 882.842102,1750.390503  z"
   id="path6"
   style="fill:#1a4681;fill-opacity:1" />
<path
   fill="#023673"
   opacity="1.000000"
   stroke="none"
   d=" M1245.218384,1669.787109   C1261.804443,1687.988037 1266.639404,1709.333252 1264.255859,1732.913086   C1263.037109,1744.969604 1259.704468,1756.308472 1253.750122,1766.852051   C1244.002197,1784.113037 1228.598145,1794.240723 1210.542847,1801.043091   C1186.682983,1810.032349 1161.810547,1810.690308 1136.823608,1809.762207   C1105.188843,1808.587280 1074.869263,1801.260620 1045.704956,1789.062256   C1042.807251,1787.850098 1039.982056,1786.403076 1037.275757,1784.806641   C1029.639526,1780.301636 1028.434326,1779.276367 1031.293823,1770.887573   C1035.982910,1757.131348 1042.012207,1743.829346 1047.550903,1730.366455   C1049.491699,1725.649048 1052.980347,1725.264526 1057.301758,1727.087646   C1069.345703,1732.168823 1081.223267,1737.750244 1093.548096,1742.037231   C1115.857910,1749.797607 1138.845947,1754.246094 1162.565063,1750.903564   C1169.624268,1749.908691 1177.035767,1747.954346 1183.149658,1744.454834   C1194.765747,1737.805786 1196.905396,1716.795288 1181.964600,1708.755493   C1171.811890,1703.292236 1160.724365,1701.514282 1149.756958,1699.077759   C1127.154907,1694.056519 1104.242676,1690.121704 1082.029785,1683.747314   C1060.103516,1677.455078 1041.340942,1664.504639 1034.782959,1641.721191   C1023.006348,1600.807617 1033.689575,1557.699463 1078.294312,1536.852905   C1101.445801,1526.032837 1125.968262,1522.594116 1151.114990,1523.336304   C1175.606201,1524.059204 1199.821411,1527.362549 1222.855469,1536.274780   C1231.180664,1539.495850 1239.083618,1543.833130 1247.095093,1547.829590   C1251.225830,1549.889893 1252.566650,1553.452759 1251.378174,1557.888062   C1247.413696,1572.682617 1241.966064,1586.865356 1234.209595,1600.135742   C1232.387329,1603.253418 1230.356445,1603.609131 1227.215454,1602.332764   C1216.631958,1598.032715 1206.173706,1593.281250 1195.302856,1589.862793   C1174.362427,1583.278198 1152.846436,1580.582031 1130.877197,1583.061890   C1123.468018,1583.898315 1116.586060,1586.184326 1111.041260,1591.415283   C1101.145508,1600.751587 1101.706665,1614.167603 1113.503662,1620.861084   C1121.845825,1625.594360 1131.424072,1628.626221 1140.815796,1630.926636   C1157.227417,1634.946777 1174.093384,1637.145630 1190.451172,1641.344849   C1210.642822,1646.528320 1230.280884,1653.415283 1245.218384,1669.787109  z"
   id="path7"
   style="fill:#1a4681;fill-opacity:1" />
<path
   fill="#023673"
   opacity="1.000000"
   stroke="none"
   d=" M676.001953,1592.621582   C670.534119,1592.621338 665.565674,1592.621338 660.351929,1592.621338   C660.163574,1594.258057 659.960754,1595.198120 659.960815,1596.138306   C659.961731,1636.961426 659.908630,1677.785034 660.094727,1718.607300   C660.116394,1723.360107 661.027283,1728.230225 662.300354,1732.831787   C665.364197,1743.905762 673.383362,1750.337280 684.968445,1750.051147   C692.847717,1749.856567 700.726868,1748.202881 708.529602,1746.781494   C715.968628,1745.426514 717.350464,1745.752563 718.798035,1753.018311   C720.546082,1761.791870 721.756775,1770.682007 722.919434,1779.558594   C723.544189,1784.328125 723.617554,1789.172607 723.873291,1793.986816   C724.131470,1798.846313 722.240295,1801.708130 717.185547,1803.280640   C701.455017,1808.174683 685.295288,1809.481445 669.005310,1809.952881   C655.860107,1810.333374 642.773010,1810.193970 629.910522,1806.605591   C604.916626,1799.632935 591.488770,1782.171021 586.230286,1757.885376   C584.317810,1749.052856 584.056213,1739.752563 583.960205,1730.656006   C583.496338,1686.671509 583.344971,1642.683472 583.084595,1598.696777   C583.074829,1597.048584 583.083374,1595.400269 583.083374,1592.625000   C577.868958,1592.625000 572.934753,1592.686401 568.002563,1592.610962   C560.179077,1592.491333 552.356506,1592.299316 544.534546,1592.101318   C539.086365,1591.963257 536.270447,1589.820557 536.169800,1584.407104   C535.888184,1569.251343 535.929810,1554.086304 536.098145,1538.927612   C536.147400,1534.493408 540.150696,1531.330200 545.569580,1531.226929   C555.222839,1531.042725 564.882324,1531.211670 574.538391,1531.133057   C577.326843,1531.110352 580.112427,1530.746582 583.630737,1530.484741   C583.630737,1523.785522 583.678955,1517.494995 583.620850,1511.205566   C583.494507,1497.543091 583.169617,1483.880737 583.203979,1470.219116   C583.228455,1460.497681 586.670715,1456.575928 596.334595,1455.321533   C612.483521,1453.225342 628.670227,1451.418213 644.846863,1449.539307   C646.657837,1449.328857 648.513611,1449.316772 650.335999,1449.425171   C656.143005,1449.770020 658.568176,1451.808594 658.908386,1457.654175   C659.391785,1465.961548 659.479065,1474.298462 659.525024,1482.623779   C659.612366,1498.423828 659.550354,1514.224731 659.550354,1531.100586   C671.372925,1531.100586 682.494080,1531.102783 693.615295,1531.099854   C702.108459,1531.097656 710.601562,1531.074951 719.094727,1531.088623   C723.611694,1531.095825 726.469299,1533.169189 726.506714,1537.884277   C726.628052,1553.195557 726.816589,1568.511963 726.525269,1583.817871   C726.428589,1588.895142 722.348816,1591.928833 716.442078,1592.070312   C703.131775,1592.389038 689.815308,1592.453735 676.001953,1592.621582  z"
   id="path8"
   style="fill:#1a4681;fill-opacity:1" />
<path
   fill="#229AF7"
   opacity="1.000000"
   stroke="none"
   d=" M1718.076294,321.017883   C1728.272217,336.524231 1726.282593,363.374451 1705.745728,373.609558   C1697.833252,377.552856 1689.431152,378.432892 1681.498535,376.369904   C1658.720703,370.446320 1636.206421,363.504700 1613.621216,356.851959   C1611.629395,356.265198 1609.876587,354.866119 1606.518433,353.025024   C1612.124634,347.835358 1616.849487,342.924194 1622.118652,338.690338   C1634.933350,328.393433 1647.401611,317.492828 1661.122559,308.541748   C1677.086792,298.127258 1704.016602,300.671906 1718.076294,321.017883  z"
   id="path9"
   style="fill:#52a9f2;fill-opacity:1" />
<path
   fill="#229AF7"
   opacity="1.000000"
   stroke="none"
   d=" M1533.968994,286.053101   C1541.758057,272.201660 1551.387451,260.729187 1567.056641,256.449524   C1584.211792,251.763931 1602.478271,262.037415 1606.348999,278.723877   C1609.101685,290.589661 1604.836670,301.037384 1597.193115,310.035217   C1594.102539,313.673553 1590.451660,316.992523 1586.565918,319.771820   C1568.443604,332.733276 1549.891846,345.027130 1529.519043,354.286102   C1528.336792,354.823425 1527.138794,355.325836 1525.130737,356.200531   C1525.130737,348.444427 1524.864624,341.232727 1525.188110,334.047607   C1525.799805,320.461151 1526.492065,306.849030 1530.960571,293.806885   C1531.817871,291.304810 1532.882935,288.873932 1533.968994,286.053101  z"
   id="path10"
   style="fill:#52a9f2;fill-opacity:1" />
<path
   fill="#043773"
   opacity="1.000000"
   stroke="none"
   d=" M852.910034,141.120850   C856.341431,141.454941 859.353149,141.579376 862.270752,142.169128   C867.675232,143.261520 870.869446,147.850952 870.951416,155.133652   C871.242004,180.935791 871.419189,206.739563 871.526917,232.543167   C871.556091,239.520309 871.415955,246.514450 870.945801,253.473251   C870.360535,262.135345 866.190369,267.091156 857.525757,268.158142   C852.032715,268.834534 846.198730,268.396698 840.746582,267.309937   C834.651611,266.095062 831.837036,261.330109 830.954834,254.965057   C827.536682,230.303299 827.840149,205.507477 828.039612,180.717087   C828.097046,173.578079 828.077087,166.352631 829.147644,159.327591   C830.778259,148.626938 832.334167,141.789291 845.966370,141.475113   C848.128418,141.425293 850.287476,141.242477 852.910034,141.120850  z"
   id="path11"
   style="fill:#1a4681;fill-opacity:1" />
<path
   fill="#053874"
   opacity="1.000000"
   stroke="none"
   d=" M277.305878,766.617188   C276.551697,760.907349 276.122040,755.365540 275.769592,749.436279   C277.128387,747.322693 278.408661,745.595703 279.691742,743.870789   C282.929840,739.517517 287.006195,736.483459 292.654388,736.640991   C315.224365,737.270447 337.826202,737.475769 360.344513,738.940491   C371.671112,739.677246 374.419006,744.539490 374.439484,757.671082   C374.453979,766.961914 369.528748,772.519226 359.837036,774.140198   C358.852631,774.304871 357.862762,774.575073 356.876556,774.570190   C336.579193,774.469543 316.281830,774.232483 295.984833,774.264221   C288.721466,774.275513 282.709991,771.827515 277.305878,766.617188  z"
   id="path12"
   style="fill:#1a4681;fill-opacity:1" />
<path
   fill="#043773"
   opacity="1.000000"
   stroke="none"
   d=" M632.761719,1129.749512   C635.656311,1125.254639 638.048889,1120.817017 641.192261,1116.997314   C646.582764,1110.447021 655.381470,1109.205322 663.677551,1113.253296   C672.525696,1117.570679 676.746765,1125.052490 674.718750,1133.905396   C670.356567,1152.947021 662.622131,1170.759644 653.766235,1188.049805   C649.319824,1196.730835 642.423218,1198.682129 631.085632,1195.880249   C617.698120,1192.571777 612.412415,1184.048950 616.872864,1170.889648   C621.548340,1157.096069 627.310303,1143.670776 632.761719,1129.749512  z"
   id="path13"
   style="fill:#1a4681;fill-opacity:1" />
<path
   fill="#043774"
   opacity="1.000000"
   stroke="none"
   d=" M416.660126,992.703857   C426.346039,986.550171 435.413422,979.986877 445.216797,974.819946   C457.638123,968.273254 466.240692,973.774231 471.250916,982.959717   C474.879059,989.611328 473.809662,996.771118 468.645996,1002.284546   C466.620636,1004.447083 464.315918,1006.453735 461.836700,1008.067993   C447.771667,1017.225830 433.819855,1026.585693 419.419922,1035.191406   C409.364716,1041.200439 397.961060,1037.491089 392.008850,1027.375122   C389.011047,1022.280273 388.704987,1017.193970 392.710938,1012.605713   C395.751495,1009.123230 399.086975,1005.827209 402.661499,1002.900391   C407.028259,999.324768 411.782074,996.221741 416.660126,992.703857  z"
   id="path14"
   style="fill:#1a4681;fill-opacity:1" />
<path
   fill="#033773"
   opacity="1.000000"
   stroke="none"
   d=" M577.082031,250.876419   C584.130981,262.733765 591.471619,274.023804 597.768188,285.868866   C602.347656,294.483826 600.106873,301.041016 592.477783,306.636719   C584.217651,312.695282 575.545532,313.433685 569.490356,306.517975   C555.908569,291.005951 543.709778,274.224152 536.643982,254.683472   C531.503174,240.466141 538.628845,230.205170 553.047302,229.950012   C557.296692,229.874802 562.476807,232.446457 565.684082,235.454025   C570.188416,239.677811 573.248535,245.441727 577.082031,250.876419  z"
   id="path15"
   style="fill:#1a4681;fill-opacity:1" />
<path
   fill="#239AF7"
   opacity="1.000000"
   stroke="none"
   d=" M1745.901123,430.149048   C1758.900146,446.860931 1750.418823,465.506348 1728.458740,468.564972   C1715.865723,470.318939 1704.137695,467.291748 1693.187134,460.614929   C1683.884766,454.943115 1684.436890,445.363861 1688.445679,438.492828   C1693.832886,429.259613 1702.651123,424.655914 1712.636475,422.401276   C1724.696045,419.678192 1736.124878,420.891693 1745.901123,430.149048  z"
   id="path16"
   style="fill:#52a9f2;fill-opacity:1" />
<path
   fill="#043874"
   opacity="1.000000"
   stroke="none"
   d=" M382.219543,442.778015   C388.647278,446.316376 394.766998,449.648712 400.832703,453.076660   C402.705780,454.135193 404.489227,455.377197 406.213989,456.668427   C410.922150,460.193176 414.916107,464.311127 413.642090,470.803070   C412.159821,478.355652 407.704041,483.753967 400.322815,486.265686   C398.580414,486.858612 396.140472,486.973267 394.553101,486.206757   C378.896057,478.646667 363.046753,471.398499 347.890137,462.920868   C338.975464,457.934631 337.582825,449.511902 342.135651,440.996460   C346.610016,432.627777 354.401367,429.710205 363.643494,433.568970   C369.894379,436.178802 375.819763,439.568146 382.219543,442.778015  z"
   id="path17"
   style="fill:#1a4681;fill-opacity:1" />
<path
   fill="#2099f7"
   opacity="1"
   stroke="none"
   d="m 969.47082,1237.9939 c -4.38934,0.084 -8.49255,-0.2651 -12.4522,0.3341 -23.91559,3.6198 -47.66749,8.2886 -71.98444,8.9275 -20.90723,0.5493 -41.78925,2.3888 -62.69336,2.6064 -12.2171,0.1275 -26.5488,-2.1292 -39.11234,-3.2933 11.40723,-4.3427 25.48343,-7.6453 36.91276,-12.558 10.35656,-4.4516 19.89441,-10.7377 30.46637,-15.9089 5.52942,-2.0824 10.86138,-3.5269 15.67358,-5.9953 22.81445,-11.7021 41.55475,-29.1709 62.04236,-44.1655 29.9165,-21.8954 59.36578,-44.4503 89.69375,-65.7567 32.6421,-22.9322 66.9463,-43.5066 97.6949,-69.1149 3.27,-2.7232 6.2141,-5.8377 9.3093,-8.7708 -0.3667,-0.4816 -0.7334,-0.9632 -1.1001,-1.4449 -12.4557,5.3921 -24.9115,10.7843 -37.3672,16.1764 -2.5846,-0.1168 -5.3479,-0.8923 -7.7262,-0.2479 -22.6389,6.135 -45.3107,12.1835 -67.7721,18.9264 -16.35619,4.9102 -31.35046,12.9471 -45.47216,22.5626 -6.19391,4.2174 -12.56213,8.1934 -18.59827,12.6234 -6.2608,4.5949 -12.58886,5.8177 -19.97802,2.821 -24.65424,-9.9989 -49.95771,-18.584 -73.99549,-29.8755 -44.52948,-20.9176 -85.22979,-48.1923 -122.30267,-80.52274 -47.50159,-41.42517 -88.46698,-88.51898 -120.47949,-143.06854 -0.16864,-0.28723 -0.32129,-0.5838 -0.48749,-0.87256 -4.78638,-8.31781 -4.17322,-9.47461 5.13202,-11.44898 54.23523,-11.50701 108.45526,-23.08569 162.68054,-34.63958 0.65015,-0.13855 1.33167,-0.18897 1.94806,-0.417 12.36896,-4.57611 23.10107,-2.57574 34.61029,4.62671 19.21191,12.02265 47.35181,3.80018 58.52753,-16.12017 12.14178,-21.64246 10.84246,-42.35212 -5.2489,-58.6305 -19.0517,-19.27319 -53.27582,-17.52044 -68.54761,4.78021 -7.409,10.81904 -16.18988,16.02674 -28.68622,18.56666 -61.14026,12.42718 -122.13324,25.57873 -183.1922,38.40777 -8.96381,1.8833 -9.71338,1.67932 -14.46844,-6.34778 -14.30695,-24.15197 -25.40644,-49.73401 -33.51789,-76.61853 -1.66516,-5.51886 -3.68744,-10.92987 -5.61505,-16.59631 -6.78088,3.45209 -12.90893,7.15839 -19.46753,9.79254 -15.22497,6.11475 -31.2767,6.21826 -47.24927,4.6391 -38.55697,-3.81201 -71.43399,-21.10034 -101.71032,-44.1037 -12.75367,-9.69012 -25.09217,-20.0108 -34.25272,-33.30578 -7.39249,-10.72889 -9.4241,-10.31611 3.76151,-17.56781 17.52267,-9.63678 35.94604,-17.33588 55.8042,-20.93329 3.91345,-0.70887 7.90322,-0.99677 12.50079,-1.12903 5.60055,1.41693 10.51114,2.93304 15.52539,3.45709 10.2186,1.06805 20.59631,0.93524 30.72134,2.50446 17.00946,2.63617 33.84699,6.36663 50.82233,9.25158 2.92712,0.4975 6.17841,-0.91229 9.27994,-1.4411 2.6784,-1.70935 2.14718,-3.72491 0.66598,-5.94928 -12.72601,-19.1112 -15.38257,-40.56799 -13.51577,-62.67718 1.89987,-22.50125 9.22051,-43.54001 20.79455,-62.89414 5.44849,-9.11096 12.06574,-17.52301 18.55084,-26.09811 14.80243,13.00885 25.68592,28.57632 35.50305,45.05566 15.25141,25.60144 23.57129,53.28955 24.83155,82.94458 0.53393,12.56317 -0.55561,25.19532 -0.90723,37.79615 -4.25268,10.02062 -8.3703,20.10162 -12.80585,30.04077 -2.94604,6.6015 -3.16754,6.5393 2.95655,10.39044 4.48712,2.82171 9.02923,5.55591 13.74481,8.98138 1.47559,2.50244 2.3537,4.96717 4.09717,6.10059 9.61981,6.25348 19.21557,12.60889 29.25402,18.14087 28.0965,15.48352 59.05585,21.13452 90.43036,23.59009 20.98273,1.64227 42.23401,1.14672 63.29334,0.12677 18.34961,-0.8888 36.72595,-3.0774 54.86645,-6.05622 40.59772,-6.66662 80.79016,-15.35931 120.68921,-25.50116 65.28697,-16.59521 130.64347,-32.92743 196.09807,-48.84704 31.7427,-7.7204 63.6946,-14.63941 95.6941,-21.23084 44.1681,-9.09808 88.4254,-17.81964 133.3779,-22.28631 26.2487,-2.60828 52.462,-5.73651 78.7644,-7.58905 21.2201,-1.49469 42.555,-2.04865 63.8301,-1.88629 22.5923,0.17236 45.1725,1.73675 67.7617,2.59027 22.6519,0.85583 44.7708,4.92395 66.8089,10.03405 17.0832,3.96131 28.2904,13.12018 31.8873,30.75336 4.2164,20.66949 7.8419,41.43262 8.1511,62.57214 0.3168,21.65332 0.038,43.31501 0.1507,64.97235 0.01,1.96369 0.9754,3.92231 1.4973,5.88331 -1.2998,21.84832 -6.6839,42.92309 -12.6526,63.81427 -7.5667,26.484 -17.3286,52.01184 -33.7063,74.63958 -10.9717,15.15857 -25.2794,25.25098 -42.7009,31.46692 -29.6414,10.57593 -60.1639,16.46179 -91.6214,15.00958 -39.2131,-1.81042 -76.351,-11.21691 -108.9405,-34.37921 -6.5039,-4.6225 -12.7351,-9.66491 -18.8134,-14.841 -8.5794,-7.30579 -21.1289,-1.04791 -22.6793,8.85065 -0.4918,3.1405 1.1755,7.16839 3.0518,9.99609 2.5333,3.81842 6.2224,6.86993 9.3889,10.90534 -2.3739,3.67364 -4.9066,6.56725 -7.0397,9.73046 -20.8322,30.89203 -46.4362,57.4784 -75.0803,80.99484 -17.3195,14.219 -36.1443,26.594 -54.0923,40.0647 -4.6615,3.4986 -9.3794,5.5395 -15.1765,4.8894 -1.6572,-3.9841 -2.9509,-8.1727 -5.0525,-11.9068 -3.617,-6.426 -7.454,-6.7727 -11.4683,-0.8378 -5.396,7.9778 -10.2264,16.3389 -15.2777,24.5488 -22.2258,36.1254 -50.9955,66.4107 -83.7391,93.0155 -27.9916,22.7437 -59.5227,40.0498 -91.142,56.9853 -19.1675,10.2661 -39.30412,18.7229 -59.35778,27.9874 M 1284.5858,740.80597 c -1.6107,0.40997 -3.229,0.79236 -4.831,1.23401 -29.0802,8.01825 -42.5208,31.65967 -43.5129,53.57641 -1.7367,38.36725 32.3008,66.50562 70.0251,58.95173 29.4499,-5.89704 50.5787,-35.81794 45.7121,-64.73377 -5.442,-32.33612 -34.2806,-53.61487 -67.3933,-49.02838 z"
   id="path18"
   sodipodi:nodetypes="ccsscsccsssccccsssscssccscsssscssscsssscscssscssscsscssccssssssssssssssscssssssssccssccscsscccsssc"
   style="fill:#52a9f2;fill-opacity:1" />
<path
   fill="#9EE0FE"
   opacity="1.000000"
   stroke="none"
   d=" M1235.423584,1048.621338   C1241.305298,1048.851562 1246.023193,1046.810669 1250.684692,1043.312134   C1268.632690,1029.841431 1287.457520,1017.466431 1304.776978,1003.247437   C1333.421143,979.730957 1359.025146,953.144592 1379.857300,922.252563   C1381.990356,919.089355 1384.523071,916.195740 1386.992798,912.822998   C1397.688110,919.069824 1408.007202,926.126343 1418.883545,932.181763   C1446.394653,947.498535 1476.405151,954.525818 1507.475952,957.648865   C1538.427856,960.759827 1569.015503,958.904907 1599.003662,950.297974   C1611.784668,946.629700 1624.397339,942.375732 1637.099365,938.429382   C1638.480591,938.000183 1639.947266,937.846313 1642.079590,937.425598   C1641.420654,939.035522 1641.159424,940.085388 1640.611084,940.953979   C1620.304321,973.124207 1598.768677,1004.385193 1571.455811,1031.152344   C1532.198975,1069.625000 1487.509033,1100.137573 1437.567993,1123.256104   C1391.892456,1144.400269 1344.120117,1157.864990 1294.447510,1164.969116   C1262.091431,1169.596558 1229.551025,1171.564453 1196.875610,1170.169434   C1186.635132,1169.732178 1176.433594,1168.382690 1165.047607,1167.344482   C1168.180420,1163.707886 1170.506226,1160.768555 1173.076660,1158.061768   C1196.696289,1133.187744 1216.025391,1105.453125 1228.623535,1073.412964   C1231.689941,1065.614502 1233.143677,1057.182007 1235.423584,1048.621338  z"
   id="path19"
   style="fill:#b8e4fc;fill-opacity:1" />
<path
   fill="#9BDDFD"
   opacity="1.000000"
   stroke="none"
   d=" M1705.688965,746.638184   C1705.048828,745.098877 1704.083618,743.140259 1704.073364,741.176575   C1703.960571,719.519226 1704.239502,697.857544 1703.922729,676.204224   C1703.613525,655.064697 1699.988037,634.301575 1695.771606,613.632080   C1692.174683,595.998901 1680.967529,586.840027 1663.884277,582.878723   C1641.846191,577.768616 1619.727295,573.700500 1597.075439,572.844666   C1574.486206,571.991150 1551.906006,570.426758 1529.313721,570.254395   C1508.038574,570.092041 1486.703735,570.645996 1465.483643,572.140686   C1439.181152,573.993225 1412.967896,577.121460 1386.719238,579.729736   C1341.766724,584.196411 1297.509399,592.917969 1253.341309,602.016052   C1221.341797,608.607483 1189.389893,615.526489 1157.647217,623.246887   C1092.192627,639.166504 1026.836060,655.498718 961.549133,672.093933   C921.650085,682.235779 881.457642,690.928467 840.859924,697.595093   C822.719421,700.573914 804.343079,702.762512 785.993469,703.651306   C764.934143,704.671265 743.682861,705.166809 722.700134,703.524536   C691.325623,701.068970 660.366272,695.417969 632.269775,679.934448   C622.231323,674.402466 612.635559,668.047058 603.015747,661.793579   C601.272278,660.660156 600.394165,658.195435 599.113770,655.956177   C611.563599,661.055115 623.759521,667.248657 636.520203,671.889282   C666.255859,682.703064 697.103088,688.723083 728.765320,688.603821   C753.210999,688.511780 777.808716,688.154602 802.051575,685.393250   C830.543579,682.148010 859.050842,677.584229 886.979431,671.120605   C965.555542,652.935486 1043.907349,633.762695 1122.215210,614.442932   C1188.138916,598.178528 1254.369873,583.369202 1321.173462,571.266052   C1346.964233,566.593384 1373.026855,563.363159 1399.020020,559.880737   C1443.794800,553.881958 1488.865479,551.811523 1533.976685,551.308655   C1559.115112,551.028381 1584.325195,551.525513 1609.404785,553.168335   C1635.385376,554.870178 1661.449951,557.329102 1686.089478,566.938049   C1690.398804,568.618591 1694.646484,570.639648 1698.583252,573.056152   C1707.515259,578.539001 1709.630737,588.167786 1711.761353,597.275452   C1717.108032,620.130066 1717.495239,643.367920 1716.239624,666.728577   C1714.799927,693.509766 1710.922485,719.935852 1705.688965,746.638184  z"
   id="path20"
   style="fill:#b8e4ff;fill-opacity:1" />
<path
   fill="#2098F6"
   opacity="1.000000"
   stroke="none"
   d=" M1090.121582,162.000000   C1089.838989,173.970673 1090.287109,185.520172 1089.059204,196.888626   C1087.954590,207.115402 1082.026855,211.818558 1071.780396,211.862442   C1031.621216,212.034454 991.460510,211.993271 951.300842,211.888336   C942.543579,211.865463 934.719360,206.022705 934.841736,195.312164   C935.279602,156.990982 934.984192,118.661568 935.028137,80.335342   C935.030579,78.209282 935.377686,76.025696 935.933411,73.968559   C937.975464,66.408363 940.963257,64.136024 948.693542,64.119972   C967.523743,64.080872 986.353943,64.074081 1005.184143,64.060425   C1026.513916,64.044952 1047.856934,64.491081 1069.169189,63.871971   C1084.561157,63.424843 1089.567261,69.115341 1089.873657,85.017456   C1090.364990,110.503769 1090.079712,136.005051 1090.121582,162.000000  M1021.005981,130.500000   C1020.990662,122.506401 1020.985352,114.512756 1020.957520,106.519203   C1020.923706,96.785881 1017.777344,94.435684 1007.734253,97.191002   C1007.734253,99.679245 1007.727844,102.325539 1007.735352,104.971802   C1007.798584,127.259720 1007.853027,149.547699 1007.970642,171.835342   C1007.975342,172.724457 1008.545410,174.359055 1008.921753,174.379776   C1012.033142,174.551041 1015.352661,175.025894 1018.199707,174.120819   C1019.538635,173.695190 1020.667053,170.457092 1020.713013,168.466293   C1020.997009,156.148483 1020.945984,143.822968 1021.005981,130.500000  M966.004761,130.500000   C966.516724,145.174454 964.840637,159.938507 967.087097,174.582916   C971.050110,174.582916 974.284302,174.582916 977.363770,174.582916   C977.642944,173.915527 977.876221,173.617691 977.876770,173.319427   C977.921082,148.865738 978.000122,124.411652 977.824829,99.959404   C977.815674,98.686188 975.814026,96.626534 974.421692,96.303009   C968.499695,94.927010 966.289551,96.711174 966.123718,103.048737   C965.893188,111.860840 966.026245,120.682457 966.004761,130.500000  M1061.194824,122.499733   C1061.194824,113.903206 1061.194824,105.306679 1061.194824,96.915482   C1051.478516,94.891472 1050.720947,95.196671 1049.725464,103.697235   C1049.149902,108.610840 1049.448975,113.634697 1049.468384,118.608490   C1049.509277,129.083450 1049.624756,139.558105 1049.710083,150.032898   C1049.766602,156.989838 1049.985229,163.950546 1049.823853,170.902420   C1049.716187,175.536697 1052.450684,176.106583 1055.939331,175.794601   C1057.538208,175.651611 1059.096191,175.051285 1061.197632,174.527557   C1061.197632,157.408005 1061.197632,140.453888 1061.194824,122.499733  z"
   id="path21"
   style="fill:#52a9f2;fill-opacity:1" />
<path
   fill="#2098F6"
   opacity="1.000000"
   stroke="none"
   d=" M987.000000,383.806335   C973.522888,383.578461 960.529785,383.666687 947.574585,383.008362   C939.393860,382.592682 935.061707,377.173676 935.034119,368.625702   C934.969971,348.794586 935.009583,328.963165 935.007629,309.131866   C935.005920,291.467010 935.427673,273.788727 934.867859,256.141602   C934.431580,242.386505 941.652405,236.100952 955.017273,236.018463   C986.346191,235.825089 1017.677124,235.953354 1049.007202,235.952133   C1055.006592,235.951889 1061.006226,235.921646 1067.005371,235.962631   C1082.226196,236.066635 1088.787109,242.589798 1088.974121,257.968140   C1089.122070,270.131866 1089.160278,282.297577 1089.152222,294.462372   C1089.136841,317.624939 1089.063110,340.787506 1088.979004,363.949951   C1088.973022,365.601349 1088.845459,367.285919 1088.502441,368.897217   C1085.764038,381.761871 1083.122314,383.914368 1069.991699,383.908081   C1042.494507,383.894928 1014.997253,383.842712 987.000000,383.806335  M1007.866699,274.396332   C1007.632935,278.205017 1007.170654,282.015717 1007.204163,285.822052   C1007.369141,304.592712 1007.726013,323.361816 1007.864868,342.132568   C1007.893250,345.969299 1009.497986,348.417786 1013.159912,348.621246   C1016.671875,348.816345 1019.679199,347.224854 1020.676025,343.408752   C1021.005005,342.149384 1020.962769,340.773682 1020.964233,339.451050   C1020.986572,319.173035 1021.042480,298.894775 1020.940918,278.617310   C1020.923950,275.223846 1020.203430,271.833893 1019.789368,268.282288   C1015.584473,268.282288 1012.019104,268.282288 1008.198303,268.282288   C1008.081055,270.211273 1007.982056,271.839142 1007.866699,274.396332  M1049.078613,299.500061   C1049.082764,312.832611 1048.880859,326.169464 1049.160889,339.496216   C1049.360718,349.006439 1050.157715,349.442535 1059.675049,348.616486   C1059.963135,348.591492 1060.228027,348.296661 1060.699097,348.007812   C1060.699097,321.565491 1060.699097,295.014435 1060.699097,268.323792   C1056.977417,268.323792 1053.749878,268.323792 1049.077393,268.323792   C1049.077393,278.627930 1049.077393,288.564026 1049.078613,299.500061  M967.046570,345.119354   C967.249268,350.947418 971.701233,348.395477 974.499634,348.742645   C977.866943,349.160278 978.027405,346.707214 978.023315,344.160431   C977.986145,320.880554 977.887085,297.599701 978.080627,274.321411   C978.121033,269.462280 976.272034,267.610535 971.677979,267.946625   C970.231934,268.052460 968.783875,268.130585 966.293640,268.286804   C965.750671,293.786133 965.948181,318.990784 967.046570,345.119354  z"
   id="path22"
   style="fill:#52a9f2;fill-opacity:1" />
<path
   fill="#2098F6"
   opacity="1.000000"
   stroke="none"
   d=" M934.839600,514.000000   C934.822266,492.847992 934.780396,472.195953 934.795471,451.543976   C934.801941,442.745911 934.806274,433.944763 935.031738,425.150696   C935.273743,415.712128 941.034363,410.009796 950.554138,409.991913   C990.525940,409.916779 1030.498047,409.914062 1070.469727,410.000488   C1081.664673,410.024689 1086.748657,415.902496 1086.954712,429.107849   C1087.349609,454.407990 1087.559814,479.711121 1087.799194,505.013458   C1087.904785,516.171570 1088.230225,527.344543 1087.771851,538.482666   C1087.588013,542.952698 1086.351074,547.782776 1084.193115,551.671997   C1081.096558,557.252930 1074.738770,557.656006 1069.138916,557.684448   C1030.167114,557.882812 991.193542,557.945923 952.221619,557.782837   C939.460388,557.729431 935.223877,553.164978 934.987183,540.479004   C934.825684,531.821472 934.880249,523.159790 934.839600,514.000000  M965.041321,485.500000   C965.028015,494.333221 965.000183,503.166412 965.005127,511.999634   C965.011536,523.551697 965.022888,523.554749 976.599976,522.689880   C976.890686,522.668213 977.162292,522.390564 977.435730,522.219727   C977.531677,522.089844 977.711304,521.960205 977.711670,521.830078   C977.787537,496.173584 977.861389,470.517059 977.868042,444.860504   C977.868286,443.996826 977.221802,442.404755 976.816345,442.384857   C973.693115,442.231842 970.356384,441.778290 967.510254,442.711731   C966.207031,443.139160 965.221802,446.469086 965.183472,448.503235   C964.957520,460.498779 965.052673,472.500427 965.041321,485.500000  M1047.056274,487.500000   C1047.035278,496.322510 1046.976929,505.145142 1047.003418,513.967529   C1047.032471,523.620544 1047.078613,523.634644 1056.875732,522.674683   C1057.163208,522.646545 1057.422729,522.331848 1058.016724,521.937012   C1058.272705,519.724548 1058.794556,517.263245 1058.805298,514.799683   C1058.897949,493.493073 1058.977539,472.185730 1058.889404,450.879303   C1058.852539,441.980225 1057.850098,441.249573 1049.127319,442.139587   C1048.843262,442.168610 1048.589355,442.493988 1048.321411,442.681213   C1047.901733,442.680176 1047.482056,442.679138 1047.062378,442.678101   C1047.062378,457.285400 1047.062378,471.892700 1047.056274,487.500000  M1007.234863,513.219360   C1007.552673,516.308289 1007.870483,519.397278 1008.197632,522.576233   C1011.593262,522.576233 1014.507996,522.576233 1018.049194,522.576233   C1018.049194,495.623138 1018.049194,468.983398 1018.049194,442.216125   C1014.282654,442.216125 1011.357544,442.216125 1007.219543,442.216125   C1007.219543,465.760529 1007.219543,489.016357 1007.234863,513.219360  z"
   id="path23"
   style="fill:#52a9f2;fill-opacity:1" />
<path
   fill="#2098F6"
   opacity="1.000000"
   stroke="none"
   d=" M905.929810,426.480957   C905.958679,464.911835 905.970642,502.892609 905.972778,540.873352   C905.972839,542.371033 906.012024,543.887146 905.806763,545.363281   C904.627869,553.841736 900.920532,557.285645 892.364380,557.845886   C889.707275,558.019775 887.037964,558.071106 884.374268,558.072144   C847.892639,558.086670 811.406738,557.755005 774.931274,558.230042   C758.314758,558.446411 753.905762,552.315491 753.147400,536.229553   C752.598816,524.594849 753.045959,512.913086 753.054626,501.252350   C753.071167,478.930267 753.047668,456.608002 753.154663,434.286346   C753.172058,430.648010 753.510620,426.964691 754.161316,423.385864   C755.409546,416.520355 760.104980,412.761444 766.579956,411.295624   C770.276306,410.458862 774.142151,410.008820 777.932251,410.005524   C810.248901,409.977478 842.565796,410.057648 874.882263,410.199677   C879.862610,410.221558 884.857056,410.557495 889.816467,411.040619   C898.520203,411.888580 903.795532,416.918396 905.929810,426.480957  M878.095215,471.499756   C878.095215,462.091736 878.095215,452.683685 878.095215,443.176147   C873.572632,442.833008 870.032776,442.564453 865.812561,442.244263   C865.812561,469.386871 865.812561,495.867004 865.812561,522.586182   C867.832214,522.709351 869.125061,522.858521 870.417480,522.855347   C877.534729,522.837891 877.992798,522.367798 878.006897,515.406311   C878.035767,501.104126 878.072937,486.801910 878.095215,471.499756  M783.828430,509.776245   C783.900513,512.602539 783.997986,515.428406 784.037781,518.255188   C784.082275,521.410583 785.183105,523.304199 788.804016,522.935242   C791.032715,522.708252 793.303345,522.893311 795.727234,522.893311   C795.727234,496.535339 795.727234,470.981598 795.727234,445.357269   C794.556091,444.996948 793.633179,444.633179 792.676147,444.431244   C785.377563,442.891388 784.110779,443.754791 784.020508,451.145264   C783.870605,463.419281 783.959351,475.696045 783.924927,487.971619   C783.905396,494.934143 783.840759,501.896515 783.828430,509.776245  M835.885315,445.902313   C832.657959,445.338104 829.434387,444.561707 826.197998,444.504059   C825.832886,444.497559 825.058594,448.545349 825.044189,450.716888   C824.911865,470.674042 824.903870,490.632019 824.863220,510.589752   C824.855225,514.521484 824.862122,518.453247 824.862122,522.620605   C828.983093,522.620605 832.218567,522.620605 836.341553,522.620605   C836.872742,497.164856 837.688110,471.983551 835.885315,445.902313  z"
   id="path24"
   style="fill:#52a9f2;fill-opacity:1" />
<path
   fill="#2098F6"
   opacity="1.000000"
   stroke="none"
   d=" M1144.849487,237.117035   C1178.123779,237.405655 1210.923828,237.699371 1243.724243,237.956573   C1261.708130,238.097595 1266.793579,242.797867 1266.962158,260.690186   C1267.229980,289.146973 1267.161255,317.607086 1267.198364,346.065826   C1267.207642,353.203918 1267.169189,360.344482 1266.990356,367.479828   C1266.675293,380.057770 1262.302368,384.677490 1249.716797,384.853638   C1217.250244,385.308075 1184.780273,385.567352 1152.310913,385.762299   C1144.673584,385.808136 1137.001953,385.629669 1129.402222,384.938385   C1121.926270,384.258331 1117.527710,379.961945 1116.210327,372.773560   C1115.524414,369.031647 1115.082031,365.187622 1115.072266,361.388306   C1114.987793,328.404633 1114.945068,295.420258 1115.120117,262.437286   C1115.145386,257.685669 1115.873535,252.788025 1117.205566,248.229416   C1119.052002,241.909729 1123.709717,238.375839 1130.463013,237.963715   C1135.100586,237.680695 1139.738037,237.392700 1144.849487,237.117035  M1197.999878,291.500275   C1197.961060,286.010773 1197.707764,280.511932 1197.946655,275.034515   C1198.163940,270.051880 1194.959595,269.271973 1191.288208,268.986755   C1187.189209,268.668365 1185.019897,270.733124 1185.016357,274.859528   C1184.996460,297.955872 1185.003784,321.052185 1185.003662,344.148529   C1185.003540,348.426727 1187.299194,350.305847 1191.413086,350.869476   C1195.870117,351.480072 1197.397827,349.291901 1197.623901,345.378082   C1197.738770,343.389587 1197.951782,341.401428 1197.956421,339.412781   C1197.993286,323.775299 1197.990479,308.137726 1197.999878,291.500275  M1237.683716,271.326965   C1230.874268,267.518860 1225.147583,269.051788 1225.179443,274.858154   C1225.307251,298.155762 1225.648438,321.452118 1225.857178,344.749420   C1225.910156,350.669891 1230.367798,348.701050 1233.455444,349.111908   C1236.814453,349.558929 1238.070435,348.156677 1238.046631,344.600250   C1237.885742,320.457611 1237.927246,296.313599 1237.683716,271.326965  M1144.049194,343.289856   C1144.049194,345.047852 1144.049194,346.805847 1144.049194,348.335663   C1155.264648,351.614746 1156.093628,347.712799 1156.043213,340.368652   C1155.930298,323.907684 1156.125854,307.444672 1156.026855,290.983490   C1155.994019,285.522369 1155.245117,280.066406 1155.190674,274.604431   C1155.140625,269.595184 1151.735474,270.269196 1148.647217,270.273987   C1145.207764,270.279358 1143.935303,271.796295 1143.965698,275.493439   C1144.148804,297.775421 1144.050415,320.059692 1144.049194,343.289856  z"
   id="path25"
   style="fill:#52a9f2;fill-opacity:1" />
<path
   fill="#2098F6"
   opacity="1.000000"
   stroke="none"
   d=" M1342.000000,238.010803   C1369.489746,238.001740 1396.483276,238.260864 1423.467896,237.887192   C1441.532837,237.637009 1444.629150,244.557541 1444.704346,259.982269   C1444.853516,290.620605 1444.437012,321.261688 1444.251587,351.901642   C1444.214355,358.042389 1444.290649,364.187073 1444.095337,370.322937   C1443.773071,380.447906 1438.247314,385.823792 1427.963623,385.884399   C1411.637085,385.980591 1395.309326,385.898285 1378.982178,385.891541   C1358.323364,385.883026 1337.664185,385.926971 1317.005859,385.816803   C1313.374268,385.797455 1309.707642,385.350952 1306.124634,384.718781   C1299.511719,383.552002 1296.152588,379.061035 1295.163574,372.747192   C1294.548340,368.817963 1294.140381,364.811371 1294.134033,360.838745   C1294.084106,329.517273 1294.103638,298.195435 1294.235718,266.874268   C1294.257324,261.733551 1294.485962,256.513184 1295.407715,251.473877   C1297.225586,241.535431 1301.642700,238.163620 1312.011841,238.072510   C1321.840698,237.986130 1331.670532,238.025635 1342.000000,238.010803  M1413.445679,351.122833   C1416.361816,351.372162 1417.053955,349.844238 1417.048584,347.184723   C1417.038086,342.031982 1417.475342,336.878967 1417.490234,331.725372   C1417.548462,311.627289 1417.513916,291.528961 1417.513916,271.004944   C1412.832397,271.004944 1409.161377,271.004944 1404.076782,271.004944   C1404.076782,295.784668 1403.942749,319.881317 1404.174438,343.974457   C1404.229858,349.742126 1406.392212,351.090668 1413.445679,351.122833  M1377.178589,296.500488   C1377.116821,289.676239 1376.723755,282.833740 1377.097534,276.033447   C1377.400146,270.527496 1374.204712,270.232422 1370.270996,270.223999   C1366.364746,270.215637 1363.888916,270.953827 1363.943848,276.008972   C1364.188354,298.477753 1364.240723,320.954742 1363.856079,343.420105   C1363.754028,349.374084 1367.438843,349.763855 1371.281494,350.556671   C1375.817749,351.492584 1375.668213,347.408447 1376.646240,344.888672   C1377.217407,343.417725 1376.979858,341.606537 1376.988770,339.947784   C1377.064453,325.798767 1377.113281,311.649658 1377.178589,296.500488  M1337.009888,321.499939   C1336.955322,306.537323 1336.731689,291.572418 1336.932129,276.613220   C1337.008911,270.879395 1333.826538,270.951782 1329.627686,270.831787   C1325.120850,270.702972 1323.889282,272.467041 1324.015747,276.696289   C1324.452759,291.304596 1324.665771,305.920227 1324.884155,320.534271   C1325.005493,328.647491 1324.892090,336.764435 1325.040527,344.876892   C1325.097168,347.968048 1324.827148,351.416656 1329.804932,351.189178   C1334.976318,350.952820 1336.873779,349.516266 1336.956665,344.446198   C1337.076416,337.132477 1336.998413,329.815552 1337.009888,321.499939  z"
   id="path26"
   style="fill:#52a9f2;fill-opacity:1" />
<path
   fill="#2099F6"
   opacity="1.000000"
   stroke="none"
   d=" M1115.000488,451.000000   C1115.346802,441.544830 1115.032349,432.500519 1116.224609,423.659454   C1117.427124,414.743164 1123.636230,410.059906 1132.622681,410.038452   C1171.596924,409.945343 1210.571655,409.930603 1249.545898,410.008179   C1259.623779,410.028229 1266.839844,418.479767 1266.955200,430.414551   C1267.141968,449.732910 1267.104004,469.053680 1267.108032,488.373444   C1267.111206,503.862762 1267.168213,519.354370 1266.899292,534.839722   C1266.834229,538.583130 1266.023926,542.465088 1264.765137,546.001709   C1262.754150,551.651184 1258.615356,554.855713 1252.280273,554.901367   C1212.158569,555.190186 1172.037720,555.624390 1131.915649,555.813721   C1120.211304,555.868835 1115.097168,550.517944 1115.044312,538.441711   C1114.917358,509.461639 1115.001465,480.480621 1115.000488,451.000000  M1184.819336,490.301147   C1184.876343,498.257782 1185.304565,506.234924 1184.866943,514.164246   C1184.547729,519.945862 1187.595093,520.056946 1191.874146,520.215820   C1196.374146,520.382751 1198.018921,518.992615 1197.978394,514.325806   C1197.799927,493.701843 1198.010498,473.074890 1197.919312,452.449707   C1197.873779,442.141693 1196.667725,441.207855 1186.328613,442.152740   C1186.041748,442.178925 1185.779663,442.473602 1184.824097,443.065430   C1184.824097,458.216370 1184.824097,473.778778 1184.819336,490.301147  M1224.997681,474.500000   C1225.010132,488.156586 1224.988037,501.813293 1225.053833,515.469666   C1225.076538,520.195801 1227.310303,521.574707 1232.993042,521.990234   C1237.884521,522.347900 1237.913696,519.636902 1237.908936,516.149780   C1237.877075,492.834198 1237.939087,469.518524 1237.943237,446.202850   C1237.943481,444.924713 1237.697266,443.646515 1237.522461,441.947845   C1235.778320,441.947845 1234.313599,441.935760 1232.849121,441.949890   C1225.588379,442.019897 1225.216309,442.334564 1225.126831,449.518738   C1225.027344,457.511780 1225.036133,465.506195 1224.997681,474.500000  M1144.066284,513.333984   C1144.589844,515.623230 1144.488159,519.333984 1145.770386,519.897766   C1148.233398,520.980896 1151.692505,520.919128 1154.314087,520.050781   C1155.634277,519.613464 1156.717041,516.374573 1156.730469,514.394531   C1156.880005,492.263672 1156.807007,470.131256 1156.765991,447.999268   C1156.763062,446.408020 1156.541870,444.817200 1156.419800,443.196045   C1154.323120,442.793213 1152.712280,442.380737 1151.075317,442.187164   C1144.334351,441.390015 1144.097412,441.583252 1144.087646,448.470398   C1144.057617,469.770599 1144.066284,491.070862 1144.066284,513.333984  z"
   id="path27"
   style="fill:#52a9f2;fill-opacity:1" />
<path
   fill="#2098F6"
   opacity="1.000000"
   stroke="none"
   d=" M1427.690430,531.783813   C1411.586670,533.686279 1395.867798,535.126099 1380.288086,537.485840   C1355.366211,541.260681 1330.547607,545.714233 1305.661987,549.735168   C1297.225464,551.098389 1295.135498,549.540100 1295.097412,540.889221   C1294.933228,503.587097 1294.922607,466.282898 1295.215942,428.982269   C1295.249634,424.712799 1297.030029,420.216492 1298.922363,416.267090   C1300.990356,411.951538 1305.118774,409.985931 1310.039917,409.986511   C1347.511230,409.990906 1384.982422,409.969086 1422.453735,409.973389   C1433.951538,409.974731 1442.722046,416.344940 1442.360596,427.883270   C1441.814209,445.325256 1442.160156,462.798126 1442.273804,480.256897   C1442.349609,491.903503 1442.681396,503.548462 1442.896484,515.194153   C1442.905640,515.693604 1442.895874,516.193359 1442.892944,516.692993   C1442.819336,529.408813 1442.818848,529.405212 1430.574585,531.193359   C1429.753418,531.313293 1428.949463,531.550964 1427.690430,531.783813  M1366.929443,444.301544   C1363.493408,444.664490 1363.994263,447.223267 1363.995483,449.527557   C1364.007202,471.819794 1363.999390,494.112061 1364.025269,516.404297   C1364.032227,522.406616 1364.619629,522.750000 1370.486694,522.865845   C1373.617676,522.927734 1375.215088,521.577576 1375.762939,518.821289   C1376.310791,516.065186 1376.842407,513.246887 1376.857056,510.453156   C1376.961914,490.489502 1376.938354,470.525208 1376.936646,450.561096   C1376.936401,448.924255 1376.795410,447.287445 1376.693970,445.089172   C1373.611938,444.786835 1370.701660,444.501343 1366.929443,444.301544  M1324.934448,492.379822   C1324.959717,500.666046 1324.942993,508.952728 1325.027710,517.238342   C1325.071167,521.498535 1326.912720,524.225586 1331.597778,524.112122   C1336.381104,523.996338 1337.045898,520.920776 1337.029785,516.958496   C1336.945557,496.316376 1337.011963,475.673706 1336.964355,455.031311   C1336.959351,452.887024 1336.975342,450.568939 1336.190430,448.656128   C1335.582642,447.174744 1333.890137,445.427277 1332.416504,445.137848   C1326.635254,444.002197 1325.105957,445.357666 1325.042236,451.544220   C1324.905518,464.830688 1324.964478,478.119141 1324.934448,492.379822  M1415.975830,474.500000   C1415.816406,464.455566 1415.657104,454.411133 1415.497192,444.333282   C1413.317017,444.074799 1412.351562,443.911377 1411.379883,443.852966   C1404.057495,443.412781 1404.016846,443.433319 1404.013306,450.534363   C1404.002686,472.138916 1404.052979,493.743622 1403.973511,515.347839   C1403.960938,518.737915 1404.248169,521.351990 1408.622192,521.052551   C1412.076050,520.816162 1415.096558,520.876953 1415.107910,515.803040   C1415.138306,502.368103 1415.652100,488.934265 1415.975830,474.500000  z"
   id="path28"
   style="fill:#52a9f2;fill-opacity:1" />
<path
   fill="#2098F6"
   opacity="1.000000"
   stroke="none"
   d=" M1559.000000,527.782715   C1528.875122,527.782532 1499.250244,527.782532 1469.285767,527.782532   C1468.916504,522.477966 1468.281616,517.550293 1468.284302,512.622986   C1468.292847,496.968140 1468.632446,481.313568 1468.657837,465.658569   C1468.672607,456.504761 1468.205078,447.350342 1468.206909,438.196259   C1468.207764,433.718719 1468.532715,429.206146 1469.151489,424.770905   C1470.545898,414.776031 1476.389648,410.215973 1488.347900,410.026520   C1500.676880,409.831177 1513.011719,410.033508 1525.343994,410.026337   C1546.009033,410.014343 1566.674316,409.929047 1587.339111,409.990143   C1590.807251,410.000366 1594.323364,410.327759 1597.731323,410.966736   C1607.897461,412.872772 1612.989258,419.102570 1612.991699,429.415314   C1612.999023,460.246216 1612.969360,491.077118 1612.954468,521.908020   C1612.953613,523.690186 1612.954224,525.472412 1612.954224,527.782959   C1594.722656,527.782959 1577.111328,527.782959 1559.000000,527.782715  M1508.262207,448.216492   C1508.062744,446.607788 1507.863281,444.999084 1507.661255,443.369812   C1503.667725,443.369812 1499.986816,443.369812 1496.412598,443.369812   C1496.412598,467.026428 1496.412598,490.225525 1496.412598,513.565613   C1500.382080,513.565613 1503.948242,513.565613 1508.486450,513.565613   C1508.486450,491.860474 1508.486450,470.478302 1508.262207,448.216492  M1548.145142,501.486206   C1548.118774,485.190552 1548.185303,468.893982 1548.032104,452.599518   C1547.934937,442.257080 1547.787964,442.254913 1537.291504,443.231079   C1537.002930,443.257904 1536.740112,443.559174 1536.290894,443.842377   C1535.897339,446.650604 1535.149048,449.586151 1535.129272,452.526581   C1535.014282,469.653595 1534.897827,486.784119 1535.135010,503.908600   C1535.273804,513.932922 1536.906738,515.020020 1546.966431,513.596497   C1547.101929,513.577332 1547.213745,513.390625 1548.128052,512.583191   C1548.128052,509.697632 1548.128052,506.087738 1548.145142,501.486206  M1582.321533,513.827454   C1583.532959,512.639099 1585.617554,511.570557 1585.799927,510.240997   C1586.474365,505.326324 1586.793701,500.323212 1586.752808,495.357422   C1586.623169,479.613068 1586.232422,463.871033 1586.037109,448.126923   C1585.998657,445.036407 1585.983521,442.704681 1581.671875,442.790649   C1577.668091,442.870483 1575.001465,443.229919 1574.946655,448.195709   C1574.811523,460.468018 1574.175049,472.735840 1574.105591,485.007507   C1574.063354,492.455139 1574.616821,499.911774 1575.068726,507.354279   C1575.303467,511.222351 1576.212769,514.758484 1582.321533,513.827454  z"
   id="path29"
   style="fill:#52a9f2;fill-opacity:1" />
<path
   fill="#9addfc"
   opacity="1"
   stroke="none"
   d="m 1086.2422,1039.2559 c 12.7677,-5.618 25.2235,-11.0102 37.6792,-16.4023 0.3667,0.4817 0.7334,0.9633 1.1001,1.4449 -3.0952,2.9331 -6.0393,6.0476 -9.3093,8.7708 -30.7486,25.6083 -65.0528,46.1827 -97.6949,69.1149 -30.32797,21.3064 -59.77725,43.8613 -89.69375,65.7567 -20.48761,14.9946 -39.22791,32.4634 -62.04236,44.1655 -4.8122,2.4684 -11.64929,5.203 -16.88513,7.1399 12.49743,-11.3205 27.42993,-22.8127 39.65387,-34.4802 59.48962,-56.7814 123.86717,-106.8642 197.19227,-145.5102 z"
   id="path30"
   sodipodi:nodetypes="ccccssscsc"
   style="fill:#b8e4ff;fill-opacity:1" />
<path
   fill="#9CDEFD"
   opacity="1.000000"
   stroke="none"
   d=" M595.275513,606.000793   C595.374695,593.679565 596.464233,581.047424 595.930298,568.484253   C594.670044,538.829224 586.350159,511.141113 571.098755,485.539673   C561.281616,469.060333 550.398132,453.492859 535.874268,440.317566   C540.036377,435.172180 544.317505,430.346832 549.371948,424.649811   C554.607971,430.267761 559.520264,434.931427 563.731689,440.159729   C584.496948,465.938995 598.392395,495.073212 602.589478,527.953613   C605.936096,554.171326 605.144226,580.462402 595.275513,606.000793  z"
   id="path31"
   style="fill:#b8e4ff;fill-opacity:1" />
<path
   fill="#94D8FA"
   opacity="1.000000"
   stroke="none"
   d=" M508.762573,597.942261   C505.998566,598.631531 502.747284,600.041321 499.820160,599.543823   C482.844818,596.658875 466.007294,592.928406 448.997833,590.292236   C438.872803,588.723022 428.495087,588.855835 418.276489,587.787781   C413.262238,587.263733 408.351654,585.747620 403.174011,584.389771   C435.370483,580.901306 467.291992,582.644409 498.260834,593.727844   C501.692932,594.956116 505.039093,596.424683 508.762573,597.942261  z"
   id="path32"
   style="fill:#b8e4ff;fill-opacity:1" />




<path
   fill="#FCFDFE"
   opacity="1.000000"
   stroke="none"
   d=" M1285.018188,740.775879   C1317.698486,736.219482 1346.537109,757.498230 1351.979126,789.834351   C1356.845703,818.750183 1335.716919,848.671082 1306.266968,854.568115   C1268.542725,862.122009 1234.505249,833.983643 1236.241943,795.616394   C1237.234009,773.699646 1250.674561,750.058228 1279.754761,742.039978   C1281.356812,741.598328 1282.975098,741.215942 1285.018188,740.775879  M1270.715332,791.838806   C1268.932983,790.762634 1267.150513,789.686523 1265.218750,788.520264   C1261.231812,805.005676 1266.617554,819.052917 1278.875122,825.112427   C1293.717041,832.449402 1310.791870,829.128235 1320.017456,817.109863   C1329.155396,805.205322 1328.576782,789.122253 1318.576416,777.053528   C1310.611938,767.441772 1297.859619,763.709412 1288.597778,768.566589   C1289.815674,771.396423 1291.203491,774.202881 1292.243408,777.132812   C1293.945679,781.928101 1293.967163,786.725952 1290.472412,790.774475   C1286.854736,794.965454 1281.952759,795.779785 1276.781860,794.681885   C1274.891479,794.280518 1273.173706,793.066162 1270.715332,791.838806  z"
   id="path37" />
<path
   fill="#023775"
   opacity="1.000000"
   stroke="none"
   d=" M1021.006104,131.000000   C1020.945984,143.822968 1020.997009,156.148483 1020.713013,168.466293   C1020.667053,170.457092 1019.538635,173.695190 1018.199707,174.120819   C1015.352661,175.025894 1012.033142,174.551041 1008.921753,174.379776   C1008.545410,174.359055 1007.975342,172.724457 1007.970642,171.835342   C1007.853027,149.547699 1007.798584,127.259720 1007.735352,104.971802   C1007.727844,102.325539 1007.734253,99.679245 1007.734253,97.191002   C1017.777344,94.435684 1020.923706,96.785881 1020.957520,106.519203   C1020.985352,114.512756 1020.990662,122.506401 1021.006104,131.000000  z"
   id="path38" />
<path
   fill="#013673"
   opacity="1.000000"
   stroke="none"
   d=" M966.004150,130.000000   C966.026245,120.682457 965.893188,111.860840 966.123718,103.048737   C966.289551,96.711174 968.499695,94.927010 974.421692,96.303009   C975.814026,96.626534 977.815674,98.686188 977.824829,99.959404   C978.000122,124.411652 977.921082,148.865738 977.876770,173.319427   C977.876221,173.617691 977.642944,173.915527 977.363770,174.582916   C974.284302,174.582916 971.050110,174.582916 967.087097,174.582916   C964.840637,159.938507 966.516724,145.174454 966.004150,130.000000  z"
   id="path39" />
<path
   fill="#013774"
   opacity="1.000000"
   stroke="none"
   d=" M1061.196289,122.999748   C1061.197632,140.453888 1061.197632,157.408005 1061.197632,174.527557   C1059.096191,175.051285 1057.538208,175.651611 1055.939331,175.794601   C1052.450684,176.106583 1049.716187,175.536697 1049.823853,170.902420   C1049.985229,163.950546 1049.766602,156.989838 1049.710083,150.032898   C1049.624756,139.558105 1049.509277,129.083450 1049.468384,118.608490   C1049.448975,113.634697 1049.149902,108.610840 1049.725464,103.697235   C1050.720947,95.196671 1051.478516,94.891472 1061.194824,96.915482   C1061.194824,105.306679 1061.194824,113.903206 1061.196289,122.999748  z"
   id="path40" />
<path
   fill="#023775"
   opacity="1.000000"
   stroke="none"
   d=" M1007.874878,273.931671   C1007.982056,271.839142 1008.081055,270.211273 1008.198303,268.282288   C1012.019104,268.282288 1015.584473,268.282288 1019.789368,268.282288   C1020.203430,271.833893 1020.923950,275.223846 1020.940918,278.617310   C1021.042480,298.894775 1020.986572,319.173035 1020.964233,339.451050   C1020.962769,340.773682 1021.005005,342.149384 1020.676025,343.408752   C1019.679199,347.224854 1016.671875,348.816345 1013.159912,348.621246   C1009.497986,348.417786 1007.893250,345.969299 1007.864868,342.132568   C1007.726013,323.361816 1007.369141,304.592712 1007.204163,285.822052   C1007.170654,282.015717 1007.632935,278.205017 1007.874878,273.931671  z"
   id="path41" />
<path
   fill="#013774"
   opacity="1.000000"
   stroke="none"
   d=" M1049.078003,299.000092   C1049.077393,288.564026 1049.077393,278.627930 1049.077393,268.323792   C1053.749878,268.323792 1056.977417,268.323792 1060.699097,268.323792   C1060.699097,295.014435 1060.699097,321.565491 1060.699097,348.007812   C1060.228027,348.296661 1059.963135,348.591492 1059.675049,348.616486   C1050.157715,349.442535 1049.360718,349.006439 1049.160889,339.496216   C1048.880859,326.169464 1049.082764,312.832611 1049.078003,299.000092  z"
   id="path42" />
<path
   fill="#023775"
   opacity="1.000000"
   stroke="none"
   d=" M967.033569,344.659363   C965.948181,318.990784 965.750671,293.786133 966.293640,268.286804   C968.783875,268.130585 970.231934,268.052460 971.677979,267.946625   C976.272034,267.610535 978.121033,269.462280 978.080627,274.321411   C977.887085,297.599701 977.986145,320.880554 978.023315,344.160431   C978.027405,346.707214 977.866943,349.160278 974.499634,348.742645   C971.701233,348.395477 967.249268,350.947418 967.033569,344.659363  z"
   id="path43" />
<path
   fill="#013674"
   opacity="1.000000"
   stroke="none"
   d=" M965.040527,485.000000   C965.052673,472.500427 964.957520,460.498779 965.183472,448.503235   C965.221802,446.469086 966.207031,443.139160 967.510254,442.711731   C970.356384,441.778290 973.693115,442.231842 976.816345,442.384857   C977.221802,442.404755 977.868286,443.996826 977.868042,444.860504   C977.861389,470.517059 977.787537,496.173584 977.711670,521.830078   C977.711304,521.960205 977.531677,522.089844 977.439331,522.226074   C977.162292,522.390564 976.890686,522.668213 976.599976,522.689880   C965.022888,523.554749 965.011536,523.551697 965.005127,511.999634   C965.000183,503.166412 965.028015,494.333221 965.040527,485.000000  z"
   id="path44" />
<path
   fill="#023877"
   opacity="1.000000"
   stroke="none"
   d=" M1047.059326,487.000000   C1047.062378,471.892700 1047.062378,457.285400 1047.062378,442.678101   C1047.482056,442.679138 1047.901733,442.680176 1048.321411,442.681213   C1048.589355,442.493988 1048.843262,442.168610 1049.127319,442.139587   C1057.850098,441.249573 1058.852539,441.980225 1058.889404,450.879303   C1058.977539,472.185730 1058.897949,493.493073 1058.805298,514.799683   C1058.794556,517.263245 1058.272705,519.724548 1058.016724,521.937012   C1057.422729,522.331848 1057.163208,522.646545 1056.875732,522.674683   C1047.078613,523.634644 1047.032471,523.620544 1047.003418,513.967529   C1046.976929,505.145142 1047.035278,496.322510 1047.059326,487.000000  z"
   id="path45" />
<path
   fill="#023978"
   opacity="1.000000"
   stroke="none"
   d=" M1007.227173,512.745728   C1007.219543,489.016357 1007.219543,465.760529 1007.219543,442.216125   C1011.357544,442.216125 1014.282654,442.216125 1018.049194,442.216125   C1018.049194,468.983398 1018.049194,495.623138 1018.049194,522.576233   C1014.507996,522.576233 1011.593262,522.576233 1008.197632,522.576233   C1007.870483,519.397278 1007.552673,516.308289 1007.227173,512.745728  z"
   id="path46" />
<path
   fill="#023775"
   opacity="1.000000"
   stroke="none"
   d=" M878.100952,471.999756   C878.072937,486.801910 878.035767,501.104126 878.006897,515.406311   C877.992798,522.367798 877.534729,522.837891 870.417480,522.855347   C869.125061,522.858521 867.832214,522.709351 865.812561,522.586182   C865.812561,495.867004 865.812561,469.386871 865.812561,442.244263   C870.032776,442.564453 873.572632,442.833008 878.095215,443.176147   C878.095215,452.683685 878.095215,462.091736 878.100952,471.999756  z"
   id="path47" />
<path
   fill="#013774"
   opacity="1.000000"
   stroke="none"
   d=" M783.812500,509.317627   C783.840759,501.896515 783.905396,494.934143 783.924927,487.971619   C783.959351,475.696045 783.870605,463.419281 784.020508,451.145264   C784.110779,443.754791 785.377563,442.891388 792.676147,444.431244   C793.633179,444.633179 794.556091,444.996948 795.727234,445.357269   C795.727234,470.981598 795.727234,496.535339 795.727234,522.893311   C793.303345,522.893311 791.032715,522.708252 788.804016,522.935242   C785.183105,523.304199 784.082275,521.410583 784.037781,518.255188   C783.997986,515.428406 783.900513,512.602539 783.812500,509.317627  z"
   id="path48" />
<path
   fill="#023876"
   opacity="1.000000"
   stroke="none"
   d=" M835.934692,446.343445   C837.688110,471.983551 836.872742,497.164856 836.341553,522.620605   C832.218567,522.620605 828.983093,522.620605 824.862122,522.620605   C824.862122,518.453247 824.855225,514.521484 824.863220,510.589752   C824.903870,490.632019 824.911865,470.674042 825.044189,450.716888   C825.058594,448.545349 825.832886,444.497559 826.197998,444.504059   C829.434387,444.561707 832.657959,445.338104 835.934692,446.343445  z"
   id="path49" />
<path
   fill="#013774"
   opacity="1.000000"
   stroke="none"
   d=" M1197.999878,292.000244   C1197.990479,308.137726 1197.993286,323.775299 1197.956421,339.412781   C1197.951782,341.401428 1197.738770,343.389587 1197.623901,345.378082   C1197.397827,349.291901 1195.870117,351.480072 1191.413086,350.869476   C1187.299194,350.305847 1185.003540,348.426727 1185.003662,344.148529   C1185.003784,321.052185 1184.996460,297.955872 1185.016357,274.859528   C1185.019897,270.733124 1187.189209,268.668365 1191.288208,268.986755   C1194.959595,269.271973 1198.163940,270.051880 1197.946655,275.034515   C1197.707764,280.511932 1197.961060,286.010773 1197.999878,292.000244  z"
   id="path50" />
<path
   fill="#023876"
   opacity="1.000000"
   stroke="none"
   d=" M1237.793457,271.748505   C1237.927246,296.313599 1237.885742,320.457611 1238.046631,344.600250   C1238.070435,348.156677 1236.814453,349.558929 1233.455444,349.111908   C1230.367798,348.701050 1225.910156,350.669891 1225.857178,344.749420   C1225.648438,321.452118 1225.307251,298.155762 1225.179443,274.858154   C1225.147583,269.051788 1230.874268,267.518860 1237.793457,271.748505  z"
   id="path51" />
<path
   fill="#013674"
   opacity="1.000000"
   stroke="none"
   d=" M1144.047852,342.816528   C1144.050415,320.059692 1144.148804,297.775421 1143.965698,275.493439   C1143.935303,271.796295 1145.207764,270.279358 1148.647217,270.273987   C1151.735474,270.269196 1155.140625,269.595184 1155.190674,274.604431   C1155.245117,280.066406 1155.994019,285.522369 1156.026855,290.983490   C1156.125854,307.444672 1155.930298,323.907684 1156.043213,340.368652   C1156.093628,347.712799 1155.264648,351.614746 1144.049194,348.335663   C1144.049194,346.805847 1144.049194,345.047852 1144.047852,342.816528  z"
   id="path52" />
<path
   fill="#023876"
   opacity="1.000000"
   stroke="none"
   d=" M1412.997559,351.129150   C1406.392212,351.090668 1404.229858,349.742126 1404.174438,343.974457   C1403.942749,319.881317 1404.076782,295.784668 1404.076782,271.004944   C1409.161377,271.004944 1412.832397,271.004944 1417.513916,271.004944   C1417.513916,291.528961 1417.548462,311.627289 1417.490234,331.725372   C1417.475342,336.878967 1417.038086,342.031982 1417.048584,347.184723   C1417.053955,349.844238 1416.361816,351.372162 1412.997559,351.129150  z"
   id="path53" />
<path
   fill="#013673"
   opacity="1.000000"
   stroke="none"
   d=" M1377.174316,297.000519   C1377.113281,311.649658 1377.064453,325.798767 1376.988770,339.947784   C1376.979858,341.606537 1377.217407,343.417725 1376.646240,344.888672   C1375.668213,347.408447 1375.817749,351.492584 1371.281494,350.556671   C1367.438843,349.763855 1363.754028,349.374084 1363.856079,343.420105   C1364.240723,320.954742 1364.188354,298.477753 1363.943848,276.008972   C1363.888916,270.953827 1366.364746,270.215637 1370.270996,270.223999   C1374.204712,270.232422 1377.400146,270.527496 1377.097534,276.033447   C1376.723755,282.833740 1377.116821,289.676239 1377.174316,297.000519  z"
   id="path54" />
<path
   fill="#013774"
   opacity="1.000000"
   stroke="none"
   d=" M1337.007324,321.999939   C1336.998413,329.815552 1337.076416,337.132477 1336.956665,344.446198   C1336.873779,349.516266 1334.976318,350.952820 1329.804932,351.189178   C1324.827148,351.416656 1325.097168,347.968048 1325.040527,344.876892   C1324.892090,336.764435 1325.005493,328.647491 1324.884155,320.534271   C1324.665771,305.920227 1324.452759,291.304596 1324.015747,276.696289   C1323.889282,272.467041 1325.120850,270.702972 1329.627686,270.831787   C1333.826538,270.951782 1337.008911,270.879395 1336.932129,276.613220   C1336.731689,291.572418 1336.955322,306.537323 1337.007324,321.999939  z"
   id="path55" />
<path
   fill="#023775"
   opacity="1.000000"
   stroke="none"
   d=" M1184.821777,489.821167   C1184.824097,473.778778 1184.824097,458.216370 1184.824097,443.065430   C1185.779663,442.473602 1186.041748,442.178925 1186.328613,442.152740   C1196.667725,441.207855 1197.873779,442.141693 1197.919312,452.449707   C1198.010498,473.074890 1197.799927,493.701843 1197.978394,514.325806   C1198.018921,518.992615 1196.374146,520.382751 1191.874146,520.215820   C1187.595093,520.056946 1184.547729,519.945862 1184.866943,514.164246   C1185.304565,506.234924 1184.876343,498.257782 1184.821777,489.821167  z"
   id="path56" />
<path
   fill="#013674"
   opacity="1.000000"
   stroke="none"
   d=" M1224.997803,474.000000   C1225.036133,465.506195 1225.027344,457.511780 1225.126831,449.518738   C1225.216309,442.334564 1225.588379,442.019897 1232.849121,441.949890   C1234.313599,441.935760 1235.778320,441.947845 1237.522461,441.947845   C1237.697266,443.646515 1237.943481,444.924713 1237.943237,446.202850   C1237.939087,469.518524 1237.877075,492.834198 1237.908936,516.149780   C1237.913696,519.636902 1237.884521,522.347900 1232.993042,521.990234   C1227.310303,521.574707 1225.076538,520.195801 1225.053833,515.469666   C1224.988037,501.813293 1225.010132,488.156586 1224.997803,474.000000  z"
   id="path57" />
<path
   fill="#023876"
   opacity="1.000000"
   stroke="none"
   d=" M1144.063232,512.852539   C1144.066284,491.070862 1144.057617,469.770599 1144.087646,448.470398   C1144.097412,441.583252 1144.334351,441.390015 1151.075317,442.187164   C1152.712280,442.380737 1154.323120,442.793213 1156.419800,443.196045   C1156.541870,444.817200 1156.763062,446.408020 1156.765991,447.999268   C1156.807007,470.131256 1156.880005,492.263672 1156.730469,514.394531   C1156.717041,516.374573 1155.634277,519.613464 1154.314087,520.050781   C1151.692505,520.919128 1148.233398,520.980896 1145.770386,519.897766   C1144.488159,519.333984 1144.589844,515.623230 1144.063232,512.852539  z"
   id="path58" />
<path
   fill="#013774"
   opacity="1.000000"
   stroke="none"
   d=" M1367.360474,444.258698   C1370.701660,444.501343 1373.611938,444.786835 1376.693970,445.089172   C1376.795410,447.287445 1376.936401,448.924255 1376.936646,450.561096   C1376.938354,470.525208 1376.961914,490.489502 1376.857056,510.453156   C1376.842407,513.246887 1376.310791,516.065186 1375.762939,518.821289   C1375.215088,521.577576 1373.617676,522.927734 1370.486694,522.865845   C1364.619629,522.750000 1364.032227,522.406616 1364.025269,516.404297   C1363.999390,494.112061 1364.007202,471.819794 1363.995483,449.527557   C1363.994263,447.223267 1363.493408,444.664490 1367.360474,444.258698  z"
   id="path59" />
<path
   fill="#013774"
   opacity="1.000000"
   stroke="none"
   d=" M1324.938721,491.893311   C1324.964478,478.119141 1324.905518,464.830688 1325.042236,451.544220   C1325.105957,445.357666 1326.635254,444.002197 1332.416504,445.137848   C1333.890137,445.427277 1335.582642,447.174744 1336.190430,448.656128   C1336.975342,450.568939 1336.959351,452.887024 1336.964355,455.031311   C1337.011963,475.673706 1336.945557,496.316376 1337.029785,516.958496   C1337.045898,520.920776 1336.381104,523.996338 1331.597778,524.112122   C1326.912720,524.225586 1325.071167,521.498535 1325.027710,517.238342   C1324.942993,508.952728 1324.959717,500.666046 1324.938721,491.893311  z"
   id="path60" />
<path
   fill="#013674"
   opacity="1.000000"
   stroke="none"
   d=" M1415.974609,475.000000   C1415.652100,488.934265 1415.138306,502.368103 1415.107910,515.803040   C1415.096558,520.876953 1412.076050,520.816162 1408.622192,521.052551   C1404.248169,521.351990 1403.960938,518.737915 1403.973511,515.347839   C1404.052979,493.743622 1404.002686,472.138916 1404.013306,450.534363   C1404.016846,443.433319 1404.057495,443.412781 1411.379883,443.852966   C1412.351562,443.911377 1413.317017,444.074799 1415.497192,444.333282   C1415.657104,454.411133 1415.816406,464.455566 1415.974609,475.000000  z"
   id="path61" />
<path
   fill="#023775"
   opacity="1.000000"
   stroke="none"
   d=" M1508.374268,448.656311   C1508.486450,470.478302 1508.486450,491.860474 1508.486450,513.565613   C1503.948242,513.565613 1500.382080,513.565613 1496.412598,513.565613   C1496.412598,490.225525 1496.412598,467.026428 1496.412598,443.369812   C1499.986816,443.369812 1503.667725,443.369812 1507.661255,443.369812   C1507.863281,444.999084 1508.062744,446.607788 1508.374268,448.656311  z"
   id="path62" />
<path
   fill="#013774"
   opacity="1.000000"
   stroke="none"
   d=" M1548.136597,501.982056   C1548.128052,506.087738 1548.128052,509.697632 1548.128052,512.583191   C1547.213745,513.390625 1547.101929,513.577332 1546.966431,513.596497   C1536.906738,515.020020 1535.273804,513.932922 1535.135010,503.908600   C1534.897827,486.784119 1535.014282,469.653595 1535.129272,452.526581   C1535.149048,449.586151 1535.897339,446.650604 1536.290894,443.842377   C1536.740112,443.559174 1537.002930,443.257904 1537.291504,443.231079   C1547.787964,442.254913 1547.934937,442.257080 1548.032104,452.599518   C1548.185303,468.893982 1548.118774,485.190552 1548.136597,501.982056  z"
   id="path63" />
<path
   fill="#023876"
   opacity="1.000000"
   stroke="none"
   d=" M1581.890381,513.841064   C1576.212769,514.758484 1575.303467,511.222351 1575.068726,507.354279   C1574.616821,499.911774 1574.063354,492.455139 1574.105591,485.007507   C1574.175049,472.735840 1574.811523,460.468018 1574.946655,448.195709   C1575.001465,443.229919 1577.668091,442.870483 1581.671875,442.790649   C1585.983521,442.704681 1585.998657,445.036407 1586.037109,448.126923   C1586.232422,463.871033 1586.623169,479.613068 1586.752808,495.357422   C1586.793701,500.323212 1586.474365,505.326324 1585.799927,510.240997   C1585.617554,511.570557 1583.532959,512.639099 1581.890381,513.841064  z"
   id="path64" />
<path
   fill="#053874"
   opacity="1.000000"
   stroke="none"
   d=" M1271.046265,792.030762   C1273.173706,793.066162 1274.891479,794.280518 1276.781860,794.681885   C1281.952759,795.779785 1286.854736,794.965454 1290.472412,790.774475   C1293.967163,786.725952 1293.945679,781.928101 1292.243408,777.132812   C1291.203491,774.202881 1289.815674,771.396423 1288.597778,768.566589   C1297.859619,763.709412 1310.611938,767.441772 1318.576416,777.053528   C1328.576782,789.122253 1329.155396,805.205322 1320.017456,817.109863   C1310.791870,829.128235 1293.717041,832.449402 1278.875122,825.112427   C1266.617554,819.052917 1261.231812,805.005676 1265.218750,788.520264   C1267.150513,789.686523 1268.932983,790.762634 1271.046265,792.030762  z"
   id="path65"
   style="fill:#1a4681;fill-opacity:1" />
</svg>
