<?xml version="1.0" encoding="UTF-8" standalone="no"?>
<svg
   version="1.1"
   id="Layer_1"
   x="0px"
   y="0px"
   width="1585.9667"
   viewBox="0 0 1585.9667 1309.9382"
   enable-background="new 0 0 1910 1863"
   xml:space="preserve"
   sodipodi:docname="favicon.svg"
   inkscape:version="1.4.3 (0d15f75, 2025-12-25)"
   height="1309.9382"
   xmlns:inkscape="http://www.inkscape.org/namespaces/inkscape"
   xmlns:sodipodi="http://sodipodi.sourceforge.net/DTD/sodipodi-0.dtd"
   xmlns="http://www.w3.org/2000/svg"
   xmlns:svg="http://www.w3.org/2000/svg"><defs
   id="defs65" /><sodipodi:namedview
   id="namedview65"
   pagecolor="#ffffff"
   bordercolor="#000000"
   borderopacity="0.25"
   inkscape:showpageshadow="2"
   inkscape:pageopacity="0.0"
   inkscape:pagecheckerboard="0"
   inkscape:deskcolor="#d1d1d1"
   inkscape:zoom="0.45943064"
   inkscape:cx="713.92714"
   inkscape:cy="822.75749"
   inkscape:window-width="1710"
   inkscape:window-height="1045"
   inkscape:window-x="0"
   inkscape:window-y="34"
   inkscape:window-maximized="0"
   inkscape:current-layer="Layer_1"
   showgrid="false"><sodipodi:guide
     position="0,1309.9382"
     orientation="0,1585.9667"
     id="guide1"
     inkscape:locked="false" /><sodipodi:guide
     position="1585.9667,1309.9382"
     orientation="1309.9382,0"
     id="guide2"
     inkscape:locked="false" /><sodipodi:guide
     position="1585.9667,0"
     orientation="0,-1585.9667"
     id="guide3"
     inkscape:locked="false" /><sodipodi:guide
     position="0,0"
     orientation="-1309.9382,0"
     id="guide4"
     inkscape:locked="false" /><sodipodi:guide
     position="0,1309.9382"
     orientation="0,1585.9667"
     id="guide5"
     inkscape:locked="false" /><sodipodi:guide
     position="1585.9667,1309.9382"
     orientation="1309.9382,0"
     id="guide6"
     inkscape:locked="false" /><sodipodi:guide
     position="1585.9667,0"
     orientation="0,-1585.9667"
     id="guide7"
     inkscape:locked="false" /><sodipodi:guide
     position="0,0"
     orientation="-1309.9382,0"
     id="guide8"
     inkscape:locked="false" /><inkscape:grid
     id="grid8"
     units="px"
     originx="0"
     originy="0"
     spacingx="1"
     spacingy="0.99999998"
     empcolor="#0099e5"
     empopacity="0.30196078"
     color="#0099e5"
     opacity="0.14901961"
     empspacing="5"
     enabled="true"
     visible="false" /></sodipodi:namedview>

<path
   fill="#023673"
   opacity="1"
   stroke="none"
   d="m 570.11099,1201.6307 c 16.60706,-3.0988 32.38708,-8.3577 47.29529,-16.5276 22.5011,-12.3309 42.78601,-27.7316 61.8927,-44.6056 20.31848,-17.9441 39.8291,-36.8031 59.68066,-55.2753 0.34943,-0.3252 0.55145,-0.8087 1.34931,-2.0155 -2.91864,-1.3731 -5.54688,-3.0841 -8.42835,-3.8935 -36.17065,-10.1602 -69.54791,-26.6692 -101.98694,-45.162 -78.15435,-44.55406 -142.54687,-104.18717 -193.76483,-178.07743 -10.80951,-15.59442 -21.57837,-31.23614 -31.70025,-47.27624 -3.06293,-4.85376 -6.25977,-5.64515 -11.06031,-4.69013 -14.02862,2.79108 -28.03961,5.68518 -42.11096,8.24451 -24.37439,4.43316 -48.789,8.6452 -73.18698,12.94867 -0.49228,0.0869 -0.98532,0.17676 -1.48169,0.23224 -10.25385,1.14624 -13.3945,-0.17603 -17.7579,-9.52564 -2.62903,-5.6333 -4.82016,-11.73584 -5.71659,-17.84625 -1.13629,-7.74597 2.62464,-12.22522 10.28635,-14.01373 13.41498,-3.13141 26.88418,-6.02991 40.32471,-9.05274 20.56384,-4.62494 41.12335,-9.26886 61.68151,-13.91907 1.29493,-0.2929 2.55652,-0.72973 3.84266,-1.065 3.19934,-0.8341 4.22174,-2.24328 2.69616,-5.72369 -7.86645,-17.94666 -15.59222,-35.9577 -23.10528,-54.05493 -2.00318,-4.8252 -4.81198,-6.25116 -9.97388,-5.65204 -46.75738,5.42749 -90.23398,-4.82654 -130.95636,-27.89935 -33.34738,-18.89417 -59.92654,-44.70923 -79.29004,-77.81159 -2.82898,-4.83624 -5.08316,-10.07501 -7.0386,-15.3374 -1.94937,-5.24609 -1.16617,-10.36524 3.77652,-13.75397 9.03647,-6.19543 17.89975,-12.77563 27.4768,-18.02496 25.83072,-14.15808 53.39557,-24.00952 82.71842,-27.01972 16.44912,-1.68866 33.22775,-0.23602 49.85641,-0.0575 3.98053,0.0427 7.95499,0.64807 12.12989,1.01184 0.44833,-7.47742 0.94363,-14.89411 1.32769,-22.31659 0.83698,-16.1756 4.70471,-31.72675 8.90949,-47.30432 9.68881,-35.89429 30.99688,-63.89014 58.45544,-87.83011 11.86017,-10.34039 21.75897,-10.64032 33.862,-0.54392 13.66236,11.39719 24.41498,25.46909 34.38129,40.08295 18.92798,27.75473 30.66119,58.36581 35.224,91.64008 4.54089,33.11419 2.37872,65.64056 -9.17902,97.28143 -3.45373,9.45489 -3.30493,9.54578 5.57575,13.69794 20.8482,9.74768 42.40075,17.19671 66.05645,20.23602 0.12543,-2.19074 0.31586,-4.08844 0.33026,-5.98749 0.15265,-20.16565 0.34729,-40.33136 0.37372,-60.49737 0.01,-7.64783 2.74304,-13.19355 10.40345,-15.66657 5.04406,-1.62842 9.99176,-3.58111 15.08892,-5.00885 2.91828,-0.81738 4.14722,-2.56024 4.30066,-5.26428 0.198,-3.48895 0.25739,-6.98963 0.25818,-10.48529 0.0105,-44.33142 -0.15497,-88.66406 0.18341,-132.99286 0.0439,-5.75397 1.75067,-11.92694 4.26972,-17.14133 5.40142,-11.18084 15.26617,-15.36056 27.45031,-15.33926 45.9997,0.0804 91.9997,-0.0274 137.99958,-0.0644 1.81311,-0.001 3.62628,-1.9e-4 6.03546,-1.9e-4 0.36297,-4.80276 1.01068,-9.3786 1.01013,-13.95437 -0.0109,-92.99961 -0.16949,-185.99929 -0.0684,-278.998718 0.0119,-10.930123 0.78211,-21.938996 2.25672,-32.767563 1.79223,-13.160507 15.07586,-24.1177219 28.43517,-24.1420749 47.9997,-0.08749 96.00128,-0.215866 143.99788,0.185818 7.4406,0.06227 15.4539,1.517933 22.1588,4.599785 12.6222,5.8017079 17.2572,17.2656629 17.2598,30.7422599 0.01,43.832778 -0.017,87.665583 0.019,131.498323 0,2.7976 0.4214,5.59483 0.6821,8.83309 2.3493,0 4.3084,-1.6e-4 6.2675,4e-5 98.33322,0.0103 196.66662,-0.0255 294.99962,0.1271 7.0916,0.011 14.4624,0.41081 21.2147,2.34015 15.4919,4.42648 24.4654,16.71603 24.6879,34.17064 0.5074,39.80492 0.4214,79.61738 0.5693,119.4268 0.022,5.80591 0,11.61194 0,18.38819 7.5652,0 14.3324,0.0214 21.0995,-0.004 27.8324,-0.10321 55.6657,-0.39779 83.4967,-0.24341 10.7861,0.0598 21.8002,-0.0692 32.2998,1.9856 20.0924,3.93213 29.9166,16.05563 30.5508,36.68747 0.747,24.30176 0.7076,48.62793 0.9856,72.94376 0.084,7.332 0.1541,14.66525 0.1056,21.9971 -0.027,4.10083 1.1212,5.99292 5.9158,6.33563 16.2381,1.16089 32.2052,3.89777 47.9231,8.53595 26.1558,7.71838 42.4019,24.84454 49.0446,50.79889 3.6044,14.08331 6.3298,28.52051 7.9089,42.96673 3.4307,31.38544 2.0385,62.82923 -0.6273,94.24738 -5.0871,59.95856 -19.8951,117.46814 -40.7792,173.82922 -22.8724,61.72773 -57.4255,115.82338 -102.4428,163.29314 -43.6265,46.0031 -94.547,82.1692 -153.5263,105.82 -30.6684,12.298 -62.5534,21.4897 -95.3574,26.6059 -17.7211,2.7638 -35.5597,4.8044 -53.3765,6.9065 -5.5959,0.6603 -10.1128,2.8705 -14.0571,6.74 -29.0095,28.4589 -63.2119,49.3861 -99.4363,66.9879 -47.67292,23.1651 -97.43882,40.7178 -149.46552,51.2298 -27.4753,5.5514 -55.09225,10.5907 -82.8276,14.599 -18.40326,2.6596 -37.10986,3.8439 -55.71607,4.3273 -27.29602,0.7094 -54.64721,0.9183 -81.93164,0.022 -30.91784,-1.016 -61.55865,-5.2265 -92.0766,-10.507 -40.15674,-6.948 -79.59918,-16.5067 -118.04413,-30.0242 -44.70367,-15.7182 -87.65118,-35.3707 -127.56625,-60.9255 -32.94259,-21.0908 -64.33627,-44.3934 -94.31073,-69.6925 C 149.45276,1078.5258 95.811887,1006.0986 56.609647,922.67277 34.469017,875.55558 19.137097,826.1995 10.186477,774.94926 1.3092571,724.11936 -1.4404029,672.9069 0.67990706,621.29979 3.2084871,559.75547 15.140957,500.10295 35.569547,442.22764 57.628837,379.73243 89.509527,322.44871 130.09561,269.9488 177.49276,208.63844 233.43033,156.62884 298.03906,113.92787 343.04141,84.185065 391.06082,60.432211 441.75223,42.007383 477.75729,28.920599 514.48562,18.318399 552.22098,11.843065 c 24.34747,-4.1779899 48.95959,-7.2285759 73.57837,-9.2883789 22.70324,-1.89953297 45.57074,-1.90532297 68.37164,-2.53393997 8.90448,-0.245495 11.27679,1.59522997 11.4494,10.50120587 0.39575,20.42435 0.12524,40.861606 0.12524,62.300963 -44.01019,1.12255 -86.79541,3.26767 -129.80798,11.47023 -14.58447,2.98072 -28.49225,5.3898 -42.10901,8.92138 C 451.23544,114.63566 375.90213,150.95639 307.48028,202.16113 252.21505,243.51988 205.65906,292.75535 166.9266,349.7331 115.6615,425.14708 87.713497,508.9763 77.281567,598.91203 c -3.09979,26.72388 -3.80173,53.71509 -2.62346,80.78003 1.27605,29.31152 4.14468,58.37237 9.61867,87.11639 12.77919,67.10358 36.848163,129.95545 72.628863,188.22693 17.11868,27.87906 36.39685,54.16102 58.61416,78.68852 9.53925,10.2613 18.91541,20.1995 28.38221,30.4425 3.77188,3.6196 7.45309,6.9341 11.25293,10.5494 7.64337,7.2507 15.16815,14.2008 22.84289,21.4275 15.8768,14.6218 31.88989,28.5756 50.11871,39.7897 18.7096,11.5099 36.80292,24.089 55.93311,34.8345 49.31592,27.7016 101.66681,47.5783 157.26385,58.6751 23.99518,4.7893 48.09247,8.7646 72.56312,9.6767 35.07409,1.3075 69.76098,-2.0188 104.06634,-9.5234 29.51306,-6.4563 58.01123,-15.7809 85.45074,-29.2482 20.05366,-9.2646 40.19028,-17.7214 59.35778,-27.9875 31.6193,-16.9355 63.1504,-34.2416 91.142,-56.9853 32.7436,-26.6048 61.51332,-56.8901 83.73912,-93.0155 5.0513,-8.2099 9.8817,-16.571 15.2777,-24.54876 4.0143,-5.9349 7.8513,-5.5882 11.4683,0.8378 2.1016,3.73406 3.3953,7.92266 4.9679,12.32656 -2.2799,8.5607 -3.7337,16.9932 -6.8001,24.7917 -12.5981,32.0401 -31.9272,59.7747 -55.5468,84.6488 -2.5705,2.7068 -4.8963,5.6461 -8.02912,9.2827 11.38602,1.0382 21.58752,2.3877 31.82802,2.8249 32.6754,1.3951 65.2158,-0.5728 97.5719,-5.2003 49.6726,-7.1041 97.445,-20.5688 143.1205,-41.713 49.941,-23.1185 94.631,-53.6311 133.8878,-92.10376 27.3129,-26.7671 48.8485,-58.02809 69.1553,-90.19832 0.5483,-0.86859 0.8096,-1.91846 1.4685,-3.52838 -2.1323,0.42071 -3.599,0.57458 -4.9802,1.00378 -12.7021,3.94635 -25.3147,8.20032 -38.0957,11.86859 -29.9882,8.60694 -60.5758,10.46186 -91.5277,7.35089 -31.0708,-3.12304 -61.0813,-10.15033 -88.5925,-25.4671 -10.8763,-6.05542 -21.1954,-13.11194 -31.864,-20.01355 -3.289,-3.68152 -6.9781,-6.73303 -9.5114,-10.55145 -1.8763,-2.8277 -3.5436,-6.85559 -3.0518,-9.99609 1.5504,-9.89856 14.0999,-16.15644 22.6793,-8.85065 6.0783,5.17609 12.3095,10.2185 18.8134,14.841 32.5895,23.1623 69.7274,32.56879 108.9405,34.37921 31.4575,1.45221 61.98,-4.43365 91.6214,-15.00958 17.4215,-6.21594 31.7292,-16.30835 42.7009,-31.46692 16.3777,-22.62774 26.1396,-48.15558 33.7063,-74.63958 5.9687,-20.89118 11.3528,-41.96595 12.7709,-64.23597 5.2335,-26.70233 9.1109,-53.12841 10.5506,-79.9096 1.2556,-23.36066 0.8684,-46.59851 -4.4782,-69.45313 -2.1307,-9.10766 -4.2461,-18.73645 -13.1781,-24.2193 -3.9368,-2.4165 -8.1845,-4.43756 -12.4938,-6.1181 -24.6395,-9.60895 -50.7041,-12.06787 -76.6847,-13.76972 -25.0796,-1.64282 -50.2897,-2.13995 -75.4281,-1.85967 -45.1112,0.50286 -90.1819,2.5733 -134.9567,8.57208 -25.9931,3.48242 -52.0558,6.71264 -77.8465,11.38531 -66.8036,12.10315 -133.0346,26.91248 -198.95832,43.17688 -78.3079,19.31976 -156.65966,38.49256 -235.23577,56.67767 -27.92859,6.46363 -56.43585,11.02741 -84.92786,14.27265 -24.24285,2.76135 -48.84057,3.11853 -73.28625,3.21057 -31.66223,0.11926 -62.50946,-5.90076 -92.24512,-16.71454 -12.76068,-4.64062 -24.9566,-10.83417 -37.60437,-16.58533 -4.71283,-3.03643 -9.25494,-5.77063 -13.74206,-8.59234 -6.12409,-3.85114 -5.90259,-3.78894 -2.95655,-10.39044 4.43555,-9.93915 8.55317,-20.02015 13.05829,-30.32038 9.86872,-25.53839 10.66059,-51.82946 7.31397,-78.04718 -4.19709,-32.8804 -18.09253,-62.01462 -38.85779,-87.79388 -4.21143,-5.2283 -9.12372,-9.89197 -14.35974,-15.50992 -5.05445,5.69702 -9.33557,10.52237 -13.89527,15.51413 -6.36608,8.89517 -12.98333,17.30722 -18.43182,26.41818 -11.57404,19.35413 -18.89468,40.39289 -20.79455,62.89414 -1.8668,22.10919 0.78976,43.56598 13.51577,62.67718 1.4812,2.22437 2.01242,4.23993 -1.00351,5.78882 -3.72348,-1.51758 -7.06964,-2.98614 -10.50174,-4.21442 -30.96884,-11.08343 -62.89035,-12.82653 -95.72982,-9.68786 -4.37748,0.42297 -8.36725,0.71087 -12.2807,1.41974 -19.85816,3.59741 -38.28153,11.29651 -55.8042,20.93329 -13.18561,7.2517 -11.154,6.83892 -3.76151,17.56781 9.16055,13.29498 21.49905,23.61566 34.25272,33.30578 30.27633,23.00336 63.15335,40.29169 101.71032,44.1037 15.97257,1.57916 32.0243,1.47565 47.24927,-4.6391 6.5586,-2.63415 12.68665,-6.34045 19.46753,-9.79254 1.92761,5.66644 3.94989,11.07745 5.61505,16.59631 8.11145,26.88452 19.21094,52.46656 33.51789,76.61853 4.75506,8.0271 5.50463,8.23108 14.46844,6.34778 61.05896,-12.82904 122.05194,-25.98059 183.1922,-38.40777 12.49634,-2.53992 21.27722,-7.74762 28.68622,-18.56666 15.27179,-22.30065 49.49591,-24.0534 68.54761,-4.78021 16.09136,16.27838 17.39068,36.98804 5.2489,58.6305 -11.17572,19.92035 -39.31562,28.14282 -58.52753,16.12017 -11.50922,-7.20245 -22.24133,-9.20282 -34.61029,-4.62671 -0.61639,0.22803 -1.29791,0.27845 -1.94806,0.417 -54.22528,11.55389 -108.44531,23.13257 -162.68054,34.63958 -9.30524,1.97437 -9.9184,3.13117 -5.13202,11.44898 0.1662,0.28876 0.31885,0.58533 0.48749,0.87256 32.01251,54.54956 72.9779,101.64337 120.47949,143.06854 37.07288,32.33044 77.77319,59.6051 122.30267,80.5227 24.03778,11.2915 49.34125,19.8766 73.99549,29.8755 7.38916,2.9967 13.71722,1.7739 19.97802,-2.821 6.03614,-4.43 12.40436,-8.406 18.59827,-12.6234 14.1217,-9.6155 29.11597,-17.6524 45.47216,-22.5626 22.4614,-6.7429 45.1332,-12.7914 67.7721,-18.9264 2.3783,-0.6444 5.1416,0.1311 7.4142,0.4738 -73.3251,38.646 -137.70265,88.7288 -197.19227,145.5102 -12.22394,11.6675 -25.43628,22.2996 -38.48658,33.5545 -10.31268,5.3823 -20.06555,11.2384 -30.42211,15.69 -11.42933,4.9127 -23.4123,8.5374 -35.60926,12.6317 -15.0982,-1.7779 -29.74707,-3.4177 -44.37512,-5.2264 -1.38983,-0.172 -5.76118,-0.7176 -7.08095,-1.4558 M 924.04558,123.85374 c -0.043,-25.494955 0.2423,-50.996235 -0.249,-76.482549 -0.3064,-15.902115 -5.3125,-21.592613 -20.7045,-21.145485 -21.3123,0.61911 -42.6553,0.172981 -63.9851,0.188454 -18.83016,0.01366 -37.66036,0.02045 -56.49056,0.05955 -7.73028,0.01605 -10.71808,2.288391 -12.76013,9.848587 -0.55572,2.057137 -0.90283,4.240723 -0.90527,6.366783 -0.0439,38.326225 0.25146,76.65564 -0.1864,114.97682 -0.12238,10.71054 7.70184,16.5533 16.4591,16.57618 40.15967,0.10493 80.32036,0.14611 120.47956,-0.0259 10.2465,-0.0439 16.1742,-4.74704 17.2788,-14.97381 1.2279,-11.36846 0.7798,-22.91796 1.0635,-35.38863 m -102.6227,222.30652 c 27.4973,0.0362 54.9945,0.0884 82.4917,0.10156 13.1306,0.006 15.7723,-2.14621 18.5107,-15.01086 0.3431,-1.6113 0.4706,-3.29587 0.4766,-4.94727 0.084,-23.16244 0.1578,-46.32501 0.1732,-69.48758 0.01,-12.16479 -0.03,-24.3305 -0.1781,-36.49423 -0.187,-15.37834 -6.7479,-21.90151 -21.9687,-22.00551 -5.9992,-0.041 -11.9988,-0.0107 -17.9982,-0.0105 -31.3301,0.001 -62.66101,-0.12704 -93.98993,0.0663 -13.36486,0.0825 -20.58569,6.36804 -20.14941,20.12314 0.55981,17.64713 0.13806,35.32541 0.13977,52.99027 0.002,19.83129 -0.0377,39.66272 0.0265,59.49383 0.0276,8.54798 4.35974,13.96698 12.54046,14.38266 12.9552,0.65833 25.94831,0.5701 39.92542,0.79816 m -52.66188,130.69351 c 0.0421,8.65979 -0.0124,17.32147 0.14905,25.979 0.2367,12.68598 4.47321,17.25043 17.23444,17.30384 38.97192,0.16308 77.94548,0.1 116.91728,-0.0984 5.5999,-0.0284 11.9577,-0.43152 15.0542,-6.01245 2.158,-3.88922 3.3949,-8.7193 3.5788,-13.18933 0.4583,-11.13813 0.1329,-22.3111 0.027,-33.46921 -0.2394,-25.30234 -0.4496,-50.60547 -0.8445,-75.90561 -0.206,-13.20535 -5.29,-19.08316 -16.485,-19.10736 -39.9717,-0.0864 -79.94376,-0.0837 -119.91556,-0.009 -9.51978,0.0179 -15.2804,5.72022 -15.5224,15.15879 -0.22547,8.79406 -0.2298,17.59521 -0.23627,26.39328 -0.0151,20.65197 0.0268,41.30401 0.0427,62.95602 m -28.927,-88.46918 c -2.1156,-9.11242 -7.39093,-14.14224 -16.09466,-14.9902 -4.95941,-0.48312 -9.95386,-0.81906 -14.93421,-0.84094 -32.31646,-0.14203 -64.63336,-0.2222 -96.95001,-0.19416 -3.7901,0.003 -7.65594,0.45334 -11.35229,1.2901 -6.47498,1.46582 -11.17041,5.22473 -12.41864,12.09024 -0.6507,3.57883 -0.98926,7.26215 -1.00666,10.90049 -0.10699,22.32165 -0.0835,44.64392 -0.10003,66.966 -0.009,11.66074 -0.45581,23.3425 0.0928,34.9772 0.75836,16.08594 5.16736,22.21686 21.78387,22.00049 36.47547,-0.47504 72.96137,-0.14337 109.443,-0.1579 2.66369,-10e-4 5.333,-0.0524 7.99011,-0.22625 8.55615,-0.56024 12.26349,-4.00415 13.44238,-12.48261 0.20526,-1.47613 0.16608,-2.99225 0.16602,-4.48993 -0.002,-37.98074 -0.0141,-75.96152 -0.0616,-114.84253 M 978.29838,199.46064 c -4.6375,0.2858 -9.2749,0.57379 -13.9125,0.85681 -6.7533,0.41213 -11.411,3.94602 -13.2574,10.26571 -1.3321,4.5586 -2.0602,9.45625 -2.0855,14.20787 -0.175,32.98297 -0.1323,65.96734 -0.048,98.95102 0.01,3.79931 0.4521,7.64334 1.138,11.38525 1.3174,7.18839 5.716,11.48477 13.1919,12.16482 7.5998,0.69129 15.2714,0.86976 22.9087,0.82392 32.46942,-0.19495 64.93932,-0.45423 97.40592,-0.90866 12.5856,-0.17615 16.9585,-4.79587 17.2736,-17.37381 0.1788,-7.13535 0.2172,-14.27591 0.208,-21.414 -0.037,-28.45874 0.032,-56.91886 -0.2362,-85.37564 -0.1686,-17.89232 -5.2541,-22.5926 -23.238,-22.73362 -32.8004,-0.2572 -65.6004,-0.55092 -99.34872,-0.84967 m 197.12452,0.90287 c -9.8295,0.0159 -19.6593,-0.0236 -29.4882,0.0627 -10.3691,0.0911 -14.7862,3.46292 -16.6041,13.40137 -0.9217,5.0393 -1.1504,10.25967 -1.172,15.40039 -0.1321,31.32116 -0.1516,62.643 -0.1017,93.96448 0.01,3.97262 0.4143,7.97921 1.0296,11.90844 0.989,6.31384 4.3481,10.80481 10.961,11.97159 3.583,0.63217 7.2497,1.07868 10.8813,1.09802 20.6583,0.11017 41.3175,0.0662 61.9763,0.0747 16.3271,0.007 32.6549,0.089 48.9814,-0.007 10.2837,-0.0606 15.8095,-5.43649 16.1317,-15.56146 0.1953,-6.13587 0.1191,-12.28055 0.1563,-18.4213 0.1854,-30.63995 0.6019,-61.28104 0.4527,-91.91937 -0.075,-15.42473 -3.1715,-22.34526 -21.2364,-22.09508 -26.9846,0.37367 -53.9782,0.11455 -81.9679,0.12258 M 948.92338,413.85374 c 0.001,28.98062 -0.083,57.96164 0.044,86.94171 0.053,12.07623 5.167,17.42712 16.8713,17.37201 40.12212,-0.18933 80.24302,-0.62353 120.36472,-0.91235 6.3351,-0.0457 10.4739,-3.25019 12.4848,-8.89966 1.2588,-3.53662 2.0691,-7.41858 2.1342,-11.16199 0.2689,-15.48535 0.2119,-30.97696 0.2087,-46.46628 0,-19.31976 0.034,-38.64053 -0.1528,-57.95889 -0.1154,-11.93478 -7.3314,-20.38632 -17.4093,-20.40637 -38.9742,-0.0776 -77.949,-0.0628 -116.92322,0.0303 -8.9865,0.0215 -15.1956,4.70471 -16.3981,13.621 -1.1923,8.84107 -0.8778,17.88538 -1.2241,27.84055 m 313.13712,80.23389 c 0.8119,-0.18293 1.6158,-0.4206 2.437,-0.54053 12.2442,-1.78815 12.2447,-1.78455 12.3183,-14.50037 0,-0.49963 0.013,-0.99939 0,-1.49884 -0.2151,-11.64569 -0.5469,-23.29065 -0.6227,-34.93725 -0.1136,-17.45877 -0.4596,-34.93164 0.087,-52.37363 0.3614,-11.53833 -8.4091,-17.90854 -19.9069,-17.90988 -37.4713,-0.004 -74.9425,0.0175 -112.4138,0.0131 -4.9211,-5.8e-4 -9.0495,1.96503 -11.1175,6.28058 -1.8924,3.9494 -3.6728,8.44571 -3.7065,12.71518 -0.2933,37.30063 -0.2827,74.60483 -0.1185,111.90695 0.038,8.65088 2.1281,10.20917 10.5646,8.84595 24.8856,-4.02094 49.7042,-8.47449 74.6261,-12.24933 15.5797,-2.35974 31.2986,-3.79956 47.8495,-5.75195 m 131.3656,-3.95094 h 53.4542 c 0,-2.31055 -6e-4,-4.09277 3e-4,-5.87494 0.015,-30.8309 0.044,-61.6618 0.037,-92.49271 0,-10.31274 -5.0942,-16.54254 -15.2604,-18.44857 -3.4079,-0.63898 -6.924,-0.96637 -10.3922,-0.9766 -20.6648,-0.0611 -41.3301,0.0242 -61.9951,0.0362 -12.3323,0.007 -24.6671,-0.19516 -36.9961,1.8e-4 -11.9583,0.18945 -17.802,4.74951 -19.1964,14.74439 -0.6188,4.43524 -0.9437,8.94781 -0.9446,13.42535 0,9.15408 0.4657,18.3085 0.4509,27.46231 -0.025,15.655 -0.365,31.30957 -0.3735,46.96442 0,4.9273 0.6322,9.85498 1.0015,15.15954 29.9644,0 59.5893,0 90.2142,4.3e-4 z"
   id="path2"
   sodipodi:nodetypes="csssccssscssssssssssscssssssscssssssssccsssscssssccsssssssccsssscsssssssssssssssssssssscssssssssssssssccsssssssccccscssscssssscsscsssssccssscsssssssscssssssssssssscsscssccsssccccsscssccscsssssscsscssssssscscscsccssssssssssccssssssssssssccsssscssssssccssssscsssscscccsscscsssssssccsscscssssscssccscssssssssccsscssssscssscccsssssssssscc"
   style="fill:#1a4681;fill-opacity:1" />


<path
   fill="#9edffd"
   opacity="1"
   stroke="none"
   d="m 255.03628,1074.4152 c -3.68118,-3.3147 -7.36239,-6.6292 -11.15222,-10.6501 -11.19297,-11.6506 -19.42549,-20.0057 -28.52737,-30.3642 -22.0542,-24.2045 -41.33237,-50.48646 -58.45105,-78.36552 -35.7807,-58.27148 -59.849673,-121.12335 -72.628863,-188.22693 -5.47399,-28.74402 -8.34262,-57.80487 -9.61867,-87.11639 -1.17827,-27.06494 -0.47633,-54.05615 2.62346,-80.78003 C 87.713497,508.9763 115.6615,425.14708 166.9266,349.7331 205.65906,292.75535 252.21505,243.51988 307.48028,202.16113 375.90213,150.95639 451.23544,114.63566 533.82864,93.214525 c 13.61676,-3.53158 27.52454,-5.94066 41.71326,-8.81878 -8.45429,9.02647 -16.73602,18.712295 -26.40247,26.728215 -6.34277,5.25976 -14.43353,8.71753 -22.17901,11.92604 -30.38019,12.58491 -61.6615,23.23677 -91.24097,37.45138 -37.7276,18.13024 -74.57196,38.2639 -107.78171,64.24976 -25.00891,19.56891 -49.36218,39.88122 -71.52127,62.67874 -30.85367,31.74255 -56.8096,67.07831 -79.48944,105.14502 -19.47424,32.68631 -34.06702,67.30817 -45.8291,103.22305 -8.36057,25.52863 -14.82938,51.61957 -18.21341,78.35096 -2.45331,19.37957 -5.53394,38.73809 -6.71201,58.20416 -1.15518,19.08868 -0.55404,38.30847 -0.10855,57.45636 0.16367,7.03448 2.08853,14.02807 3.38068,21.70422 0.60028,6.20563 1.02994,11.74744 1.45959,17.28919 1.73865,11.94061 2.94822,23.9873 5.31806,35.80133 6.37814,31.79522 15.78683,62.7428 27.6561,92.91742 11.90014,30.25317 26.58944,59.10864 43.58743,86.83178 24.69208,40.27187 54.7987,76.02463 89.23153,108.24753 31.75245,29.7145 65.24823,57.1954 102.9242,79.1532 34.81006,20.2873 70.64892,38.3058 109.22156,50.7225 24.3974,7.8537 49.23561,13.3741 74.21759,18.8646 6.88836,1.5139 5.4425,1.3554 11.01904,2.4284 14.62805,1.8087 29.27692,3.4485 44.70978,5.3834 13.01861,1.2554 25.25708,3.1901 37.47418,3.0626 20.90411,-0.2176 41.78613,-2.0571 62.69336,-2.6064 24.31695,-0.6389 48.06885,-5.3077 71.98444,-8.9275 3.95965,-0.5992 8.06286,-0.2501 12.09973,-0.3392 -27.08704,13.4725 -55.58521,22.7971 -85.09827,29.2534 -34.30536,7.5046 -68.99225,10.8309 -104.06634,9.5234 -24.47065,-0.9121 -48.56794,-4.8874 -72.56312,-9.6767 -55.59704,-11.0968 -107.94793,-30.9735 -157.26385,-58.6751 -19.13019,-10.7455 -37.22351,-23.3246 -55.93311,-34.8345 -18.22882,-11.2141 -34.24191,-25.1679 -50.13549,-40.1794 -11.3243,-10.334 -15.28755,-13.8791 -22.94477,-21.3384 z"
   id="path5"
   sodipodi:nodetypes="cccssssssscssssssssssccssssssscccsscssssscc"
   style="fill:#b8e4fc;fill-opacity:1" />



<path
   fill="#229AF7"
   opacity="1"
   stroke="none"
   d="m 1551.9992,283.37162 c 10.1959,15.50635 8.2063,42.35657 -12.3306,52.59168 -7.9124,3.9433 -16.3145,4.82333 -24.2472,2.76034 -22.7778,-5.92358 -45.2921,-12.8652 -67.8773,-19.51794 -1.9918,-0.58676 -3.7446,-1.98584 -7.1028,-3.82694 5.6062,-5.18966 10.3311,-10.10083 15.6003,-14.33468 12.8147,-10.29691 25.2829,-21.19751 39.0039,-30.14859 15.9642,-10.41449 42.894,-7.86984 56.9537,12.47613 z"
   id="path9"
   style="fill:#52a9f2;fill-opacity:1" />
<path
   fill="#229AF7"
   opacity="1"
   stroke="none"
   d="m 1367.8919,248.40684 c 7.7891,-13.85144 17.4185,-25.32391 33.0876,-29.60358 17.1552,-4.68559 35.4217,5.58789 39.2924,22.27436 2.7527,11.86578 -1.5123,22.3135 -9.1559,31.31134 -3.0906,3.63833 -6.7414,6.9573 -10.6272,9.7366 -18.1223,12.96146 -36.6741,25.25531 -57.0469,34.51428 -1.1822,0.53732 -2.3802,1.03974 -4.3883,1.91443 0,-7.7561 -0.2661,-14.9678 0.057,-22.15292 0.6117,-13.58646 1.304,-27.19858 5.7725,-40.24072 0.8573,-2.50208 1.9223,-4.93296 3.0084,-7.75379 z"
   id="path10"
   style="fill:#52a9f2;fill-opacity:1" />
<path
   fill="#043773"
   opacity="1"
   stroke="none"
   d="m 686.83291,103.47459 c 3.4314,0.33409 6.44312,0.45853 9.36072,1.04828 5.40448,1.09239 8.5987,5.68182 8.68067,12.96452 0.29058,25.80214 0.46777,51.60591 0.5755,77.40952 0.0292,6.97714 -0.11096,13.97128 -0.58112,20.93008 -0.58526,8.66209 -4.75543,13.61791 -13.42004,14.68489 -5.49304,0.67639 -11.32703,0.23856 -16.77918,-0.8482 -6.09497,-1.21488 -8.90954,-5.97983 -9.79175,-12.34488 -3.41815,-24.66176 -3.11468,-49.45758 -2.91522,-74.24797 0.0574,-7.13901 0.0375,-14.36446 1.10803,-21.3895 1.63062,-10.70065 3.18653,-17.5383 16.81873,-17.85248 2.16205,-0.0498 4.32111,-0.23263 6.94366,-0.35426 z"
   id="path11"
   style="fill:#1a4681;fill-opacity:1" />
<path
   fill="#053874"
   opacity="1"
   stroke="none"
   d="m 111.22876,728.97093 c -0.75418,-5.70984 -1.18384,-11.25165 -1.53629,-17.18091 1.3588,-2.11359 2.63907,-3.84058 3.92215,-5.56549 3.2381,-4.35327 7.31445,-7.38733 12.96265,-7.2298 22.56997,0.62946 45.17181,0.83478 67.69012,2.2995 11.3266,0.73676 14.0745,5.599 14.09497,18.73059 0.0145,9.29083 -4.91073,14.84815 -14.60244,16.46912 -0.98441,0.16467 -1.97428,0.43487 -2.96048,0.42999 -20.29737,-0.10065 -40.59473,-0.33771 -60.89173,-0.30597 -7.26336,0.0113 -13.27484,-2.43671 -18.67895,-7.64703 z"
   id="path12"
   style="fill:#1a4681;fill-opacity:1" />
<path
   fill="#043773"
   opacity="1"
   stroke="none"
   d="m 466.6846,1092.1032 c 2.89459,-4.4949 5.28717,-8.9325 8.43054,-12.7522 5.3905,-6.5503 14.18921,-7.792 22.48529,-3.744 8.84815,4.3174 13.06921,11.7992 11.0412,20.6521 -4.36218,19.0416 -12.09662,36.8542 -20.95251,54.1444 -4.44642,8.681 -11.34302,10.6323 -22.68061,7.8304 -13.38751,-3.3084 -18.67322,-11.8312 -14.21277,-24.9906 4.67548,-13.7935 10.43744,-27.2188 15.88886,-41.1401 z"
   id="path13"
   style="fill:#1a4681;fill-opacity:1" />
<path
   fill="#043774"
   opacity="1"
   stroke="none"
   d="m 250.58301,955.0576 c 9.68591,-6.15369 18.75329,-12.71698 28.55667,-17.88391 12.42132,-6.5467 21.02389,-1.04572 26.03412,8.13977 3.62814,6.65161 2.55874,13.8114 -2.60492,19.32478 -2.02536,2.1626 -4.33008,4.1692 -6.8093,5.7835 -14.06503,9.1578 -28.01684,18.5177 -42.41678,27.1234 -10.0552,6.00896 -21.45886,2.2997 -27.41107,-7.8163 -2.9978,-5.0948 -3.30386,-10.1811 0.70209,-14.7694 3.04055,-3.4825 6.37603,-6.7785 9.95056,-9.7053 4.36676,-3.57563 9.12057,-6.67866 13.99863,-10.19654 z"
   id="path14"
   style="fill:#1a4681;fill-opacity:1" />
<path
   fill="#033773"
   opacity="1"
   stroke="none"
   d="m 411.00491,213.23016 c 7.04895,11.85734 14.38959,23.14738 20.68616,34.99245 4.57947,8.61496 2.33868,15.17215 -5.29041,20.76785 -8.26013,6.05856 -16.93225,6.79697 -22.98742,-0.11875 -13.58179,-15.51202 -25.78058,-32.29382 -32.84638,-51.8345 -5.14081,-14.21733 1.98486,-24.4783 16.40332,-24.73346 4.24939,-0.0752 9.42951,2.49645 12.63678,5.50401 4.50434,4.22379 7.56445,9.98771 11.39795,15.4224 z"
   id="path15"
   style="fill:#1a4681;fill-opacity:1" />
<path
   fill="#239AF7"
   opacity="1"
   stroke="none"
   d="m 1579.824,392.50279 c 12.999,16.71188 4.5177,35.3573 -17.4424,38.41592 -12.593,1.75397 -24.321,-1.27322 -35.2716,-7.95004 -9.3023,-5.67182 -8.7502,-15.25107 -4.7414,-22.1221 5.3872,-9.23322 14.2054,-13.83692 24.1908,-16.09155 12.0595,-2.72309 23.4884,-1.50959 33.2646,7.74777 z"
   id="path16"
   style="fill:#52a9f2;fill-opacity:1" />
<path
   fill="#043874"
   opacity="1"
   stroke="none"
   d="m 216.14242,405.13175 c 6.42774,3.53837 12.54746,6.8707 18.61316,10.29865 1.87308,1.05853 3.65653,2.30054 5.38129,3.59177 4.70816,3.52475 8.70212,7.6427 7.4281,14.13464 -1.48227,7.55258 -5.93805,12.9509 -13.31928,15.46262 -1.7424,0.59292 -4.18234,0.70758 -5.76971,-0.0589 -15.65704,-7.56009 -31.50635,-14.80826 -46.66296,-23.28589 -8.91468,-4.98624 -10.30731,-13.40897 -5.75449,-21.92441 4.47437,-8.36868 12.26572,-11.28626 21.50784,-7.42749 6.25089,2.60983 12.17627,5.99918 18.57605,9.20904 z"
   id="path17"
   style="fill:#1a4681;fill-opacity:1" />
<path
   fill="#2099f7"
   opacity="1"
   stroke="none"
   d="m 803.3937,1200.3476 c -4.38934,0.084 -8.49255,-0.2651 -12.4522,0.3341 -23.91559,3.6198 -47.66749,8.2886 -71.98444,8.9275 -20.90723,0.5493 -41.78925,2.3888 -62.69336,2.6064 -12.2171,0.1275 -26.5488,-2.1292 -39.11234,-3.2933 11.40723,-4.3427 25.48343,-7.6453 36.91276,-12.558 10.35656,-4.4516 19.89441,-10.7377 30.46637,-15.9089 5.52942,-2.0824 10.86138,-3.5269 15.67358,-5.9953 22.81445,-11.7021 41.55475,-29.1709 62.04236,-44.1655 29.9165,-21.8954 59.36578,-44.4503 89.69375,-65.7567 32.6421,-22.9322 66.9463,-43.5066 97.6949,-69.11486 3.27,-2.7232 6.2141,-5.8377 9.3093,-8.7708 -0.3667,-0.4816 -0.7334,-0.9632 -1.1001,-1.4449 -12.4557,5.3921 -24.9115,10.7843 -37.3672,16.17636 -2.5846,-0.1168 -5.3479,-0.8923 -7.7262,-0.2479 -22.6389,6.135 -45.3107,12.1835 -67.7721,18.9264 -16.35619,4.9102 -31.35046,12.9471 -45.47216,22.5626 -6.19391,4.2174 -12.56213,8.1934 -18.59827,12.6234 -6.2608,4.5949 -12.58886,5.8177 -19.97802,2.821 -24.65424,-9.9989 -49.95771,-18.584 -73.99549,-29.8755 -44.52948,-20.9176 -85.22979,-48.19226 -122.30267,-80.5227 -47.50159,-41.42517 -88.46698,-88.51898 -120.47949,-143.06854 -0.16864,-0.28723 -0.32129,-0.5838 -0.48749,-0.87256 -4.78638,-8.31781 -4.17322,-9.47461 5.13202,-11.44898 54.23523,-11.50701 108.45526,-23.08569 162.68054,-34.63958 0.65015,-0.13855 1.33167,-0.18897 1.94806,-0.417 12.36896,-4.57611 23.10107,-2.57574 34.61029,4.62671 19.21191,12.02265 47.35181,3.80018 58.52753,-16.12017 12.14178,-21.64246 10.84246,-42.35212 -5.2489,-58.6305 -19.0517,-19.27319 -53.27582,-17.52044 -68.54761,4.78021 -7.409,10.81904 -16.18988,16.02674 -28.68622,18.56666 -61.14026,12.42718 -122.13324,25.57873 -183.1922,38.40777 -8.96381,1.8833 -9.71338,1.67932 -14.46844,-6.34778 -14.30695,-24.15197 -25.40644,-49.73401 -33.51789,-76.61853 -1.66516,-5.51886 -3.68744,-10.92987 -5.61505,-16.59631 -6.78088,3.45209 -12.90893,7.15839 -19.46753,9.79254 -15.22497,6.11475 -31.2767,6.21826 -47.24927,4.6391 -38.55697,-3.81201 -71.43399,-21.10034 -101.71032,-44.1037 -12.75367,-9.69012 -25.09217,-20.0108 -34.25272,-33.30578 -7.39249,-10.72889 -9.4241,-10.31611 3.76151,-17.56781 17.52267,-9.63678 35.94604,-17.33588 55.8042,-20.93329 3.91345,-0.70887 7.90322,-0.99677 12.50079,-1.12903 5.60055,1.41693 10.51114,2.93304 15.52539,3.45709 10.2186,1.06805 20.59631,0.93524 30.72134,2.50446 17.00946,2.63617 33.84699,6.36663 50.82233,9.25158 2.92712,0.4975 6.17841,-0.91229 9.27994,-1.4411 2.6784,-1.70935 2.14718,-3.72491 0.66598,-5.94928 -12.72601,-19.1112 -15.38257,-40.56799 -13.51577,-62.67718 1.89987,-22.50125 9.22051,-43.54001 20.79455,-62.89414 5.44849,-9.11096 12.06574,-17.52301 18.55084,-26.09811 14.80243,13.00885 25.68592,28.57632 35.50305,45.05566 15.25141,25.60144 23.57129,53.28955 24.83155,82.94458 0.53393,12.56317 -0.55561,25.19532 -0.90723,37.79615 -4.25268,10.02062 -8.3703,20.10162 -12.80585,30.04077 -2.94604,6.6015 -3.16754,6.5393 2.95655,10.39044 4.48712,2.82171 9.02923,5.55591 13.74481,8.98138 1.47559,2.50244 2.3537,4.96717 4.09717,6.10059 9.61981,6.25348 19.21557,12.60889 29.25402,18.14087 28.0965,15.48352 59.05585,21.13452 90.43036,23.59009 20.98273,1.64227 42.23401,1.14672 63.29334,0.12677 18.34961,-0.8888 36.72595,-3.0774 54.86645,-6.05622 40.59772,-6.66662 80.79016,-15.35931 120.68921,-25.50116 65.28697,-16.59521 130.64347,-32.92743 196.09807,-48.84704 31.74272,-7.7204 63.69462,-14.63941 95.69412,-21.23084 44.1681,-9.09808 88.4254,-17.81964 133.3779,-22.28631 26.2487,-2.60828 52.462,-5.73651 78.7644,-7.58905 21.2201,-1.49469 42.555,-2.04865 63.8301,-1.88629 22.5923,0.17236 45.1725,1.73675 67.7617,2.59027 22.6519,0.85583 44.7708,4.92395 66.8089,10.03405 17.0832,3.96131 28.2904,13.12018 31.8873,30.75336 4.2164,20.66949 7.8419,41.43262 8.1511,62.57214 0.3168,21.65332 0.038,43.31501 0.1507,64.97235 0.01,1.96369 0.9754,3.92231 1.4973,5.88331 -1.2998,21.84832 -6.6839,42.92309 -12.6526,63.81427 -7.5667,26.484 -17.3286,52.01184 -33.7063,74.63958 -10.9717,15.15857 -25.2794,25.25098 -42.7009,31.46692 -29.6414,10.57593 -60.1639,16.46179 -91.6214,15.00958 -39.2131,-1.81042 -76.351,-11.21691 -108.9405,-34.37921 -6.5039,-4.6225 -12.7351,-9.66491 -18.8134,-14.841 -8.5794,-7.30579 -21.1289,-1.04791 -22.6793,8.85065 -0.4918,3.1405 1.1755,7.16839 3.0518,9.99609 2.5333,3.81842 6.2224,6.86993 9.3889,10.90534 -2.3739,3.67364 -4.9066,6.56725 -7.0397,9.73046 -20.8322,30.89203 -46.4362,57.4784 -75.0803,80.99484 -17.3195,14.219 -36.1443,26.594 -54.0923,40.06466 -4.6615,3.4986 -9.3794,5.5395 -15.1765,4.8894 -1.6572,-3.9841 -2.9509,-8.1727 -5.0525,-11.90676 -3.617,-6.426 -7.454,-6.7727 -11.4683,-0.8378 -5.396,7.97776 -10.2264,16.33886 -15.2777,24.54876 -22.2258,36.1254 -50.99552,66.4107 -83.73912,93.0155 -27.9916,22.7437 -59.5227,40.0498 -91.142,56.9853 -19.1675,10.2661 -39.30412,18.7229 -59.35778,27.9874 m 315.115,-497.18789 c -1.6107,0.40997 -3.229,0.79236 -4.831,1.23401 -29.0802,8.01825 -42.5208,31.65967 -43.5129,53.57641 -1.7367,38.36725 32.3008,66.50562 70.0251,58.95173 29.4499,-5.89704 50.5787,-35.81794 45.7121,-64.73377 -5.442,-32.33612 -34.2806,-53.61487 -67.3933,-49.02838 z"
   id="path18"
   sodipodi:nodetypes="ccsscsccsssccccsssscssccscsssscssscsssscscssscssscsscssccssssssssssssssscssssssssccssccscsscccsssc"
   style="fill:#52a9f2;fill-opacity:1" />
<path
   fill="#9EE0FE"
   opacity="1"
   stroke="none"
   d="m 1069.3465,1010.975 c 5.8817,0.2303 10.5996,-1.8106 15.2611,-5.3092 17.948,-13.47066 36.7728,-25.84566 54.0923,-40.06466 28.6441,-23.51644 54.2481,-50.10281 75.0803,-80.99484 2.1331,-3.16321 4.6658,-6.05682 7.1355,-9.42956 10.6953,6.24682 21.0144,13.30334 31.8907,19.35876 27.5112,15.31677 57.5217,22.34406 88.5925,25.4671 30.9519,3.11097 61.5395,1.25605 91.5277,-7.35089 12.781,-3.66827 25.3936,-7.92224 38.0957,-11.86859 1.3812,-0.4292 2.8479,-0.58307 4.9802,-1.00378 -0.6589,1.60992 -0.9202,2.65979 -1.4685,3.52838 -20.3068,32.17023 -41.8424,63.43122 -69.1553,90.19832 -39.2568,38.47266 -83.9468,68.98526 -133.8878,92.10376 -45.6755,21.1442 -93.4479,34.6089 -143.1205,41.713 -32.3561,4.6275 -64.8965,6.5954 -97.5719,5.2003 -10.2405,-0.4372 -20.442,-1.7867 -31.82802,-2.8249 3.13282,-3.6366 5.45862,-6.5759 8.02912,-9.2827 23.6196,-24.8741 42.9487,-52.6087 55.5468,-84.6488 3.0664,-7.7985 4.5202,-16.231 6.8001,-24.7917 z"
   id="path19"
   style="fill:#b8e4fc;fill-opacity:1" />
<path
   fill="#9BDDFD"
   opacity="1"
   stroke="none"
   d="m 1539.6119,708.99192 c -0.6402,-1.5393 -1.6054,-3.49792 -1.6156,-5.46161 -0.1128,-21.65734 0.1661,-43.31903 -0.1507,-64.97235 -0.3092,-21.13952 -3.9347,-41.90265 -8.1511,-62.57214 -3.5969,-17.63318 -14.8041,-26.79205 -31.8873,-30.75336 -22.0381,-5.1101 -44.157,-9.17822 -66.8089,-10.03405 -22.5892,-0.85352 -45.1694,-2.41791 -67.7617,-2.59027 -21.2751,-0.16236 -42.61,0.3916 -63.8301,1.88629 -26.3024,1.85254 -52.5157,4.98077 -78.7644,7.58905 -44.9525,4.46667 -89.2098,13.18823 -133.3779,22.28631 -31.9995,6.59143 -63.9514,13.51044 -95.69412,21.23084 -65.4546,15.91961 -130.8111,32.25183 -196.09807,48.84704 -39.89905,10.14185 -80.09149,18.83454 -120.68921,25.50116 -18.1405,2.97882 -36.51684,5.16742 -54.86645,6.05622 -21.05933,1.01995 -42.31061,1.5155 -63.29334,-0.12677 -31.37451,-2.45557 -62.33386,-8.10657 -90.43036,-23.59009 -10.03845,-5.53198 -19.63421,-11.88739 -29.25402,-18.14087 -1.74347,-1.13342 -2.62158,-3.59815 -3.90198,-5.8374 12.44983,5.09893 24.64575,11.29248 37.40643,15.9331 29.73566,10.81378 60.58289,16.8338 92.24512,16.71454 24.44568,-0.092 49.0434,-0.44922 73.28625,-3.21057 28.49201,-3.24524 56.99927,-7.80902 84.92786,-14.27265 78.57611,-18.18511 156.92787,-37.35791 235.23577,-56.67767 65.92372,-16.2644 132.15472,-31.07373 198.95832,-43.17688 25.7907,-4.67267 51.8534,-7.90289 77.8465,-11.38531 44.7748,-5.99878 89.8455,-8.06922 134.9567,-8.57208 25.1384,-0.28028 50.3485,0.21685 75.4281,1.85967 25.9806,1.70185 52.0452,4.16077 76.6847,13.76972 4.3093,1.68054 8.557,3.7016 12.4938,6.1181 8.932,5.48285 11.0474,15.11164 13.1781,24.2193 5.3466,22.85462 5.7338,46.09247 4.4782,69.45313 -1.4397,26.78119 -5.3171,53.20727 -10.5506,79.9096 z"
   id="path20"
   style="fill:#b8e4ff;fill-opacity:1" />
<path
   fill="#2098F6"
   opacity="1"
   stroke="none"
   d="m 924.04448,124.35374 c -0.2826,11.97067 0.1655,23.52017 -1.0624,34.88863 -1.1046,10.22677 -7.0323,14.92993 -17.2788,14.97381 -40.1592,0.17201 -80.31989,0.13083 -120.47956,0.0259 -8.75726,-0.0229 -16.58148,-5.86564 -16.4591,-16.57618 0.43786,-38.32118 0.14245,-76.650595 0.1864,-114.976823 0.002,-2.12606 0.34955,-4.309646 0.90527,-6.366783 2.04205,-7.560196 5.02985,-9.832535 12.76013,-9.848587 18.8302,-0.0391 37.6604,-0.04589 56.49056,-0.05955 21.3298,-0.01547 42.6728,0.430656 63.9851,-0.188454 15.392,-0.447128 20.3981,5.24337 20.7045,21.145485 0.4913,25.486314 0.206,50.987594 0.2479,76.982542 m -69.1156,-31.499998 c -0.015,-7.9936 -0.021,-15.98724 -0.048,-23.9808 -0.034,-9.733319 -3.1802,-12.083516 -13.2232,-9.328198 0,2.488243 -0.01,5.134538 0,7.780798 0.063,22.28792 0.1176,44.575898 0.2352,66.863538 0,0.88912 0.5748,2.52371 0.9512,2.54444 3.1113,0.17126 6.4309,0.64611 9.2779,-0.25896 1.3389,-0.42563 2.4674,-3.66373 2.5133,-5.65453 0.284,-12.31781 0.233,-24.64332 0.293,-37.966288 m -55.00124,0 c 0.51196,14.674448 -1.16412,29.438508 1.08234,44.082918 3.96301,0 7.1972,0 10.27667,0 0.27917,-0.66739 0.51245,-0.96523 0.513,-1.26349 0.0443,-24.45369 0.12335,-48.907778 -0.0519,-73.360024 -0.009,-1.273216 -2.0108,-3.33287 -3.40314,-3.656395 -5.922,-1.375999 -8.13214,0.408165 -8.29797,6.745731 -0.23053,8.8121 -0.0975,17.63372 -0.11896,27.45126 m 95.19004,-8.00027 c 0,-8.59652 0,-17.19305 0,-25.584248 -9.7163,-2.02401 -10.4739,-1.718811 -11.4693,6.781758 -0.5756,4.9136 -0.2765,9.93746 -0.2571,14.91125 0.041,10.47496 0.1564,20.949608 0.2417,31.424408 0.056,6.95694 0.2751,13.91765 0.1138,20.86952 -0.1077,4.63428 2.6268,5.20416 6.1154,4.89218 1.5989,-0.14299 3.1569,-0.74332 5.2583,-1.26704 0,-17.11956 0,-34.07367 0,-52.027828 z"
   id="path21"
   style="fill:#52a9f2;fill-opacity:1" />
<path
   fill="#2098F6"
   opacity="1"
   stroke="none"
   d="m 820.92288,346.16007 c -13.47711,-0.22787 -26.47022,-0.13964 -39.42542,-0.79797 -8.18072,-0.41568 -12.51287,-5.83468 -12.54046,-14.38266 -0.0642,-19.83111 -0.0245,-39.66254 -0.0265,-59.49383 -0.002,-17.66486 0.42004,-35.34314 -0.13977,-52.99027 -0.43628,-13.7551 6.78455,-20.04065 20.14941,-20.12314 31.32892,-0.19337 62.65983,-0.0651 93.98993,-0.0663 5.9994,-2.4e-4 11.999,-0.0305 17.9982,0.0105 15.2208,0.104 21.7817,6.62717 21.9687,22.00551 0.148,12.16373 0.1862,24.32944 0.1781,36.49423 -0.015,23.16257 -0.089,46.32514 -0.1732,69.48758 -0.01,1.6514 -0.1335,3.33597 -0.4766,4.94727 -2.7384,12.86465 -5.3801,15.01715 -18.5107,15.01086 -27.4972,-0.0131 -54.9944,-0.0654 -82.9917,-0.10175 m 20.8667,-109.41 c -0.2338,3.80869 -0.696,7.61939 -0.6625,11.42572 0.1649,18.77066 0.5218,37.53977 0.6607,56.31052 0.028,3.83673 1.6331,6.28522 5.295,6.48868 3.512,0.19509 6.5193,-1.3964 7.5161,-5.2125 0.329,-1.25937 0.2868,-2.63507 0.2882,-3.9577 0.022,-20.27801 0.078,-40.55628 -0.023,-60.83374 -0.017,-3.39346 -0.7375,-6.78342 -1.1515,-10.33502 -4.2049,0 -7.7703,0 -11.5911,0 -0.1172,1.92898 -0.2162,3.55685 -0.3316,6.11404 m 41.2119,25.10373 c 0,13.33255 -0.1977,26.6694 0.082,39.99616 0.1998,9.51022 0.9968,9.94632 10.5141,9.12027 0.2881,-0.025 0.553,-0.31983 1.0241,-0.60868 0,-26.44232 0,-52.99338 0,-79.68402 -3.7217,0 -6.9492,0 -11.6217,0 0,10.30414 0,20.24024 0,31.17627 m -82.03203,45.61929 c 0.2027,5.82807 4.65466,3.27613 7.45306,3.62329 3.36731,0.41764 3.52778,-2.03543 3.52369,-4.58221 -0.0372,-23.27988 -0.13624,-46.56073 0.0573,-69.83902 0.0404,-4.85913 -1.8086,-6.71087 -6.40265,-6.37479 -1.44605,0.10584 -2.89411,0.18396 -5.38434,0.34018 -0.54297,25.49933 -0.34546,50.70398 0.75293,76.83255 z"
   id="path22"
   style="fill:#52a9f2;fill-opacity:1" />
<path
   fill="#2098F6"
   opacity="1"
   stroke="none"
   d="m 768.76248,476.35374 c -0.0173,-21.15201 -0.0592,-41.80405 -0.0441,-62.45602 0.006,-8.79807 0.0108,-17.59922 0.23627,-26.39328 0.242,-9.43857 6.00262,-15.1409 15.5224,-15.15879 39.9718,-0.0751 79.94386,-0.0779 119.91556,0.009 11.195,0.0242 16.279,5.90201 16.485,19.10736 0.3949,25.30014 0.6051,50.60327 0.8445,75.90561 0.1056,11.15811 0.431,22.33108 -0.027,33.46921 -0.1839,4.47003 -1.4208,9.30011 -3.5788,13.18933 -3.0965,5.58093 -9.4543,5.98401 -15.0542,6.01245 -38.9718,0.19836 -77.94536,0.26147 -116.91728,0.0984 -12.76123,-0.0534 -16.99774,-4.61786 -17.23444,-17.30384 -0.1615,-8.65753 -0.10693,-17.31921 -0.14758,-26.479 m 30.20172,-28.5 c -0.0133,8.83322 -0.0411,17.66641 -0.0362,26.49963 0.006,11.55207 0.0178,11.55512 11.59485,10.69025 0.29071,-0.0217 0.56231,-0.29932 0.83575,-0.47015 0.096,-0.12989 0.27557,-0.25953 0.27594,-0.38965 0.0759,-25.6565 0.14972,-51.31302 0.15637,-76.96958 2.5e-4,-0.86367 -0.64624,-2.45574 -1.0517,-2.47564 -3.12322,-0.15302 -6.45996,-0.60657 -9.30609,0.32687 -1.30322,0.42743 -2.28845,3.75736 -2.32678,5.79151 -0.22595,11.99554 -0.1308,23.99719 -0.14215,36.99676 m 82.01498,2 c -0.021,8.82251 -0.079,17.64514 -0.053,26.46753 0.029,9.65301 0.075,9.66711 9.8723,8.70715 0.2875,-0.0281 0.547,-0.34283 1.141,-0.73767 0.256,-2.21246 0.7779,-4.67377 0.7886,-7.13733 0.093,-21.30661 0.1722,-42.61395 0.084,-63.92038 -0.037,-8.89907 -1.0393,-9.62973 -9.7621,-8.73971 -0.284,0.029 -0.5379,0.3544 -0.8059,0.54162 -0.4197,-10e-4 -0.8393,-0.002 -1.259,-0.003 0,14.6073 0,29.2146 -0.01,44.8219 m -39.8214,25.71936 c 0.3178,3.08893 0.6356,6.17792 0.9627,9.35687 3.3957,0 6.3104,0 9.8516,0 0,-26.95309 0,-53.59283 0,-80.36011 -3.7665,0 -6.6917,0 -10.8297,0 0,23.54441 0,46.80024 0.015,71.00324 z"
   id="path23"
   style="fill:#52a9f2;fill-opacity:1" />
<path
   fill="#2098F6"
   opacity="1"
   stroke="none"
   d="m 739.85269,388.8347 c 0.0289,38.43087 0.0408,76.41165 0.043,114.39239 6e-5,1.49768 0.0392,3.0138 -0.16602,4.48993 -1.17889,8.47846 -4.88623,11.92237 -13.44238,12.48261 -2.65711,0.17388 -5.32642,0.22522 -7.99011,0.22625 -36.48163,0.0145 -72.96753,-0.31714 -109.443,0.1579 -16.61651,0.21637 -21.02551,-5.91455 -21.78387,-22.00049 -0.54858,-11.6347 -0.10144,-23.31646 -0.0928,-34.9772 0.0165,-22.32208 -0.007,-44.64435 0.10003,-66.966 0.0174,-3.63834 0.35596,-7.32166 1.00666,-10.90049 1.24823,-6.86551 5.94366,-10.62442 12.41864,-12.09024 3.69635,-0.83676 7.56219,-1.2868 11.35229,-1.2901 32.31665,-0.028 64.63355,0.0521 96.95001,0.19416 4.98035,0.0219 9.9748,0.35782 14.93421,0.84094 8.70373,0.84796 13.97906,5.87778 16.11334,15.44034 m -27.83459,45.0188 c 0,-9.40802 0,-18.81607 0,-28.32361 -4.52259,-0.34314 -8.06244,-0.6117 -12.28266,-0.93189 0,27.14261 0,53.62274 0,80.34192 2.01965,0.12317 3.3125,0.27234 4.60492,0.26917 7.11725,-0.0175 7.57532,-0.48755 7.58942,-7.44904 0.0289,-14.30218 0.066,-28.6044 0.0883,-43.90655 m -94.26679,38.27649 c 0.0721,2.82629 0.16956,5.65216 0.20935,8.47894 0.0445,3.15539 1.14532,5.04901 4.76624,4.68005 2.2287,-0.22699 4.49933,-0.0419 6.92321,-0.0419 0,-26.35797 0,-51.91171 0,-77.53604 -1.17114,-0.36032 -2.09405,-0.72409 -3.05108,-0.92603 -7.29859,-1.53985 -8.56537,-0.67645 -8.65564,6.71402 -0.14991,12.27402 -0.0612,24.55079 -0.0956,36.82636 -0.0195,6.96252 -0.0842,13.9249 -0.0965,21.80463 m 52.05688,-63.87394 c -3.22735,-0.56421 -6.45092,-1.3406 -9.68731,-1.39825 -0.36511,-0.006 -1.13941,4.04129 -1.15381,6.21283 -0.13232,19.95715 -0.14032,39.91513 -0.18097,59.87286 -0.008,3.93173 -10e-4,7.8635 -10e-4,12.03085 4.12097,0 7.35645,0 11.47943,0 0.53119,-25.45574 1.34656,-50.63705 -0.45624,-76.71829 z"
   id="path24"
   style="fill:#52a9f2;fill-opacity:1" />
<path
   fill="#2098F6"
   opacity="1"
   stroke="none"
   d="m 978.77238,199.47077 c 33.27432,0.28862 66.07432,0.58234 98.87472,0.83954 17.9839,0.14102 23.0694,4.8413 23.238,22.73362 0.2678,28.45678 0.1991,56.9169 0.2362,85.37564 0.01,7.13809 -0.029,14.27865 -0.208,21.414 -0.3151,12.57794 -4.688,17.19766 -17.2736,17.37381 -32.4666,0.45443 -64.9365,0.71371 -97.40592,0.90866 -7.6373,0.0458 -15.3089,-0.13263 -22.9087,-0.82392 -7.4759,-0.68005 -11.8745,-4.97643 -13.1919,-12.16482 -0.6859,-3.74191 -1.1283,-7.58594 -1.138,-11.38525 -0.084,-32.98368 -0.1272,-65.96805 0.048,-98.95102 0.025,-4.75162 0.7534,-9.64927 2.0855,-14.20787 1.8464,-6.31969 6.5041,-9.85358 13.2574,-10.26571 4.6376,-0.28302 9.275,-0.57101 14.3865,-0.84668 m 53.15042,54.38324 c -0.039,-5.4895 -0.2921,-10.98834 -0.053,-16.46576 0.2172,-4.98263 -2.9871,-5.76254 -6.6585,-6.04775 -4.099,-0.3184 -6.2683,1.74636 -6.2718,5.87277 -0.02,23.09634 -0.013,46.19265 -0.013,69.289 -2e-4,4.2782 2.2955,6.15732 6.4094,6.72095 4.457,0.61059 5.9847,-1.57758 6.2108,-5.4914 0.1149,-1.98849 0.3279,-3.97665 0.3325,-5.9653 0.037,-15.63748 0.034,-31.27505 0.043,-47.91251 m 39.6838,-20.17331 c -6.8094,-3.8081 -12.5361,-2.27517 -12.5043,3.53119 0.1279,23.29761 0.469,46.59397 0.6778,69.89127 0.053,5.92047 4.5106,3.95163 7.5982,4.36249 3.3591,0.44702 4.615,-0.95523 4.5912,-4.51166 -0.1609,-24.14264 -0.1194,-48.28665 -0.3629,-73.27329 m -93.63452,71.9629 c 0,1.75799 0,3.51599 0,5.0458 11.2154,3.27909 12.0444,-0.62286 11.994,-7.96701 -0.1129,-16.46097 0.083,-32.92398 -0.016,-49.38516 -0.033,-5.46112 -0.7818,-10.91708 -0.8362,-16.37906 -0.05,-5.00925 -3.4552,-4.33523 -6.5435,-4.33044 -3.4394,0.005 -4.7119,1.5223 -4.6815,5.21945 0.1831,22.28198 0.085,44.56625 0.083,67.79642 z"
   id="path25"
   style="fill:#52a9f2;fill-opacity:1" />
<path
   fill="#2098F6"
   opacity="1"
   stroke="none"
   d="m 1175.9229,200.36454 c 27.4897,-0.009 54.4833,0.25006 81.4679,-0.12361 18.0649,-0.25018 21.1613,6.67035 21.2364,22.09508 0.1492,30.63833 -0.2673,61.27942 -0.4527,91.91937 -0.037,6.14075 0.039,12.28543 -0.1563,18.4213 -0.3222,10.12497 -5.848,15.50085 -16.1317,15.56146 -16.3265,0.0962 -32.6543,0.0139 -48.9814,0.007 -20.6588,-0.009 -41.318,0.0354 -61.9763,-0.0747 -3.6316,-0.0193 -7.2983,-0.46585 -10.8813,-1.09802 -6.6129,-1.16678 -9.972,-5.65775 -10.961,-11.97159 -0.6153,-3.92923 -1.0232,-7.93582 -1.0296,-11.90844 -0.05,-31.32148 -0.03,-62.64332 0.1017,-93.96448 0.022,-5.14072 0.2503,-10.36109 1.172,-15.40039 1.8179,-9.93845 6.235,-13.31026 16.6041,-13.40137 9.8289,-0.0864 19.6587,-0.0469 29.9882,-0.0617 m 71.4457,113.11203 c 2.9161,0.24933 3.6083,-1.27859 3.6029,-3.93811 -0.011,-5.15274 0.4267,-10.30575 0.4416,-15.45935 0.058,-20.09808 0.024,-40.19641 0.024,-60.72043 -4.6815,0 -8.3525,0 -13.4371,0 0,24.77973 -0.1341,48.87638 0.098,72.96952 0.055,5.76767 2.2178,7.11621 9.2713,7.14837 m -36.2671,-54.62234 c -0.062,-6.82425 -0.4548,-13.66675 -0.081,-20.46704 0.3026,-5.50595 -2.8928,-5.80103 -6.8265,-5.80945 -3.9063,-0.008 -6.3821,0.72983 -6.3272,5.78497 0.2446,22.46878 0.2969,44.94577 -0.088,67.41113 -0.1021,5.95398 3.5827,6.34375 7.4254,7.13657 4.5362,0.93591 4.3867,-3.14822 5.3647,-5.668 0.5712,-1.47094 0.3337,-3.28213 0.3426,-4.94089 0.076,-14.14901 0.1245,-28.29812 0.1898,-43.44729 m -40.1687,24.99945 c -0.055,-14.96262 -0.2782,-29.92752 -0.078,-44.88672 0.077,-5.73383 -3.1056,-5.66144 -7.3044,-5.78143 -4.5068,-0.12882 -5.7384,1.63525 -5.612,5.8645 0.4371,14.60831 0.6501,29.22394 0.8685,43.83798 0.1213,8.11322 0.01,16.23016 0.1563,24.34262 0.057,3.09116 -0.2134,6.53977 4.7644,6.31229 5.1714,-0.23636 7.0689,-1.67291 7.1518,-6.74298 0.1197,-7.31372 0.042,-14.63065 0.053,-22.94626 z"
   id="path26"
   style="fill:#52a9f2;fill-opacity:1" />
<path
   fill="#2099F6"
   opacity="1"
   stroke="none"
   d="m 948.92338,413.35374 c 0.3463,-9.45517 0.032,-18.49948 1.2241,-27.34055 1.2025,-8.91629 7.4116,-13.59954 16.3981,-13.621 38.97422,-0.0931 77.94902,-0.10785 116.92322,-0.0303 10.0779,0.0201 17.2939,8.47159 17.4093,20.40637 0.1868,19.31836 0.1488,38.63913 0.1528,57.95889 0,15.48932 0.06,30.98093 -0.2087,46.46628 -0.065,3.74341 -0.8754,7.62537 -2.1342,11.16199 -2.0109,5.64947 -6.1497,8.854 -12.4848,8.89966 -40.1217,0.28882 -80.2426,0.72302 -120.36472,0.91235 -11.7043,0.0551 -16.8184,-5.29578 -16.8713,-17.37201 -0.1269,-28.98007 -0.043,-57.96109 -0.044,-87.44171 m 69.81882,39.30115 c 0.057,7.95663 0.4853,15.93377 0.048,23.8631 -0.3192,5.78161 2.7282,5.8927 7.0072,6.05157 4.5,0.16693 6.1448,-1.22321 6.1043,-5.89001 -0.1785,-20.62397 0.032,-41.25092 -0.059,-61.8761 -0.045,-10.30802 -1.2516,-11.24186 -11.5907,-10.29697 -0.2869,0.0262 -0.5489,0.32086 -1.5045,0.91269 0,15.15094 0,30.71335 0,47.23572 m 40.1733,-15.80112 c 0.012,13.65659 -0.01,27.31329 0.056,40.96967 0.023,4.72613 2.2565,6.10504 7.9392,6.52056 4.8915,0.35767 4.9207,-2.35333 4.9159,-5.84045 -0.032,-23.31558 0.03,-46.63126 0.034,-69.94693 3e-4,-1.27814 -0.2459,-2.55633 -0.4207,-4.25501 -1.7442,0 -3.2089,-0.0121 -4.6734,0.002 -7.2607,0.07 -7.6328,0.38467 -7.7223,7.56885 -0.1,7.99304 -0.091,15.98745 -0.1291,24.98126 m -80.93142,38.83398 c 0.5235,2.28925 0.4219,6 1.7041,6.56379 2.463,1.08313 5.9221,1.02136 8.5437,0.15301 1.3202,-0.43732 2.4029,-3.67621 2.4164,-5.65625 0.1495,-22.13086 0.077,-44.26327 0.036,-66.39526 0,-1.59125 -0.2241,-3.18207 -0.3462,-4.80322 -2.0967,-0.40284 -3.7075,-0.81531 -5.3445,-1.00889 -6.7409,-0.79715 -6.9779,-0.60391 -6.9877,6.28324 -0.03,21.3002 -0.021,42.60046 -0.021,64.86358 z"
   id="path27"
   style="fill:#52a9f2;fill-opacity:1" />
<path
   fill="#2098F6"
   opacity="1"
   stroke="none"
   d="m 1261.6133,494.13755 c -16.1037,1.90247 -31.8226,3.34229 -47.4023,5.70203 -24.9219,3.77484 -49.7405,8.22839 -74.6261,12.24933 -8.4365,1.36322 -10.5265,-0.19507 -10.5646,-8.84595 -0.1642,-37.30212 -0.1748,-74.60632 0.1185,-111.90695 0.034,-4.26947 1.8141,-8.76578 3.7065,-12.71518 2.068,-4.31555 6.1964,-6.28116 11.1175,-6.28058 37.4713,0.004 74.9425,-0.0174 112.4138,-0.0131 11.4978,10e-4 20.2683,6.37155 19.9069,17.90988 -0.5464,17.44199 -0.2004,34.91486 -0.087,52.37363 0.076,11.6466 0.4076,23.29156 0.6227,34.93725 0.01,0.49945 -6e-4,0.99921 0,1.49884 -0.074,12.71582 -0.074,12.71222 -12.3183,14.50037 -0.8212,0.11993 -1.6251,0.3576 -2.8842,0.59045 m -60.761,-87.48227 c -3.436,0.36295 -2.9351,2.92173 -2.9339,5.22602 0.012,22.29223 0,44.5845 0.03,66.87674 0.01,6.00232 0.5943,6.3457 6.4614,6.46155 3.131,0.0619 4.7284,-1.28827 5.2762,-4.04456 0.5479,-2.7561 1.0795,-5.5744 1.0942,-8.36813 0.1048,-19.96366 0.081,-39.92795 0.08,-59.89206 -2e-4,-1.63684 -0.1412,-3.27366 -0.2426,-5.47193 -3.0821,-0.30234 -5.9923,-0.58783 -9.7646,-0.78763 m -41.995,48.07828 c 0.025,8.28623 0.01,16.57291 0.093,24.85852 0.043,4.26019 1.885,6.98725 6.5701,6.87378 4.7833,-0.11578 5.4481,-3.19134 5.432,-7.15362 -0.084,-20.64212 -0.018,-41.28479 -0.065,-61.92719 -0.01,-2.14429 0.011,-4.46237 -0.774,-6.37518 -0.6078,-1.48139 -2.3003,-3.22885 -3.7739,-3.51828 -5.7812,-1.13565 -7.3105,0.21982 -7.3743,6.40637 -0.1367,13.28647 -0.078,26.57492 -0.1078,40.8356 m 91.0372,-17.87984 c -0.1594,-10.04443 -0.3187,-20.08887 -0.4786,-30.16672 -2.1802,-0.25848 -3.1456,-0.4219 -4.1173,-0.48031 -7.3224,-0.44019 -7.3631,-0.41965 -7.3666,6.68139 -0.011,21.60456 0.04,43.20926 -0.04,64.81348 -0.013,3.39008 0.2747,6.00415 4.6487,5.70471 3.4538,-0.23639 6.4744,-0.1756 6.4857,-5.24951 0.03,-13.43494 0.5442,-26.86878 0.8679,-41.30304 z"
   id="path28"
   style="fill:#52a9f2;fill-opacity:1" />
<path
   fill="#2098F6"
   opacity="1"
   stroke="none"
   d="m 1392.9229,490.13646 c -30.1249,-1.9e-4 -59.7498,-1.9e-4 -89.7142,-1.9e-4 -0.3693,-5.30456 -1.0042,-10.23224 -1.0015,-15.15954 0.01,-15.65485 0.3481,-31.30942 0.3735,-46.96442 0.015,-9.15381 -0.4527,-18.30823 -0.4509,-27.46231 9e-4,-4.47754 0.3258,-8.99011 0.9446,-13.42535 1.3944,-9.99488 7.2381,-14.55494 19.1964,-14.74439 12.329,-0.19534 24.6638,0.007 36.9961,-1.8e-4 20.665,-0.012 41.3303,-0.0973 61.9951,-0.0362 3.4682,0.0102 6.9843,0.33762 10.3922,0.9766 10.1662,1.90603 15.258,8.13583 15.2604,18.44857 0.01,30.83091 -0.022,61.66181 -0.037,92.49271 -9e-4,1.78217 -3e-4,3.56439 -3e-4,5.87494 -18.2315,0 -35.8429,0 -53.9542,-2.4e-4 m -50.7378,-79.56623 c -0.1995,-1.6087 -0.3989,-3.21741 -0.6009,-4.84668 -3.9936,0 -7.6745,0 -11.2487,0 0,23.65662 0,46.85571 0,70.1958 3.9695,0 7.5356,0 12.0739,0 0,-21.70514 0,-43.08731 -0.2243,-65.34912 m 39.8829,53.26972 c -0.026,-16.29566 0.04,-32.59223 -0.113,-48.88669 -0.097,-10.34244 -0.2441,-10.34461 -10.7406,-9.36844 -0.2886,0.0268 -0.5514,0.32809 -1.0006,0.6113 -0.3936,2.80822 -1.1419,5.74377 -1.1616,8.6842 -0.115,17.12701 -0.2315,34.25754 0.01,51.38202 0.1388,10.02432 1.7717,11.11142 11.8314,9.6879 0.1355,-0.0192 0.2473,-0.20588 1.1617,-1.01331 0,-2.88556 0,-6.49545 0.017,-11.09698 m 34.1764,12.34124 c 1.2115,-1.18835 3.2961,-2.25689 3.4784,-3.58645 0.6745,-4.91468 0.9938,-9.91779 0.9529,-14.88358 -0.1296,-15.74435 -0.5204,-31.48639 -0.7157,-47.2305 -0.038,-3.09051 -0.054,-5.42224 -4.3652,-5.33627 -4.0038,0.0798 -6.6704,0.43927 -6.7252,5.40506 -0.1352,12.27231 -0.7717,24.54013 -0.8411,36.8118 -0.042,7.44763 0.5112,14.90426 0.9631,22.34677 0.2348,3.86807 1.1441,7.4042 7.2528,6.47317 z"
   id="path29"
   style="fill:#52a9f2;fill-opacity:1" />
<path
   fill="#9addfc"
   opacity="1"
   stroke="none"
   d="m 920.16508,1001.6096 c 12.7677,-5.61796 25.2235,-11.01016 37.6792,-16.40226 0.3667,0.4817 0.7334,0.9633 1.1001,1.4449 -3.0952,2.9331 -6.0393,6.0476 -9.3093,8.7708 -30.7486,25.60826 -65.0528,46.18266 -97.6949,69.11486 -30.32797,21.3064 -59.77725,43.8613 -89.69375,65.7567 -20.48761,14.9946 -39.22791,32.4634 -62.04236,44.1655 -4.8122,2.4684 -11.64929,5.203 -16.88513,7.1399 12.49743,-11.3205 27.42993,-22.8127 39.65387,-34.4802 59.48962,-56.7814 123.86717,-106.8642 197.19227,-145.5102 z"
   id="path30"
   sodipodi:nodetypes="ccccssscsc"
   style="fill:#b8e4ff;fill-opacity:1" />
<path
   fill="#9CDEFD"
   opacity="1"
   stroke="none"
   d="m 429.19839,568.35453 c 0.0992,-12.32122 1.18872,-24.95337 0.65479,-37.51654 -1.26026,-29.65503 -9.58014,-57.34314 -24.83155,-82.94458 -9.81713,-16.47934 -20.70062,-32.04681 -35.22448,-45.2221 4.16211,-5.14539 8.44323,-9.97074 13.49768,-15.66776 5.23602,5.61795 10.14831,10.28162 14.35974,15.50992 20.76526,25.77926 34.6607,54.91348 38.85779,87.79388 3.34662,26.21772 2.55475,52.50879 -7.31397,78.04718 z"
   id="path31"
   style="fill:#b8e4ff;fill-opacity:1" />
<path
   fill="#94D8FA"
   opacity="1"
   stroke="none"
   d="m 342.68545,560.296 c -2.764,0.68927 -6.01529,2.09906 -8.94241,1.60156 -16.97534,-2.88495 -33.81287,-6.61541 -50.82233,-9.25158 -10.12503,-1.56922 -20.50274,-1.43641 -30.72134,-2.50446 -5.01425,-0.52405 -9.92484,-2.04016 -15.10248,-3.39801 32.19647,-3.48846 64.11798,-1.74536 95.08682,9.33807 3.4321,1.22828 6.77826,2.69684 10.50174,4.21442 z"
   id="path32"
   style="fill:#b8e4ff;fill-opacity:1" />




<path
   fill="#fcfdfe"
   opacity="1"
   stroke="none"
   d="m 1118.9411,703.12962 c 32.6803,-4.5564 61.5189,16.72235 66.9609,49.05847 4.8666,28.91583 -16.2622,58.83673 -45.7121,64.73377 -37.7243,7.55389 -71.7618,-20.58448 -70.0251,-58.95173 0.9921,-21.91674 14.4327,-45.55816 43.5129,-53.57641 1.602,-0.44165 3.2203,-0.82404 5.2634,-1.2641 m -14.3029,51.06293 c -1.7823,-1.07618 -3.5648,-2.15229 -5.4965,-3.31855 -3.987,16.48542 1.3988,30.53266 13.6563,36.59217 14.8419,7.33697 31.9168,4.01581 41.1424,-8.00257 9.1379,-11.90454 8.5593,-27.98761 -1.4411,-40.05633 -7.9645,-9.61176 -20.7168,-13.34412 -29.9786,-8.48694 1.2179,2.82983 2.6057,5.63629 3.6456,8.56622 1.7023,4.79529 1.7238,9.59314 -1.771,13.64167 -3.6177,4.19097 -8.5196,5.0053 -13.6905,3.9074 -1.8904,-0.40136 -3.6082,-1.61572 -6.0666,-2.84307 z"
   id="path37" />
<path
   fill="#023775"
   opacity="1"
   stroke="none"
   d="m 854.92898,93.353735 c -0.06,12.822975 -0.01,25.148485 -0.2931,37.466295 -0.046,1.9908 -1.1744,5.2289 -2.5133,5.65453 -2.847,0.90507 -6.1666,0.43022 -9.2779,0.25896 -0.3764,-0.0207 -0.9465,-1.65532 -0.9512,-2.54444 -0.1176,-22.28764 -0.172,-44.575625 -0.2352,-66.863545 -0.01,-2.64626 0,-5.292555 0,-7.780798 10.043,-2.755318 13.1894,-0.405121 13.2232,9.328198 0.028,7.99356 0.033,15.9872 0.049,24.4808 z"
   id="path38" />
<path
   fill="#013673"
   opacity="1"
   stroke="none"
   d="m 799.92703,92.353735 c 0.0221,-9.31754 -0.11096,-18.13916 0.11957,-26.95126 0.16583,-6.337566 2.37597,-8.12173 8.29797,-6.745731 1.39234,0.323525 3.39398,2.383179 3.40314,3.656395 0.17529,24.452246 0.0962,48.906341 0.0519,73.360031 -5.5e-4,0.29826 -0.23383,0.5961 -0.513,1.26349 -3.07947,0 -6.31366,0 -10.27667,0 -2.24642,-14.64441 -0.57034,-29.40847 -1.08291,-44.582925 z"
   id="path39" />
<path
   fill="#013774"
   opacity="1"
   stroke="none"
   d="m 895.11918,85.353485 c 0,17.454145 0,34.408255 0,51.527815 -2.1014,0.52372 -3.6594,1.12405 -5.2583,1.26704 -3.4886,0.31198 -6.2231,-0.2579 -6.1154,-4.89218 0.1613,-6.95187 -0.057,-13.91258 -0.1138,-20.86952 -0.085,-10.4748 -0.2008,-20.949455 -0.2417,-31.424415 -0.019,-4.97379 -0.3185,-9.99765 0.2571,-14.91125 0.9954,-8.500569 1.753,-8.805768 11.4693,-6.781758 0,8.391198 0,16.987728 0,26.084268 z"
   id="path40" />
<path
   fill="#023775"
   opacity="1"
   stroke="none"
   d="m 841.79778,236.28541 c 0.1072,-2.09253 0.2062,-3.7204 0.3234,-5.64938 3.8208,0 7.3862,0 11.5911,0 0.414,3.5516 1.1345,6.94156 1.1515,10.33502 0.1016,20.27746 0.046,40.55573 0.023,60.83374 0,1.32263 0.041,2.69833 -0.2882,3.9577 -0.9968,3.8161 -4.0041,5.40759 -7.5161,5.2125 -3.6619,-0.20346 -5.2667,-2.65195 -5.295,-6.48868 -0.1389,-18.77075 -0.4958,-37.53986 -0.6607,-56.31052 -0.034,-3.80633 0.4287,-7.61703 0.6707,-11.89038 z"
   id="path41" />
<path
   fill="#013774"
   opacity="1"
   stroke="none"
   d="m 883.00088,261.35383 c -6e-4,-10.43606 -6e-4,-20.37216 -6e-4,-30.6763 4.6725,0 7.9,0 11.6217,0 0,26.69064 0,53.2417 0,79.68402 -0.4711,0.28885 -0.736,0.58368 -1.0241,0.60868 -9.5173,0.82605 -10.3143,0.38995 -10.5141,-9.12027 -0.28,-13.32676 -0.078,-26.66361 -0.083,-40.49613 z"
   id="path42" />
<path
   fill="#023775"
   opacity="1"
   stroke="none"
   d="m 800.95645,307.0131 c -1.08539,-25.66858 -1.2829,-50.87323 -0.73993,-76.37256 2.49023,-0.15622 3.93829,-0.23434 5.38434,-0.34018 4.59405,-0.33608 6.44305,1.51566 6.40265,6.37479 -0.19355,23.27829 -0.0945,46.55914 -0.0573,69.83902 0.004,2.54678 -0.15638,4.99985 -3.52369,4.58221 -2.7984,-0.34716 -7.25036,2.20478 -7.46606,-4.08328 z"
   id="path43" />
<path
   fill="#013674"
   opacity="1"
   stroke="none"
   d="m 798.96341,447.35374 c 0.0121,-12.49957 -0.083,-24.50122 0.14294,-36.49676 0.0383,-2.03415 1.02356,-5.36408 2.32678,-5.79151 2.84613,-0.93344 6.18287,-0.47989 9.30609,-0.32687 0.40546,0.0199 1.05195,1.61197 1.0517,2.47564 -0.007,25.65656 -0.0805,51.31308 -0.15637,76.96958 -3.7e-4,0.13012 -0.17999,0.25976 -0.27234,0.39599 -0.27704,0.16449 -0.54864,0.44214 -0.83935,0.46381 -11.57709,0.86487 -11.58844,0.86182 -11.59485,-10.69025 -0.005,-8.83322 0.0229,-17.66641 0.0354,-26.99963 z"
   id="path44" />
<path
   fill="#023877"
   opacity="1"
   stroke="none"
   d="m 880.98218,449.35374 c 0,-15.1073 0,-29.7146 0,-44.3219 0.4197,0.001 0.8393,0.002 1.259,0.003 0.268,-0.18722 0.5219,-0.5126 0.8059,-0.54162 8.7228,-0.89002 9.7252,-0.15936 9.7621,8.73971 0.088,21.30643 0.01,42.61377 -0.084,63.92038 -0.011,2.46356 -0.5326,4.92487 -0.7886,7.13733 -0.594,0.39484 -0.8535,0.70953 -1.141,0.73767 -9.7971,0.95996 -9.8432,0.94586 -9.8723,-8.70715 -0.027,-8.82239 0.032,-17.64502 0.056,-26.96753 z"
   id="path45" />
<path
   fill="#023978"
   opacity="1"
   stroke="none"
   d="m 841.15008,475.09947 c -0.01,-23.72937 -0.01,-46.9852 -0.01,-70.52961 4.138,0 7.0632,0 10.8297,0 0,26.76728 0,53.40702 0,80.36011 -3.5412,0 -6.4559,0 -9.8516,0 -0.3271,-3.17895 -0.6449,-6.26794 -0.9704,-9.8305 z"
   id="path46" />
<path
   fill="#023775"
   opacity="1"
   stroke="none"
   d="m 712.02383,434.3535 c -0.028,14.80215 -0.0652,29.10437 -0.0941,43.40655 -0.0141,6.96149 -0.47217,7.43158 -7.58942,7.44904 -1.29242,0.003 -2.58527,-0.146 -4.60492,-0.26917 0,-26.71918 0,-53.19931 0,-80.34192 4.22022,0.32019 7.76007,0.58875 12.28266,0.93189 0,9.50754 0,18.91559 0.006,28.82361 z"
   id="path47" />
<path
   fill="#013774"
   opacity="1"
   stroke="none"
   d="m 617.73538,471.67137 c 0.0283,-7.42111 0.0929,-14.38349 0.11243,-21.34601 0.0344,-12.27557 -0.0543,-24.55234 0.0956,-36.82636 0.0903,-7.39047 1.35705,-8.25387 8.65564,-6.71402 0.95703,0.20194 1.87994,0.56571 3.05108,0.92603 0,25.62433 0,51.17807 0,77.53604 -2.42388,0 -4.69451,-0.18506 -6.92321,0.0419 -3.62092,0.36896 -4.72175,-1.52466 -4.76624,-4.68005 -0.0398,-2.82678 -0.13727,-5.65265 -0.22528,-8.93756 z"
   id="path48" />
<path
   fill="#023876"
   opacity="1"
   stroke="none"
   d="m 669.85757,408.69718 c 1.75342,25.64011 0.93805,50.82142 0.40686,76.27716 -4.12298,0 -7.35846,0 -11.47943,0 0,-4.16735 -0.007,-8.09912 10e-4,-12.03085 0.0407,-19.95773 0.0487,-39.91571 0.18097,-59.87286 0.0144,-2.17154 0.7887,-6.21933 1.15381,-6.21283 3.23639,0.0577 6.45996,0.83404 9.73669,1.83938 z"
   id="path49" />
<path
   fill="#013774"
   opacity="1"
   stroke="none"
   d="m 1031.9228,254.35398 c -0.01,16.13749 -0.01,31.77506 -0.043,47.41254 0,1.98865 -0.2176,3.97681 -0.3325,5.9653 -0.2261,3.91382 -1.7538,6.10199 -6.2108,5.4914 -4.1139,-0.56363 -6.4096,-2.44275 -6.4094,-6.72095 10e-5,-23.09635 -0.01,-46.19266 0.013,-69.289 0,-4.12641 2.1728,-6.19117 6.2718,-5.87277 3.6714,0.28521 6.8757,1.06512 6.6585,6.04775 -0.2389,5.47742 0.014,10.97626 0.053,16.96573 z"
   id="path50" />
<path
   fill="#023876"
   opacity="1"
   stroke="none"
   d="m 1071.7164,234.10225 c 0.1337,24.56509 0.092,48.7091 0.2531,72.85174 0.024,3.55643 -1.2321,4.95868 -4.5912,4.51166 -3.0876,-0.41086 -7.5452,1.55798 -7.5982,-4.36249 -0.2088,-23.2973 -0.5499,-46.59366 -0.6778,-69.89127 -0.032,-5.80636 5.6949,-7.33929 12.6141,-3.10964 z"
   id="path51" />
<path
   fill="#013674"
   opacity="1"
   stroke="none"
   d="m 977.97078,305.17027 c 0,-22.75684 0.1009,-45.04111 -0.082,-67.32309 -0.03,-3.69715 1.2421,-5.21408 4.6815,-5.21945 3.0883,-0.005 6.4934,-0.67881 6.5435,4.33044 0.054,5.46198 0.8033,10.91794 0.8362,16.37906 0.099,16.46118 -0.097,32.92419 0.016,49.38516 0.05,7.34415 -0.7786,11.2461 -11.994,7.96701 0,-1.52981 0,-3.28781 0,-5.51913 z"
   id="path52" />
<path
   fill="#023876"
   opacity="1"
   stroke="none"
   d="m 1246.9205,313.48289 c -6.6054,-0.0385 -8.7677,-1.38702 -8.8232,-7.15469 -0.2317,-24.09314 -0.098,-48.18979 -0.098,-72.96952 5.0846,0 8.7556,0 13.4371,0 0,20.52402 0.035,40.62235 -0.024,60.72043 -0.015,5.1536 -0.4521,10.30661 -0.4416,15.45935 0.01,2.65952 -0.6868,4.18744 -4.051,3.94443 z"
   id="path53" />
<path
   fill="#013673"
   opacity="1"
   stroke="none"
   d="m 1211.0972,259.35426 c -0.061,14.64914 -0.1098,28.79825 -0.1855,42.94726 -0.01,1.65876 0.2286,3.46995 -0.3426,4.94089 -0.978,2.51978 -0.8285,6.60391 -5.3647,5.668 -3.8427,-0.79282 -7.5275,-1.18259 -7.4254,-7.13657 0.3846,-22.46536 0.3323,-44.94235 0.088,-67.41113 -0.055,-5.05514 2.4209,-5.79333 6.3272,-5.78497 3.9337,0.008 7.1291,0.3035 6.8265,5.80945 -0.3737,6.80029 0.019,13.64279 0.077,20.96707 z"
   id="path54" />
<path
   fill="#013774"
   opacity="1"
   stroke="none"
   d="m 1170.9302,284.35368 c -0.01,7.81561 0.069,15.13254 -0.051,22.44626 -0.083,5.07007 -1.9804,6.50662 -7.1518,6.74298 -4.9778,0.22748 -4.7077,-3.22113 -4.7644,-6.31229 -0.1484,-8.11246 -0.035,-16.2294 -0.1563,-24.34262 -0.2184,-14.61404 -0.4314,-29.22967 -0.8685,-43.83798 -0.1264,-4.22925 1.1052,-5.99332 5.612,-5.8645 4.1988,0.11999 7.3812,0.0476 7.3044,5.78143 -0.2004,14.9592 0.023,29.9241 0.075,45.38672 z"
   id="path55" />
<path
   fill="#023775"
   opacity="1"
   stroke="none"
   d="m 1018.7447,452.17491 c 0,-16.04239 0,-31.6048 0,-46.75574 0.9556,-0.59183 1.2176,-0.88651 1.5045,-0.91269 10.3391,-0.94489 11.5452,-0.0111 11.5907,10.29697 0.091,20.62518 -0.1194,41.25213 0.059,61.8761 0.041,4.6668 -1.6043,6.05694 -6.1043,5.89001 -4.279,-0.15887 -7.3264,-0.26996 -7.0072,-6.05157 0.4377,-7.92933 0.01,-15.90647 -0.045,-24.34308 z"
   id="path56" />
<path
   fill="#013674"
   opacity="1"
   stroke="none"
   d="m 1058.9207,436.35374 c 0.038,-8.49381 0.029,-16.48822 0.129,-24.48126 0.09,-7.18418 0.4616,-7.49884 7.7223,-7.56885 1.4645,-0.0141 2.9292,-0.002 4.6734,-0.002 0.1748,1.69868 0.421,2.97687 0.4207,4.25501 0,23.31567 -0.066,46.63135 -0.034,69.94693 0,3.48712 -0.024,6.19812 -4.9159,5.84045 -5.6827,-0.41552 -7.9165,-1.79443 -7.9392,-6.52056 -0.066,-13.65638 -0.044,-27.31308 -0.056,-41.46967 z"
   id="path57" />
<path
   fill="#023876"
   opacity="1"
   stroke="none"
   d="m 977.98608,475.20628 c 0,-21.78168 -0.01,-43.08194 0.024,-64.38214 0.01,-6.88715 0.2468,-7.08039 6.9877,-6.28324 1.637,0.19358 3.2478,0.60605 5.3445,1.00889 0.1221,1.62115 0.3433,3.21197 0.3462,4.80322 0.041,22.13199 0.114,44.2644 -0.036,66.39526 -0.013,1.98004 -1.0962,5.21893 -2.4164,5.65625 -2.6216,0.86835 -6.0807,0.93012 -8.5437,-0.15301 -1.2822,-0.56379 -1.1806,-4.27454 -1.7072,-7.04523 z"
   id="path58" />
<path
   fill="#013774"
   opacity="1"
   stroke="none"
   d="m 1201.2834,406.61244 c 3.3412,0.24264 6.2514,0.52813 9.3335,0.83047 0.1014,2.19827 0.2424,3.83509 0.2426,5.47193 0,19.96411 0.025,39.9284 -0.08,59.89206 -0.015,2.79373 -0.5463,5.61203 -1.0942,8.36813 -0.5478,2.75629 -2.1452,4.10644 -5.2762,4.04456 -5.8671,-0.11585 -6.4545,-0.45923 -6.4614,-6.46155 -0.026,-22.29224 -0.018,-44.58451 -0.03,-66.87674 0,-2.30429 -0.5021,-4.86307 3.365,-5.26886 z"
   id="path59" />
<path
   fill="#013774"
   opacity="1"
   stroke="none"
   d="m 1158.8616,454.24705 c 0.026,-13.77417 -0.033,-27.06262 0.1035,-40.34909 0.064,-6.18655 1.5931,-7.54202 7.3743,-6.40637 1.4736,0.28943 3.1661,2.03689 3.7739,3.51828 0.7849,1.91281 0.769,4.23089 0.774,6.37518 0.048,20.6424 -0.019,41.28507 0.065,61.92719 0.016,3.96228 -0.6487,7.03784 -5.432,7.15362 -4.6851,0.11347 -6.5266,-2.61359 -6.5701,-6.87378 -0.085,-8.28561 -0.068,-16.57229 -0.089,-25.34503 z"
   id="path60" />
<path
   fill="#013674"
   opacity="1"
   stroke="none"
   d="m 1249.8975,437.35374 c -0.3225,13.93426 -0.8363,27.3681 -0.8667,40.80304 -0.011,5.07391 -3.0319,5.01312 -6.4857,5.24951 -4.374,0.29944 -4.6613,-2.31463 -4.6487,-5.70471 0.08,-21.60422 0.029,-43.20892 0.04,-64.81348 0,-7.10104 0.044,-7.12158 7.3666,-6.68139 0.9717,0.0584 1.9371,0.22183 4.1173,0.48031 0.1599,10.07785 0.3192,20.12229 0.4774,30.66672 z"
   id="path61" />
<path
   fill="#023775"
   opacity="1"
   stroke="none"
   d="m 1342.2972,411.01005 c 0.1122,21.82199 0.1122,43.20416 0.1122,64.9093 -4.5383,0 -8.1044,0 -12.0739,0 0,-23.34009 0,-46.53918 0,-70.1958 3.5742,0 7.2551,0 11.2487,0 0.202,1.62927 0.4014,3.23798 0.713,5.2865 z"
   id="path62" />
<path
   fill="#013774"
   opacity="1"
   stroke="none"
   d="m 1382.0595,464.3358 c -0.01,4.10568 -0.01,7.71557 -0.01,10.60113 -0.9144,0.80743 -1.0262,0.99414 -1.1617,1.01331 -10.0597,1.42352 -11.6926,0.33642 -11.8314,-9.6879 -0.2372,-17.12448 -0.1207,-34.25501 -0.01,-51.38202 0.02,-2.94043 0.768,-5.87598 1.1616,-8.6842 0.4492,-0.28321 0.712,-0.58448 1.0006,-0.6113 10.4965,-0.97617 10.6434,-0.974 10.7406,9.36844 0.1532,16.29446 0.087,32.59103 0.1045,49.38254 z"
   id="path63" />
<path
   fill="#023876"
   opacity="1"
   stroke="none"
   d="m 1415.8133,476.1948 c -5.6776,0.91742 -6.5869,-2.61871 -6.8217,-6.48678 -0.4519,-7.44251 -1.0053,-14.89914 -0.9631,-22.34677 0.069,-12.27167 0.7059,-24.53949 0.8411,-36.8118 0.055,-4.96579 2.7214,-5.32523 6.7252,-5.40506 4.3116,-0.086 4.3268,2.24576 4.3652,5.33627 0.1953,15.74411 0.5861,31.48615 0.7157,47.2305 0.041,4.96579 -0.2784,9.9689 -0.9529,14.88358 -0.1823,1.32956 -2.2669,2.3981 -3.9095,3.60006 z"
   id="path64" />
<path
   fill="#053874"
   opacity="1"
   stroke="none"
   d="m 1104.9692,754.3845 c 2.1274,1.0354 3.8452,2.24976 5.7356,2.65112 5.1709,1.0979 10.0728,0.28357 13.6905,-3.9074 3.4948,-4.04853 3.4733,-8.84638 1.771,-13.64167 -1.0399,-2.92993 -2.4277,-5.73639 -3.6456,-8.56622 9.2618,-4.85718 22.0141,-1.12482 29.9786,8.48694 10.0004,12.06872 10.579,28.15179 1.4411,40.05633 -9.2256,12.01838 -26.3005,15.33954 -41.1424,8.00257 -12.2575,-6.05951 -17.6433,-20.10675 -13.6563,-36.59217 1.9317,1.16626 3.7142,2.24237 5.8275,3.5105 z"
   id="path65"
   style="fill:#1a4681;fill-opacity:1" />
</svg>
